<svg width="1200" height="400" viewBox="0 0 1200 400" fill="none" xmlns="http://www.w3.org/2000/svg">
<g clip-path="url(#clip0_7_10)">
<mask id="mask0_7_10" style="mask-type:luminance" maskUnits="userSpaceOnUse" x="0" y="0" width="1200" height="400">
<path d="M1200 0H0V400H1200V0Z" fill="white"/>
</mask>
<g mask="url(#mask0_7_10)">
<path d="M1198.24 551H-51V-150H1249V551H1198.24ZM1199.03 550.206H1248.21V500.985H1199.03V550.206ZM1149.06 550.206H1198.24V500.985H1149.06V550.206ZM1099.09 550.206H1148.27V500.985H1099.09V550.206ZM1049.12 550.206H1098.3V500.985H1049.12L1049.12 550.206ZM999.154 550.206H1048.33V500.985H999.154V550.206ZM949.185 550.206H998.361V500.985H949.185V550.206ZM899.215 550.206H948.39V500.985H899.213L899.215 550.206ZM849.246 550.206H898.42V500.985H849.244L849.246 550.206ZM799.277 550.206H848.453V500.985H799.274L799.277 550.206ZM749.308 550.206H798.484V500.985H749.305L749.308 550.206ZM699.338 550.206H748.514V500.985H699.336L699.338 550.206ZM649.369 550.206H698.545V500.985H649.366L649.369 550.206ZM599.4 550.206H648.576V500.985H599.4V550.206ZM549.431 550.206H598.6V500.985H549.427L549.431 550.206ZM499.462 550.206H548.638V500.985H499.458L499.462 550.206ZM449.492 550.206H498.668V500.985H449.488L449.492 550.206ZM399.522 550.206H448.698V500.985H399.519L399.522 550.206ZM349.552 550.206H398.728V500.985H349.549L349.552 550.206ZM299.583 550.206H348.759V500.985H299.58L299.583 550.206ZM249.613 550.206H298.789V500.985H249.61L249.613 550.206ZM199.644 550.206H248.82V500.985H199.641L199.644 550.206ZM149.675 550.206H198.851V500.985H149.671L149.675 550.206ZM99.706 550.206H148.882V500.985H99.7L99.706 550.206ZM49.736 550.206H98.912V500.985H49.732L49.736 550.206ZM-0.233002 550.206H48.939V500.985H-0.237L-0.233002 550.206ZM-50.202 550.206H-1.031V500.985H-50.207L-50.202 550.206ZM1199.03 500.191H1248.21V450.971H1199.03V500.191ZM1149.06 500.191H1198.24V450.971H1149.06V500.191ZM1099.09 500.191H1148.27V450.971H1099.09V500.191ZM1049.12 500.191H1098.3V450.971H1049.12L1049.12 500.191ZM999.154 500.191H1048.33V450.971H999.154V500.191ZM949.185 500.191H998.361V450.971H949.185V500.191ZM899.215 500.191H948.39V450.971H899.213L899.215 500.191ZM849.246 500.191H898.42V450.971H849.244L849.246 500.191ZM799.277 500.191H848.453V450.971H799.274L799.277 500.191ZM749.308 500.191H798.484V450.971H749.305L749.308 500.191ZM699.338 500.191H748.514V450.971H699.336L699.338 500.191ZM649.369 500.191H698.545V450.971H649.366L649.369 500.191ZM599.4 500.191H648.576V450.971H599.4V500.191ZM549.431 500.191H598.6V450.971H549.427L549.431 500.191ZM499.462 500.191H548.638V450.971H499.458L499.462 500.191ZM449.492 500.191H498.668V450.971H449.488L449.492 500.191ZM399.522 500.191H448.698V450.971H399.519L399.522 500.191ZM349.552 500.191H398.728V450.971H349.549L349.552 500.191ZM299.583 500.191H348.759V450.971H299.58L299.583 500.191ZM249.613 500.191H298.789V450.971H249.61L249.613 500.191ZM199.644 500.191H248.82V450.971H199.641L199.644 500.191ZM149.675 500.191H198.851V450.971H149.671L149.675 500.191ZM99.706 500.191H148.882V450.971H99.7L99.706 500.191ZM49.736 500.191H98.912V450.971H49.732L49.736 500.191ZM-0.233002 500.191H48.939V450.971H-0.237L-0.233002 500.191ZM-50.202 500.191H-1.031V450.971H-50.207L-50.202 500.191ZM1199.03 450.177H1248.21V400.956H1199.03V450.177ZM1149.06 450.177H1198.24V400.956H1149.06V450.177ZM1099.09 450.177H1148.27V400.956H1099.09V450.177ZM1049.12 450.177H1098.3V400.956H1049.12L1049.12 450.177ZM999.154 450.177H1048.33V400.956H999.154V450.177ZM949.185 450.177H998.361V400.956H949.185V450.177ZM899.215 450.177H948.39V400.956H899.213L899.215 450.177ZM849.246 450.177H898.42V400.956H849.244L849.246 450.177ZM799.277 450.177H848.453V400.956H799.274L799.277 450.177ZM749.308 450.177H798.484V400.956H749.305L749.308 450.177ZM699.338 450.177H748.514V400.956H699.336L699.338 450.177ZM649.369 450.177H698.545V400.956H649.366L649.369 450.177ZM599.4 450.177H648.576V400.956H599.4V450.177ZM549.431 450.177H598.6V400.956H549.427L549.431 450.177ZM499.462 450.177H548.638V400.956H499.458L499.462 450.177ZM449.492 450.177H498.668V400.956H449.488L449.492 450.177ZM399.522 450.177H448.698V400.956H399.519L399.522 450.177ZM349.552 450.177H398.728V400.956H349.549L349.552 450.177ZM299.583 450.177H348.759V400.956H299.58L299.583 450.177ZM249.613 450.177H298.789V400.956H249.61L249.613 450.177ZM199.644 450.177H248.82V400.956H199.641L199.644 450.177ZM149.675 450.177H198.851V400.956H149.671L149.675 450.177ZM99.706 450.177H148.882V400.956H99.7L99.706 450.177ZM49.736 450.177H98.912V400.956H49.732L49.736 450.177ZM-0.233002 450.177H48.939V400.956H-0.237L-0.233002 450.177ZM-50.202 450.177H-1.031V400.956H-50.207L-50.202 450.177ZM1199.03 400.162H1248.21V350.941H1199.03V400.162ZM1149.06 400.162H1198.24V350.941H1149.06V400.162ZM1099.09 400.162H1148.27V350.941H1099.09V400.162ZM1049.12 400.162H1098.3V350.941H1049.12L1049.12 400.162ZM999.154 400.162H1048.33V350.941H999.154V400.162ZM949.185 400.162H998.361V350.941H949.185V400.162ZM899.215 400.162H948.39V350.941H899.213L899.215 400.162ZM849.246 400.162H898.42V350.941H849.244L849.246 400.162ZM799.277 400.162H848.453V350.941H799.274L799.277 400.162ZM749.308 400.162H798.484V350.941H749.305L749.308 400.162ZM699.338 400.162H748.514V350.941H699.336L699.338 400.162ZM649.369 400.162H698.545V350.941H649.366L649.369 400.162ZM599.4 400.162H648.576V350.941H599.4V400.162ZM549.431 400.162H598.6V350.941H549.427L549.431 400.162ZM499.462 400.162H548.638V350.941H499.458L499.462 400.162ZM449.492 400.162H498.668V350.941H449.488L449.492 400.162ZM399.522 400.162H448.698V350.941H399.519L399.522 400.162ZM349.552 400.162H398.728V350.941H349.549L349.552 400.162ZM299.583 400.162H348.759V350.941H299.58L299.583 400.162ZM249.613 400.162H298.789V350.941H249.61L249.613 400.162ZM199.644 400.162H248.82V350.941H199.641L199.644 400.162ZM149.675 400.162H198.851V350.941H149.671L149.675 400.162ZM99.706 400.162H148.882V350.941H99.7L99.706 400.162ZM49.736 400.162H98.912V350.941H49.732L49.736 400.162ZM-0.233002 400.162H48.939V350.941H-0.237L-0.233002 400.162ZM-50.202 400.162H-1.031V350.941H-50.207L-50.202 400.162ZM1199.03 350.147H1248.21V300.926H1199.03V350.147ZM1149.06 350.147H1198.24V300.926H1149.06V350.147ZM1099.09 350.147H1148.27V300.926H1099.09V350.147ZM1049.12 350.147H1098.3V300.926H1049.12L1049.12 350.147ZM999.154 350.147H1048.33V300.926H999.154V350.147ZM949.185 350.147H998.361V300.926H949.185V350.147ZM899.215 350.147H948.39V300.926H899.213L899.215 350.147ZM849.246 350.147H898.42V300.926H849.244L849.246 350.147ZM799.277 350.147H848.453V300.926H799.274L799.277 350.147ZM749.308 350.147H798.484V300.926H749.305L749.308 350.147ZM699.338 350.147H748.514V300.926H699.336L699.338 350.147ZM649.369 350.147H698.545V300.926H649.366L649.369 350.147ZM599.4 350.147H648.576V300.926H599.4V350.147ZM549.431 350.147H598.6V300.926H549.427L549.431 350.147ZM499.462 350.147H548.638V300.926H499.458L499.462 350.147ZM449.492 350.147H498.668V300.926H449.488L449.492 350.147ZM399.522 350.147H448.698V300.926H399.519L399.522 350.147ZM349.552 350.147H398.728V300.926H349.549L349.552 350.147ZM299.583 350.147H348.759V300.926H299.58L299.583 350.147ZM249.613 350.147H298.789V300.926H249.61L249.613 350.147ZM199.644 350.147H248.82V300.926H199.641L199.644 350.147ZM149.675 350.147H198.851V300.926H149.671L149.675 350.147ZM99.706 350.147H148.882V300.926H99.7L99.706 350.147ZM49.736 350.147H98.912V300.926H49.732L49.736 350.147ZM-0.233002 350.147H48.939V300.926H-0.237L-0.233002 350.147ZM-50.202 350.147H-1.031V300.926H-50.207L-50.202 350.147ZM1199.03 300.133H1248.21V250.912H1199.03V300.133ZM1149.06 300.133H1198.24V250.912H1149.06V300.133ZM1099.09 300.133H1148.27V250.912H1099.09V300.133ZM1049.12 300.133H1098.3V250.912H1049.12L1049.12 300.133ZM999.154 300.133H1048.33V250.912H999.154V300.133ZM949.185 300.133H998.361V250.912H949.185V300.133ZM899.215 300.133H948.39V250.912H899.213L899.215 300.133ZM849.246 300.133H898.42V250.912H849.244L849.246 300.133ZM799.277 300.133H848.453V250.912H799.274L799.277 300.133ZM749.308 300.133H798.484V250.912H749.305L749.308 300.133ZM699.338 300.133H748.514V250.912H699.336L699.338 300.133ZM649.369 300.133H698.545V250.912H649.366L649.369 300.133ZM599.4 300.133H648.576V250.912H599.4V300.133ZM549.431 300.133H598.6V250.912H549.427L549.431 300.133ZM499.462 300.133H548.638V250.912H499.458L499.462 300.133ZM449.492 300.133H498.668V250.912H449.488L449.492 300.133ZM399.522 300.133H448.698V250.912H399.519L399.522 300.133ZM349.552 300.133H398.728V250.912H349.549L349.552 300.133ZM299.583 300.133H348.759V250.912H299.58L299.583 300.133ZM249.613 300.133H298.789V250.912H249.61L249.613 300.133ZM199.644 300.133H248.82V250.912H199.641L199.644 300.133ZM149.675 300.133H198.851V250.912H149.671L149.675 300.133ZM99.706 300.133H148.882V250.912H99.7L99.706 300.133ZM49.736 300.133H98.912V250.912H49.732L49.736 300.133ZM-0.233002 300.133H48.939V250.912H-0.237L-0.233002 300.133ZM-50.202 300.133H-1.031V250.912H-50.207L-50.202 300.133ZM1199.03 250.118H1248.21V200.9H1199.03V250.118ZM1149.06 250.118H1198.24V200.9H1149.06V250.118ZM1099.09 250.118H1148.27V200.9H1099.09V250.118ZM1049.12 250.118H1098.3V200.9H1049.12L1049.12 250.118ZM999.154 250.118H1048.33V200.9H999.154V250.118ZM949.185 250.118H998.361V200.9H949.185V250.118ZM899.215 250.118H948.39V200.9H899.213L899.215 250.118ZM849.246 250.118H898.42V200.9H849.244L849.246 250.118ZM799.277 250.118H848.453V200.9H799.274L799.277 250.118ZM749.308 250.118H798.484V200.9H749.305L749.308 250.118ZM699.338 250.118H748.514V200.9H699.336L699.338 250.118ZM649.369 250.118H698.545V200.9H649.366L649.369 250.118ZM599.4 250.118H648.576V200.9H599.4V250.118ZM549.431 250.118H598.6V200.9H549.427L549.431 250.118ZM499.462 250.118H548.638V200.9H499.458L499.462 250.118ZM449.492 250.118H498.668V200.9H449.488L449.492 250.118ZM399.522 250.118H448.698V200.9H399.519L399.522 250.118ZM349.552 250.118H398.728V200.9H349.549L349.552 250.118ZM299.583 250.118H348.759V200.9H299.58L299.583 250.118ZM249.613 250.118H298.789V200.9H249.61L249.613 250.118ZM199.644 250.118H248.82V200.9H199.641L199.644 250.118ZM149.675 250.118H198.851V200.9H149.671L149.675 250.118ZM99.706 250.118H148.882V200.9H99.7L99.706 250.118ZM49.736 250.118H98.912V200.9H49.732L49.736 250.118ZM-0.233002 250.118H48.939V200.9H-0.237L-0.233002 250.118ZM-50.202 250.118H-1.031V200.9H-50.207L-50.202 250.118ZM1199.03 200.1H1248.21V150.882H1199.03V200.1ZM1149.06 200.1H1198.24V150.882H1149.06V200.1ZM1099.09 200.1H1148.27V150.882H1099.09V200.1ZM1049.12 200.1H1098.3V150.882H1049.12L1049.12 200.1ZM999.154 200.1H1048.33V150.882H999.154V200.1ZM949.185 200.1H998.361V150.882H949.185V200.1ZM899.215 200.1H948.39V150.882H899.213L899.215 200.1ZM849.246 200.1H898.42V150.882H849.244L849.246 200.1ZM799.277 200.1H848.453V150.882H799.274L799.277 200.1ZM749.308 200.1H798.484V150.882H749.305L749.308 200.1ZM699.338 200.1H748.514V150.882H699.336L699.338 200.1ZM649.369 200.1H698.545V150.882H649.366L649.369 200.1ZM599.4 200.1H648.576V150.882H599.4V200.1ZM549.431 200.1H598.6V150.882H549.427L549.431 200.1ZM499.462 200.1H548.638V150.882H499.458L499.462 200.1ZM449.492 200.1H498.668V150.882H449.488L449.492 200.1ZM399.522 200.1H448.698V150.882H399.519L399.522 200.1ZM349.552 200.1H398.728V150.882H349.549L349.552 200.1ZM299.583 200.1H348.759V150.882H299.58L299.583 200.1ZM249.613 200.1H298.789V150.882H249.61L249.613 200.1ZM199.644 200.1H248.82V150.882H199.641L199.644 200.1ZM149.675 200.1H198.851V150.882H149.671L149.675 200.1ZM99.706 200.1H148.882V150.882H99.7L99.706 200.1ZM49.736 200.1H98.912V150.882H49.732L49.736 200.1ZM-0.233002 200.1H48.939V150.882H-0.237L-0.233002 200.1ZM-50.202 200.1H-1.031V150.882H-50.207L-50.202 200.1ZM1199.03 150.088H1248.21V100.867H1199.03V150.088ZM1149.06 150.088H1198.24V100.867H1149.06V150.088ZM1099.09 150.088H1148.27V100.867H1099.09V150.088ZM1049.12 150.088H1098.3V100.867H1049.12L1049.12 150.088ZM999.154 150.088H1048.33V100.867H999.154V150.088ZM949.185 150.088H998.361V100.867H949.185V150.088ZM899.215 150.088H948.39V100.867H899.213L899.215 150.088ZM849.246 150.088H898.42V100.867H849.244L849.246 150.088ZM799.277 150.088H848.453V100.867H799.274L799.277 150.088ZM749.308 150.088H798.484V100.867H749.305L749.308 150.088ZM699.338 150.088H748.514V100.867H699.336L699.338 150.088ZM649.369 150.088H698.545V100.867H649.366L649.369 150.088ZM599.4 150.088H648.576V100.867H599.4V150.088ZM549.431 150.088H598.6V100.867H549.427L549.431 150.088ZM499.462 150.088H548.638V100.867H499.458L499.462 150.088ZM449.492 150.088H498.668V100.867H449.488L449.492 150.088ZM399.522 150.088H448.698V100.867H399.519L399.522 150.088ZM349.552 150.088H398.728V100.867H349.549L349.552 150.088ZM299.583 150.088H348.759V100.867H299.58L299.583 150.088ZM249.613 150.088H298.789V100.867H249.61L249.613 150.088ZM199.644 150.088H248.82V100.867H199.641L199.644 150.088ZM149.675 150.088H198.851V100.867H149.671L149.675 150.088ZM99.706 150.088H148.882V100.867H99.7L99.706 150.088ZM49.736 150.088H98.912V100.867H49.732L49.736 150.088ZM-0.233002 150.088H48.939V100.867H-0.237L-0.233002 150.088ZM-50.202 150.088H-1.031V100.867H-50.207L-50.202 150.088ZM1199.03 100.074H1248.21V50.853H1199.03V100.074ZM1149.06 100.074H1198.24V50.853H1149.06V100.074ZM1099.09 100.074H1148.27V50.853H1099.09V100.074ZM1049.12 100.074H1098.3V50.853H1049.12L1049.12 100.074ZM999.154 100.074H1048.33V50.853H999.154V100.074ZM949.185 100.074H998.361V50.853H949.185V100.074ZM899.215 100.074H948.39V50.853H899.213L899.215 100.074ZM849.246 100.074H898.42V50.853H849.244L849.246 100.074ZM799.277 100.074H848.453V50.853H799.274L799.277 100.074ZM749.308 100.074H798.484V50.853H749.305L749.308 100.074ZM699.338 100.074H748.514V50.853H699.336L699.338 100.074ZM649.369 100.074H698.545V50.853H649.366L649.369 100.074ZM599.4 100.074H648.576V50.853H599.4V100.074ZM549.431 100.074H598.6V50.853H549.427L549.431 100.074ZM499.462 100.074H548.638V50.853H499.458L499.462 100.074ZM449.492 100.074H498.668V50.853H449.488L449.492 100.074ZM399.522 100.074H448.698V50.853H399.519L399.522 100.074ZM349.552 100.074H398.728V50.853H349.549L349.552 100.074ZM299.583 100.074H348.759V50.853H299.58L299.583 100.074ZM249.613 100.074H298.789V50.853H249.61L249.613 100.074ZM199.644 100.074H248.82V50.853H199.641L199.644 100.074ZM149.675 100.074H198.851V50.853H149.671L149.675 100.074ZM99.706 100.074H148.882V50.853H99.7L99.706 100.074ZM49.736 100.074H98.912V50.853H49.732L49.736 100.074ZM-0.233002 100.074H48.939V50.853H-0.237L-0.233002 100.074ZM-50.202 100.074H-1.031V50.853H-50.207L-50.202 100.074ZM1199.03 50.059H1248.21V0.837997H1199.03V50.059ZM1149.06 50.059H1198.24V0.837997H1149.06V50.059ZM1099.09 50.059H1148.27V0.837997H1099.09V50.059ZM1049.12 50.059H1098.3V0.837997H1049.12L1049.12 50.059ZM999.154 50.059H1048.33V0.837997H999.154V50.059ZM949.185 50.059H998.361V0.837997H949.185V50.059ZM899.215 50.059H948.39V0.837997H899.213L899.215 50.059ZM849.246 50.059H898.42V0.837997H849.244L849.246 50.059ZM799.277 50.059H848.453V0.837997H799.274L799.277 50.059ZM749.308 50.059H798.484V0.837997H749.305L749.308 50.059ZM699.338 50.059H748.514V0.837997H699.336L699.338 50.059ZM649.369 50.059H698.545V0.837997H649.366L649.369 50.059ZM599.4 50.059H648.576V0.837997H599.4V50.059ZM549.431 50.059H598.6V0.837997H549.427L549.431 50.059ZM499.462 50.059H548.638V0.837997H499.458L499.462 50.059ZM449.492 50.059H498.668V0.837997H449.488L449.492 50.059ZM399.522 50.059H448.698V0.837997H399.519L399.522 50.059ZM349.552 50.059H398.728V0.837997H349.549L349.552 50.059ZM299.583 50.059H348.759V0.837997H299.58L299.583 50.059ZM249.613 50.059H298.789V0.837997H249.61L249.613 50.059ZM199.644 50.059H248.82V0.837997H199.641L199.644 50.059ZM149.675 50.059H198.851V0.837997H149.671L149.675 50.059ZM99.706 50.059H148.882V0.837997H99.7L99.706 50.059ZM49.736 50.059H98.912V0.837997H49.732L49.736 50.059ZM-0.233002 50.059H48.939V0.837997H-0.237L-0.233002 50.059ZM-50.202 50.059H-1.031V0.837997H-50.207L-50.202 50.059ZM1199.03 0.0440063H1248.21V-49.177H1199.03V0.0440063ZM1149.06 0.0440063H1198.24V-49.177H1149.06V0.0440063ZM1099.09 0.0440063H1148.27V-49.177H1099.09V0.0440063ZM1049.12 0.0440063H1098.3V-49.177H1049.12L1049.12 0.0440063ZM999.154 0.0440063H1048.33V-49.177H999.154V0.0440063ZM949.185 0.0440063H998.361V-49.177H949.185V0.0440063ZM899.215 0.0440063H948.39V-49.177H899.213L899.215 0.0440063ZM849.246 0.0440063H898.42V-49.177H849.244L849.246 0.0440063ZM799.277 0.0440063H848.453V-49.177H799.274L799.277 0.0440063ZM749.308 0.0440063H798.484V-49.177H749.305L749.308 0.0440063ZM699.338 0.0440063H748.514V-49.177H699.336L699.338 0.0440063ZM649.369 0.0440063H698.545V-49.177H649.366L649.369 0.0440063ZM599.4 0.0440063H648.576V-49.177H599.4V0.0440063ZM549.431 0.0440063H598.6V-49.177H549.427L549.431 0.0440063ZM499.462 0.0440063H548.638V-49.177H499.458L499.462 0.0440063ZM449.492 0.0440063H498.668V-49.177H449.488L449.492 0.0440063ZM399.522 0.0440063H448.698V-49.177H399.519L399.522 0.0440063ZM349.552 0.0440063H398.728V-49.177H349.549L349.552 0.0440063ZM299.583 0.0440063H348.759V-49.177H299.58L299.583 0.0440063ZM249.613 0.0440063H298.789V-49.177H249.61L249.613 0.0440063ZM199.644 0.0440063H248.82V-49.177H199.641L199.644 0.0440063ZM149.675 0.0440063H198.851V-49.177H149.671L149.675 0.0440063ZM99.706 0.0440063H148.882V-49.177H99.7L99.706 0.0440063ZM49.736 0.0440063H98.912V-49.177H49.732L49.736 0.0440063ZM-0.233002 0.0440063H48.939V-49.177H-0.237L-0.233002 0.0440063ZM-50.202 0.0440063H-1.031V-49.177H-50.207L-50.202 0.0440063ZM1199.03 -49.971H1248.21V-99.191H1199.03V-49.971ZM1149.06 -49.971H1198.24V-99.191H1149.06V-49.971ZM1099.09 -49.971H1148.27V-99.191H1099.09V-49.971ZM1049.12 -49.971H1098.3V-99.191H1049.12L1049.12 -49.971ZM999.154 -49.971H1048.33V-99.191H999.154V-49.971ZM949.185 -49.971H998.361V-99.191H949.185V-49.971ZM899.215 -49.971H948.39V-99.191H899.213L899.215 -49.971ZM849.246 -49.971H898.42V-99.191H849.244L849.246 -49.971ZM799.277 -49.971H848.453V-99.191H799.274L799.277 -49.971ZM749.308 -49.971H798.484V-99.191H749.305L749.308 -49.971ZM699.338 -49.971H748.514V-99.191H699.336L699.338 -49.971ZM649.369 -49.971H698.545V-99.191H649.366L649.369 -49.971ZM599.4 -49.971H648.576V-99.191H599.4V-49.971ZM549.431 -49.971H598.6V-99.191H549.427L549.431 -49.971ZM499.462 -49.971H548.638V-99.191H499.458L499.462 -49.971ZM449.492 -49.971H498.668V-99.191H449.488L449.492 -49.971ZM399.522 -49.971H448.698V-99.191H399.519L399.522 -49.971ZM349.552 -49.971H398.728V-99.191H349.549L349.552 -49.971ZM299.583 -49.971H348.759V-99.191H299.58L299.583 -49.971ZM249.613 -49.971H298.789V-99.191H249.61L249.613 -49.971ZM199.644 -49.971H248.82V-99.191H199.641L199.644 -49.971ZM149.675 -49.971H198.851V-99.191H149.671L149.675 -49.971ZM99.706 -49.971H148.882V-99.191H99.7L99.706 -49.971ZM49.736 -49.971H98.912V-99.191H49.732L49.736 -49.971ZM-0.233002 -49.971H48.939V-99.191H-0.237L-0.233002 -49.971ZM-50.202 -49.971H-1.031V-99.191H-50.207L-50.202 -49.971ZM1199.03 -99.985H1248.21V-149.206H1199.03V-99.985ZM1149.06 -99.985H1198.24V-149.206H1149.06V-99.985ZM1099.09 -99.985H1148.27V-149.206H1099.09V-99.985ZM1049.12 -99.985H1098.3V-149.206H1049.12L1049.12 -99.985ZM999.154 -99.985H1048.33V-149.206H999.154V-99.985ZM949.185 -99.985H998.361V-149.206H949.185V-99.985ZM899.215 -99.985H948.39V-149.206H899.213L899.215 -99.985ZM849.246 -99.985H898.42V-149.206H849.244L849.246 -99.985ZM799.277 -99.985H848.453V-149.206H799.274L799.277 -99.985ZM749.308 -99.985H798.484V-149.206H749.305L749.308 -99.985ZM699.338 -99.985H748.514V-149.206H699.336L699.338 -99.985ZM649.369 -99.985H698.545V-149.206H649.366L649.369 -99.985ZM599.4 -99.985H648.576V-149.206H599.4V-99.985ZM549.431 -99.985H598.6V-149.206H549.427L549.431 -99.985ZM499.462 -99.985H548.638V-149.206H499.458L499.462 -99.985ZM449.492 -99.985H498.668V-149.206H449.488L449.492 -99.985ZM399.522 -99.985H448.698V-149.206H399.519L399.522 -99.985ZM349.552 -99.985H398.728V-149.206H349.549L349.552 -99.985ZM299.583 -99.985H348.759V-149.206H299.58L299.583 -99.985ZM249.613 -99.985H298.789V-149.206H249.61L249.613 -99.985ZM199.644 -99.985H248.82V-149.206H199.641L199.644 -99.985ZM149.675 -99.985H198.851V-149.206H149.671L149.675 -99.985ZM99.706 -99.985H148.882V-149.206H99.7L99.706 -99.985ZM49.736 -99.985H98.912V-149.206H49.732L49.736 -99.985ZM-0.233002 -99.985H48.939V-149.206H-0.237L-0.233002 -99.985ZM-50.202 -99.985H-1.031V-149.206H-50.207L-50.202 -99.985Z" fill="url(#paint0_radial_7_10)"/>
</g>
<path d="M513.281 179.047C513.594 177.953 513.75 176.625 513.75 175.062C513.75 173.188 512.891 172.094 511.172 171.781C509.141 171.469 507.891 172.094 507.422 173.656C506.484 181.781 505 188.109 502.969 192.641H481.875C480.312 192.797 479.453 193.812 479.297 195.688C479.453 197.719 480.312 198.812 481.875 198.969H501.328C502.422 201.312 504.141 201.703 506.484 200.141C506.797 202.484 507.656 205.844 509.062 210.219C509.375 211.312 509.609 212.094 509.766 212.562C508.516 214.906 506.094 217.719 502.5 221C502.031 221.312 501.719 221.547 501.562 221.703C500.625 222.797 500.391 223.969 500.859 225.219C501.641 226.469 502.734 227.094 504.141 227.094C506.641 226.156 509.531 223.656 512.812 219.594C514.219 221.781 515.703 223.656 517.266 225.219C518.516 226.625 519.922 226.703 521.484 225.453C523.047 223.891 523.281 222.406 522.188 221C519.531 218.188 517.656 215.531 516.562 213.031C519.219 207.25 520.625 198.031 520.781 185.375C522.188 185.062 522.891 183.891 522.891 181.859C522.578 179.984 521.641 179.047 520.078 179.047H513.281ZM472.5 186.078C475.469 183.266 477.891 179.984 479.766 176.234C480.703 174.516 480.312 173.188 478.594 172.25C476.719 171.625 475.234 172.094 474.141 173.656C472.734 175.844 470.859 178.344 468.516 181.156C467.266 182.719 467.109 184.203 468.047 185.609C469.609 187.016 471.094 187.172 472.5 186.078ZM489.375 183.5H486.328V177.406C486.172 175.844 485.234 174.984 483.516 174.828C481.641 174.984 480.625 175.844 480.469 177.406V186.078C480.469 188.422 481.875 189.672 484.688 189.828H499.688C502.656 189.828 504.141 188.578 504.141 186.078V176.938C503.984 175.375 503.047 174.516 501.328 174.359C499.453 174.516 498.438 175.375 498.281 176.938V183.5H495.234V174.125C495.078 172.562 494.062 171.781 492.188 171.781C490.469 171.938 489.531 172.797 489.375 174.359V183.5ZM514.688 185.375C514.688 192.562 514.141 198.734 513.047 203.891C512.109 199.672 511.328 195.141 510.703 190.297C511.172 188.891 511.641 187.25 512.109 185.375H514.688ZM477.891 195.688C478.828 193.812 479.531 192.172 480 190.766C480.625 188.734 480.156 187.328 478.594 186.547C476.875 185.922 475.547 186.547 474.609 188.422C473.047 192.484 470.938 196.312 468.281 199.906C467.188 201.625 467.031 203.109 467.812 204.359C469.062 205.609 470.391 205.766 471.797 204.828V224.281C471.953 225.844 472.969 226.703 474.844 226.859C476.719 226.859 477.734 226.078 477.891 224.516V195.688ZM485.156 201.781C483.125 201.938 482.031 203.188 481.875 205.531C481.875 209.75 481.641 213.031 481.172 215.375C480.234 219.125 479.453 221.781 478.828 223.344C478.672 224.75 479.375 225.688 480.938 226.156C482.5 226.469 483.75 225.922 484.688 224.516C486.875 220.766 488.125 215.688 488.438 209.281C488.438 208.5 488.75 208.109 489.375 208.109H493.594V217.953C493.594 219.984 494.688 221.078 496.875 221.234C498.75 221.234 500.391 220.688 501.797 219.594C503.203 218.344 504.844 216 506.719 212.562C507.5 211.156 507.344 209.906 506.25 208.812C505 207.875 503.75 207.797 502.5 208.578C502.188 208.891 501.641 209.516 500.859 210.453C500.234 211.391 499.844 211.938 499.688 212.094V204.594C499.531 202.875 498.516 201.938 496.641 201.781H485.156ZM555.078 224.984C555.234 227.016 556.406 228.109 558.594 228.266C560.625 228.109 561.719 227.016 561.875 224.984V188.656C562.031 188.969 562.266 189.672 562.578 190.766C563.047 192.328 563.438 193.422 563.75 194.047C564.844 196.391 566.328 196.703 568.203 194.984C569.922 196.391 571.484 196.234 572.891 194.516C573.672 193.578 574.375 191.938 575 189.594H582.266V199.906H571.953C569.766 200.062 568.594 201.234 568.438 203.422C568.594 205.609 569.766 206.781 571.953 206.938H582.266V219.125H568.906C566.875 219.281 565.859 220.375 565.859 222.406C565.859 224.594 566.875 225.766 568.906 225.922H599.844C601.875 225.766 602.969 224.594 603.125 222.406C602.969 220.375 601.875 219.281 599.844 219.125H589.297V206.938H598.438C600.781 206.781 602.109 205.609 602.422 203.422C602.109 201.234 600.781 200.062 598.438 199.906H589.297V189.594H599.844C602.188 189.438 603.438 188.266 603.594 186.078C603.438 183.891 602.188 182.719 599.844 182.562H589.297V175.531C589.141 173.5 588.047 172.406 586.016 172.25C583.672 172.562 582.422 173.656 582.266 175.531V182.562H576.641C576.953 181.469 577.344 179.75 577.812 177.406C578.125 175.531 577.344 174.281 575.469 173.656C573.594 173.344 572.344 174.047 571.719 175.766C570.781 179.984 569.453 184.594 567.734 189.594C567.578 188.969 567.109 187.484 566.328 185.141C564.922 183.422 563.438 183.344 561.875 184.906V174.594C561.719 172.875 560.547 171.938 558.359 171.781C556.328 171.938 555.234 172.875 555.078 174.594V224.984ZM547.344 200.844C547.344 202.719 548.281 203.734 550.156 203.891C552.031 203.734 553.047 202.719 553.203 200.844C553.203 199.594 553.281 197.484 553.438 194.516C553.594 190.141 553.75 187.328 553.906 186.078C553.906 184.516 552.969 183.578 551.094 183.266C549.375 183.422 548.438 184.281 548.281 185.844C548.125 186.625 547.969 189.359 547.812 194.047C547.5 197.797 547.344 200.062 547.344 200.844ZM633.438 216.781C634.219 219.594 636.172 221 639.297 221C642.266 221 644.219 219.672 645.156 217.016L652.188 193.812L659.219 217.016C660.156 219.672 662.188 221 665.312 221C668.281 221 670.234 219.594 671.172 216.781L678.672 183.969C678.828 183.344 678.906 182.641 678.906 181.859C678.594 179.359 677.188 178.031 674.688 177.875C672.031 177.875 670.469 179.359 670 182.328L664.844 207.641H664.609L656.875 181.391C656.094 179.047 654.531 177.875 652.188 177.875C650 178.031 648.438 179.203 647.5 181.391L639.766 207.641H639.531L634.609 182.328C633.984 179.203 632.344 177.719 629.688 177.875C627.188 178.031 625.781 179.359 625.469 181.859C625.469 182.641 625.547 183.344 625.703 183.969L633.438 216.781ZM700.547 214.203C700.078 214.672 699.766 215.688 699.609 217.25C699.766 219.75 701.25 221 704.062 221C705.781 221 707.031 220.453 707.812 219.359L717.656 205.766L727.5 219.359C728.438 220.453 729.688 221 731.25 221C734.219 221 735.781 219.75 735.938 217.25C735.938 216 735.547 214.984 734.766 214.203L723.047 198.031L732.656 184.906C733.281 184.125 733.594 183.266 733.594 182.328C733.438 179.516 731.953 178.031 729.141 177.875C727.734 177.875 726.406 178.656 725.156 180.219L717.656 190.766L710.391 180.219C709.141 178.656 707.812 177.875 706.406 177.875C703.438 178.188 701.875 179.672 701.719 182.328C701.719 183.266 702.109 184.125 702.891 184.906L712.5 198.031L700.547 214.203Z" fill="white"/>
</g>
<defs>
<radialGradient id="paint0_radial_7_10" cx="0" cy="0" r="1" gradientUnits="userSpaceOnUse" gradientTransform="translate(599 200.5) scale(548.6 295.822)">
<stop stop-color="white" stop-opacity="0.102"/>
<stop offset="1" stop-color="white" stop-opacity="0"/>
</radialGradient>
<clipPath id="clip0_7_10">
<rect width="1200" height="400" fill="white"/>
</clipPath>
</defs>
</svg>
