<svg width="50" height="50" viewBox="0 0 50 50" fill="none" xmlns="http://www.w3.org/2000/svg">
<path fill-rule="evenodd" clip-rule="evenodd" d="M25.4174 5.03069C25.2077 5.01088 24.9933 5 24.7883 5C23.0532 5.02226 21.3965 5.72641 20.1762 6.96013C19.781 7.34061 19.4227 7.75754 19.1054 8.20506L18.0686 8.49861C17.4978 8.3337 16.9068 8.25044 16.3126 8.25176C14.3743 8.28944 12.5276 9.08459 11.1681 10.4667C10.4205 11.1366 9.82487 11.9587 9.4215 12.8779C9.01813 13.797 8.81653 14.7924 8.82972 15.7961C8.84022 16.4274 8.93167 17.0536 9.10259 17.6614L8.77435 18.3766C8.20989 18.6162 7.68704 18.9458 7.22653 19.3507C5.36761 20.9767 4.98995 23.3347 5.0002 25.0283C5.00977 26.7342 5.41522 29.0874 7.29191 30.6191C7.76615 31.0066 8.3023 31.3109 8.87843 31.5185L9.07591 31.8694C8.9289 32.4251 8.85183 32.9972 8.8464 33.572C8.84554 34.5609 9.04885 35.5404 9.44285 36.4475C9.83684 37.3545 10.4134 38.1696 11.1368 38.8439C11.7651 39.5183 12.5227 40.0602 13.3644 40.4358C14.2062 40.8113 15.1149 41.0137 16.0364 41.0309C16.6904 41.0316 17.3405 40.9279 17.9619 40.724L18.9259 41.1857C19.2424 41.7495 19.6268 42.2729 20.0694 42.7442C20.7198 43.4501 21.5109 44.0121 22.3918 44.3934C23.2727 44.7747 24.2234 44.9668 25.1833 44.9578H25.2693C26.2782 44.942 27.272 44.7076 28.1815 44.2706C29.091 43.8336 29.8944 43.2043 30.5373 42.4266C30.9734 41.9241 31.3547 41.3767 31.6748 40.7934L32.0697 40.6653C32.6719 40.8567 33.3006 40.9534 33.9325 40.9522C35.7728 40.9132 37.5297 40.1792 38.8508 38.8973C39.7291 38.1263 40.3809 37.1303 40.7349 36.0165C41.0074 35.1232 41.0901 34.1829 40.9784 33.2557C40.9033 32.6063 40.7514 31.968 40.526 31.3543L40.7255 30.9874C41.3205 30.8466 41.8869 30.6042 42.3994 30.2709C43.5035 29.5501 44.8482 28.0676 44.9807 25.0923C45.0595 24.0039 44.8964 22.9121 44.5037 21.8939C44.111 20.8758 43.4983 19.9562 42.709 19.2026C42.2281 18.7458 41.6918 18.3514 41.1125 18.0284L40.9077 17.1477C41.0599 16.5573 41.1268 15.9491 41.1065 15.3397C41.0244 13.5122 40.2463 11.7849 38.9322 10.5121C38.0977 9.60985 37.0387 8.94556 35.8632 8.58668C34.6878 8.22779 33.438 8.18701 32.2419 8.46926L30.8755 7.87681C30.5694 7.47918 30.2201 7.11706 29.8334 6.79734C28.5718 5.7795 27.033 5.16406 25.4174 5.03069ZM26.8498 8.88957C27.3967 9.17273 27.8733 9.57487 28.2442 10.0664L28.4877 10.5628L31.4599 11.8531L32.1118 12.1774L32.7949 11.8665C33.1364 11.7557 33.4934 11.7002 33.8524 11.7023C34.3511 11.7085 34.8431 11.8181 35.2975 12.0239C35.7518 12.2297 36.1588 12.5271 36.4924 12.8979C37.1696 13.5348 37.5952 14.3938 37.6919 15.3184C37.7224 15.6887 37.6806 16.0605 37.5698 16.4152L37.3437 16.8849L38.195 20.5263L39.0836 20.8345C39.5562 21.036 39.9875 21.321 40.3572 21.6778C40.7899 22.0974 41.1235 22.6088 41.334 23.1736C41.5444 23.7383 41.6266 24.3425 41.5742 24.9429C41.5202 26.1412 41.1873 26.9619 40.5834 27.382C40.3079 27.5702 39.9886 27.684 39.6561 27.7116L38.6473 27.6743L36.6838 31.2783L37.1402 32.0976C37.374 32.5825 37.5258 33.1028 37.5892 33.6374C37.665 34.1404 37.6113 34.654 37.4331 35.1305C37.2548 35.607 36.9578 36.0309 36.5704 36.3607C35.8715 37.0687 34.9328 37.4885 33.9391 37.5376C33.6018 37.542 33.2667 37.4783 32.9544 37.3508L32.3693 36.9865L29.1729 38.0113L28.8767 38.7692C28.646 39.2822 28.3406 39.7585 27.9707 40.1823C27.6423 40.595 27.2279 40.9305 26.7558 41.1656C26.2836 41.4008 25.7652 41.5299 25.238 41.5433H25.1893C24.7126 41.5529 24.2397 41.4624 23.7996 41.2791C23.3594 41.0957 22.9622 40.8237 22.6334 40.4785C22.2834 40.1244 21.9961 39.7133 21.7841 39.2629L21.5579 38.6544L18.7498 37.3134L17.9445 36.8664L17.1559 37.3775C16.8063 37.5365 16.4265 37.6178 16.0424 37.6163C15.5679 37.5926 15.103 37.4738 14.6748 37.2681C14.2465 37.0623 13.8637 36.7737 13.5486 36.4181C12.7838 35.7271 12.3241 34.7614 12.2703 33.7321C12.2563 33.2904 12.3297 32.8494 12.4871 32.4365L12.8901 31.6719L11.0781 28.4455L10.1987 28.3534C9.92779 28.2796 9.67546 28.1497 9.45819 27.9718C8.61174 27.2804 8.42755 25.9784 8.42209 25.0069C8.37262 24.469 8.43191 23.927 8.59622 23.4124C8.76052 22.8978 9.02676 22.4211 9.3788 22.0114C9.64096 21.7477 9.96506 21.554 10.3215 21.4483L11.1721 21.3482L12.8274 17.7415L12.4858 17.0236C12.3317 16.6134 12.2506 16.1795 12.2456 15.7413C12.2428 15.2116 12.3546 14.688 12.5732 14.2055C12.7918 13.723 13.1118 13.2931 13.5119 12.9459C14.2434 12.1705 15.2484 11.7102 16.3133 11.6623C16.6374 11.6582 16.9593 11.7131 17.264 11.8238L17.7977 12.12L20.6579 11.3114L21.3577 11.1126L21.6993 10.4707C21.7096 10.4509 22.8488 8.41588 24.7883 8.41588C24.8853 8.41588 24.9848 8.421 25.0845 8.43056C25.7 8.44975 26.303 8.60641 26.8498 8.88957ZM22.9138 21.9719C23.4756 21.5966 24.136 21.3962 24.8116 21.3962C25.7172 21.3973 26.5854 21.7576 27.2258 22.3979C27.8661 23.0383 28.2264 23.9065 28.2275 24.8121C28.2275 25.4877 28.0271 26.1481 27.6518 26.7099C27.2764 27.2716 26.743 27.7094 26.1188 27.968C25.4946 28.2265 24.8078 28.2942 24.1452 28.1624C23.4826 28.0306 22.8739 27.7052 22.3962 27.2275C21.9185 26.7498 21.5931 26.1411 21.4613 25.4785C21.3295 24.8159 21.3972 24.1291 21.6557 23.5049C21.9143 22.8807 22.3521 22.3473 22.9138 21.9719ZM28.6071 19.1317C27.4836 18.381 26.1628 17.9804 24.8116 17.9804C22.9997 17.9804 21.262 18.7001 19.9808 19.9813C18.6996 21.2625 17.9798 23.0002 17.9798 24.8121C17.9798 26.1633 18.3805 27.4842 19.1312 28.6076C19.8819 29.7311 20.9488 30.6068 22.1972 31.1238C23.4455 31.6409 24.8192 31.7762 26.1444 31.5126C27.4696 31.249 28.6869 30.5983 29.6424 29.6429C30.5978 28.6875 31.2485 27.4702 31.5121 26.1449C31.7757 24.8197 31.6404 23.4461 31.1233 22.1977C30.6062 20.9494 29.7306 19.8824 28.6071 19.1317Z" fill="white"/>
</svg>
