<svg width="50" height="50" viewBox="0 0 50 50" fill="none" xmlns="http://www.w3.org/2000/svg">
<g clip-path="url(#clip0_100_9)">
<path fill-rule="evenodd" clip-rule="evenodd" d="M6.55873 6.55873C7.89781 5.21964 9.71339 4.46641 11.6071 4.46429H38.3929C40.2866 4.46641 42.1022 5.21964 43.4413 6.55873C44.7804 7.89781 45.5336 9.71339 45.5357 11.6071V38.3929C45.5336 40.2866 44.7804 42.1022 43.4413 43.4413C42.1022 44.7804 40.2866 45.5336 38.3929 45.5357H11.6071C9.71339 45.5336 7.89781 44.7804 6.55873 43.4413C5.21964 42.1022 4.46641 40.2866 4.46429 38.3929V11.6071C4.46641 9.71339 5.21964 7.89781 6.55873 6.55873ZM38.3929 0H11.6071C8.52874 0 5.57642 1.22289 3.39965 3.39965C1.22289 5.57642 0 8.52874 0 11.6071V38.3929C0 41.4713 1.22289 44.4236 3.39965 46.6003C5.57642 48.7771 8.52874 50 11.6071 50H38.3929C39.9171 50 41.4265 49.6998 42.8347 49.1165C44.243 48.5331 45.5225 47.6782 46.6003 46.6003C47.6782 45.5225 48.5331 44.243 49.1165 42.8347C49.6998 41.4265 50 39.9171 50 38.3929V11.6071C50 10.0829 49.6998 8.57352 49.1165 7.16528C48.5331 5.75704 47.6782 4.47748 46.6003 3.39965C45.5225 2.32183 44.243 1.46685 42.8347 0.883541C41.4265 0.300228 39.9171 0 38.3929 0ZM17.3248 13.865H32.3275C33.5603 13.865 34.5597 14.8644 34.5597 16.0972C34.5597 17.3299 33.5603 18.3293 32.3275 18.3293H17.3248C16.0921 18.3293 15.0927 17.3299 15.0927 16.0972C15.0927 14.8644 16.0921 13.865 17.3248 13.865ZM31.8812 31.6598H17.7741C17.4467 31.5996 17.1101 31.612 16.7881 31.6964C16.4661 31.7807 16.1666 31.9349 15.9108 32.1479C15.655 32.3608 15.4492 32.6275 15.308 32.9289C15.1668 33.2303 15.0936 33.5591 15.0936 33.892C15.0936 34.2248 15.1668 34.5536 15.308 34.855C15.4492 35.1564 15.655 35.4231 15.9108 35.6361C16.1666 35.8491 16.4661 36.0032 16.7881 36.0875C17.1101 36.1719 17.4467 36.1844 17.7741 36.1241H31.8812C32.2086 36.1844 32.5452 36.1719 32.8672 36.0875C33.1892 36.0032 33.4887 35.8491 33.7445 35.6361C34.0003 35.4231 34.206 35.1564 34.3473 34.855C34.4885 34.5536 34.5618 34.2248 34.5618 33.892C34.5618 33.5591 34.4885 33.2303 34.3473 32.9289C34.206 32.6275 34.0003 32.3608 33.7445 32.1479C33.4887 31.9349 33.1892 31.7807 32.8672 31.6964C32.5452 31.612 32.2086 31.5996 31.8812 31.6598ZM17.7741 22.7626H31.8812C32.2086 22.7024 32.5452 22.7149 32.8672 22.7992C33.1892 22.8835 33.4887 23.0377 33.7445 23.2507C34.0003 23.4637 34.206 23.7303 34.3473 24.0317C34.4885 24.3331 34.5618 24.6619 34.5618 24.9948C34.5618 25.3276 34.4885 25.6564 34.3473 25.9578C34.206 26.2592 34.0003 26.5259 33.7445 26.7389C33.4887 26.9519 33.1892 27.106 32.8672 27.1904C32.5452 27.2747 32.2086 27.2872 31.8812 27.2269H17.7741C17.4467 27.2872 17.1101 27.2747 16.7881 27.1904C16.4661 27.106 16.1666 26.9519 15.9108 26.7389C15.655 26.5259 15.4492 26.2592 15.308 25.9578C15.1668 25.6564 15.0936 25.3276 15.0936 24.9948C15.0936 24.6619 15.1668 24.3331 15.308 24.0317C15.4492 23.7303 15.655 23.4637 15.9108 23.2507C16.1666 23.0377 16.4661 22.8835 16.7881 22.7992C17.1101 22.7149 17.4467 22.7024 17.7741 22.7626Z" fill="white"/>
</g>
<defs>
<clipPath id="clip0_100_9">
<rect width="50" height="50" fill="white"/>
</clipPath>
</defs>
</svg>
