<svg width="50" height="50" viewBox="0 0 50 50" fill="none" xmlns="http://www.w3.org/2000/svg">
<path fill-rule="evenodd" clip-rule="evenodd" d="M3.90625 25.5C3.90625 20.7538 7.7538 16.9062 12.5 16.9062H37.5C42.2462 16.9062 46.0938 20.7538 46.0938 25.5C46.0938 30.2462 42.2462 34.0938 37.5 34.0938H12.5C7.7538 34.0938 3.90625 30.2462 3.90625 25.5ZM12.5 13C5.59644 13 0 18.5964 0 25.5C0 32.4036 5.59644 38 12.5 38H37.5C44.4036 38 50 32.4036 50 25.5C50 18.5964 44.4036 13 37.5 13H12.5ZM13.2812 19.25H22.6562C26.108 19.25 28.9062 22.0482 28.9062 25.5C28.9062 28.9518 26.108 31.75 22.6562 31.75H13.2812C9.82947 31.75 7.03125 28.9518 7.03125 25.5C7.03125 22.0482 9.82947 19.25 13.2812 19.25Z" fill="white"/>
</svg>
