<svg width="50" height="50" viewBox="0 0 50 50" fill="none" xmlns="http://www.w3.org/2000/svg">
<g clip-path="url(#clip0_100_24)">
<path fill-rule="evenodd" clip-rule="evenodd" d="M25.5218 0.038362C25.2596 0.0135968 24.9916 0 24.7354 0C22.5665 0.0278227 20.4956 0.908013 18.9702 2.45016C18.4762 2.92576 18.0284 3.44692 17.6317 4.00632L16.3358 4.37326C15.6222 4.16712 14.8836 4.06305 14.1408 4.0647C11.7179 4.1118 9.4095 5.10574 7.71017 6.83343C6.77567 7.67069 6.03108 8.69841 5.52687 9.84735C5.02267 10.9963 4.77066 12.2405 4.78716 13.4951C4.80028 14.2842 4.91458 15.067 5.12824 15.8268L4.71794 16.7208C4.01236 17.0202 3.3588 17.4323 2.78316 17.9384C0.459507 19.9708 -0.0125588 22.9184 0.00025074 25.0353C0.0122063 27.1677 0.519031 30.1093 2.86489 32.0239C3.45769 32.5082 4.12788 32.8886 4.84803 33.1481L5.09489 33.5867C4.91112 34.2814 4.81479 34.9964 4.808 35.715C4.80693 36.9511 5.06107 38.1755 5.55356 39.3093C6.04605 40.4431 6.7668 41.4619 7.67097 42.3049C8.45642 43.1479 9.40336 43.8252 10.4556 44.2947C11.5077 44.7642 12.6436 45.0171 13.7955 45.0386C14.613 45.0395 15.4256 44.9098 16.2023 44.655L17.4074 45.2321C17.803 45.9368 18.2835 46.5911 18.8368 47.1802C19.6498 48.0626 20.6387 48.7652 21.7398 49.2417C22.8409 49.7183 24.0293 49.9585 25.2291 49.9473H25.3367C26.5978 49.9274 27.84 49.6345 28.9769 49.0883C30.1137 48.5421 31.1181 47.7554 31.9216 46.7832C32.4667 46.1551 32.9434 45.4709 33.3435 44.7417L33.8372 44.5816C34.5899 44.8209 35.3757 44.9418 36.1656 44.9402C38.466 44.8915 40.6621 43.974 42.3135 42.3716C43.4114 41.4078 44.2261 40.1629 44.6686 38.7706C45.0093 37.654 45.1126 36.4787 44.973 35.3197C44.8792 34.5079 44.6893 33.71 44.4076 32.9429L44.6569 32.4842C45.4006 32.3082 46.1086 32.0053 46.7493 31.5886C48.1293 30.6876 49.8102 28.8344 49.9759 25.1154C50.0744 23.7549 49.8705 22.3902 49.3796 21.1174C48.8887 19.8447 48.1228 18.6953 47.1363 17.7532C46.5352 17.1822 45.8647 16.6892 45.1406 16.2855L44.8846 15.1847C45.0748 14.4466 45.1585 13.6864 45.1331 12.9246C45.0305 10.6402 44.0578 8.48107 42.4152 6.89014C41.3721 5.76232 40.0483 4.93196 38.579 4.48334C37.1097 4.03473 35.5475 3.98376 34.0523 4.33657L32.3444 3.59602C31.9618 3.09898 31.5252 2.64633 31.0417 2.24668C29.4647 0.974372 27.5412 0.205072 25.5218 0.038362ZM27.3123 4.86196C27.9958 5.21591 28.5917 5.71859 29.0553 6.33306L29.3597 6.95352L33.0749 8.56639L33.8897 8.97169L34.7437 8.58307C35.1706 8.44462 35.6167 8.37523 36.0655 8.37792C36.6889 8.38565 37.3039 8.52268 37.8718 8.77988C38.4398 9.03709 38.9485 9.4089 39.3655 9.87237C40.2119 10.6685 40.744 11.7422 40.8649 12.898C40.903 13.3609 40.8508 13.8256 40.7123 14.269L40.4296 14.8561L41.4937 19.4078L42.6045 19.7931C43.1953 20.045 43.7344 20.4013 44.1966 20.8472C44.7373 21.3718 45.1544 22.011 45.4175 22.7169C45.6806 23.4229 45.7833 24.1781 45.7177 24.9286C45.6502 26.4265 45.2342 27.4523 44.4793 27.9775C44.1348 28.2128 43.7357 28.3549 43.3201 28.3895L42.0591 28.3428L39.6048 32.8478L40.1752 33.8719C40.4674 34.4781 40.6572 35.1285 40.7365 35.7967C40.8313 36.4255 40.7641 37.0675 40.5413 37.6631C40.3185 38.2587 39.9472 38.7887 39.463 39.2009C38.5894 40.0859 37.4159 40.6106 36.1739 40.672C35.7522 40.6775 35.3334 40.5978 34.943 40.4385L34.2116 39.9832L30.2161 41.2641L29.8459 42.2115C29.5575 42.8527 29.1758 43.4482 28.7133 43.9778C28.3029 44.4938 27.7849 44.9132 27.1947 45.2071C26.6045 45.501 25.9566 45.6624 25.2975 45.6791H25.2366C24.6407 45.6912 24.0496 45.578 23.4995 45.3488C22.9493 45.1196 22.4527 44.7797 22.0417 44.3481C21.6043 43.9056 21.2452 43.3916 20.9801 42.8286L20.6974 42.0681L17.1872 40.3918L16.1807 39.8331L15.1949 40.4719C14.7579 40.6707 14.2832 40.7723 13.803 40.7704C13.2098 40.7407 12.6288 40.5923 12.0934 40.3351C11.5581 40.0779 11.0797 39.7171 10.6857 39.2726C9.72974 38.4089 9.1551 37.2017 9.08786 35.9151C9.07038 35.363 9.16216 34.8117 9.3589 34.2956L9.86261 33.3399L7.59759 29.3069L6.49843 29.1918C6.15974 29.0995 5.84432 28.9372 5.57274 28.7148C4.51467 27.8505 4.28444 26.223 4.27761 25.0087C4.21578 24.3362 4.28989 23.6588 4.49527 23.0155C4.70065 22.3722 5.03345 21.7764 5.4735 21.2642C5.80119 20.9346 6.20632 20.6925 6.65188 20.5603L7.71517 20.4352L9.78422 15.9269L9.35723 15.0295C9.16463 14.5168 9.06328 13.9744 9.05701 13.4267C9.05356 12.7645 9.19321 12.1101 9.46648 11.5069C9.73975 10.9038 10.1398 10.3664 10.6399 9.93241C11.5543 8.96316 12.8105 8.38778 14.1416 8.32788C14.5468 8.32279 14.9492 8.39135 15.33 8.5297L15.9972 8.89997L19.5724 7.88922L20.4472 7.6407L20.8742 6.83844C20.887 6.81367 22.3109 4.26985 24.7354 4.26985C24.8566 4.26985 24.981 4.27624 25.1056 4.2882C25.875 4.31219 26.6288 4.50801 27.3123 4.86196ZM22.3923 21.2149C23.0944 20.7457 23.92 20.4953 24.7645 20.4953C25.8965 20.4967 26.9818 20.9469 27.7822 21.7474C28.5827 22.5479 29.033 23.6331 29.0343 24.7652C29.0343 25.6096 28.7839 26.4352 28.3147 27.1374C27.8455 27.8395 27.1787 28.3868 26.3985 28.71C25.6183 29.0332 24.7597 29.1177 23.9315 28.953C23.1032 28.7882 22.3424 28.3815 21.7452 27.7844C21.1481 27.1872 20.7414 26.4264 20.5767 25.5982C20.4119 24.7699 20.4965 23.9114 20.8196 23.1311C21.1428 22.3509 21.6901 21.6841 22.3923 21.2149ZM29.5089 17.6646C28.1045 16.7263 26.4535 16.2254 24.7645 16.2254C22.4996 16.2254 20.3275 17.1252 18.726 18.7267C17.1245 20.3282 16.2248 22.5003 16.2248 24.7652C16.2248 26.4541 16.7256 28.1052 17.664 29.5096C18.6023 30.9139 19.936 32.0085 21.4965 32.6548C23.0569 33.3012 24.7739 33.4703 26.4305 33.1408C28.087 32.8113 29.6086 31.9979 30.8029 30.8036C31.9972 29.6093 32.8106 28.0877 33.1401 26.4312C33.4696 24.7746 33.3005 23.0576 32.6541 21.4971C32.0078 19.9367 30.9132 18.603 29.5089 17.6646Z" fill="white"/>
</g>
<defs>
<clipPath id="clip0_100_24">
<rect width="50" height="50" fill="white"/>
</clipPath>
</defs>
</svg>
