<svg width="50" height="50" viewBox="0 0 50 50" fill="none" xmlns="http://www.w3.org/2000/svg">
<path d="M26.5536 45C25.3697 45.0026 24.1894 44.8685 23.0361 44.601C20.3832 43.9703 17.8709 42.8524 15.6264 41.3037C13.2231 39.6703 11.1995 37.5389 9.6927 35.0543C8.37056 32.8571 7.51302 30.4126 7.17327 27.8708C6.80676 24.9415 7.0229 21.9686 7.81018 19.1233C8.46193 16.579 9.63639 14.197 11.2582 12.1311C12.6443 10.3946 14.335 8.92474 16.2475 7.79379C19.1093 6.07421 22.3625 5.11315 25.6993 5.0013C26.2679 4.99025 26.836 5.04984 27.39 5.17875C27.8517 5.24845 28.2771 5.46975 28.6012 5.80603C28.9252 6.14231 29.1298 6.57591 29.1824 7.03995C29.1969 7.82096 28.9158 8.57844 28.3955 9.16115C28.0617 9.59852 27.6205 10.0834 27.1169 10.6441C25.4709 12.4626 22.985 15.212 22.38 18.4617C21.9006 21.3115 22.2544 24.239 23.3986 26.8928C24.577 29.79 26.812 32.1306 29.6515 33.4421C31.6529 34.3722 33.8307 34.8607 36.0377 34.8741C36.8242 34.8669 37.6096 34.8147 38.39 34.7173C38.7981 34.6631 39.2089 34.631 39.6205 34.621C39.9053 34.5912 40.1935 34.6188 40.4679 34.7008C40.7422 34.7827 40.9979 34.9172 41.2197 35.0983C41.4415 35.2794 41.6251 35.5021 41.7603 35.7545C41.8955 36.0069 41.9794 36.2839 42.0072 36.5688C42.0054 37.009 41.9117 37.4436 41.7321 37.8454C41.5525 38.2472 41.2905 38.6084 40.9638 38.9032C39.3656 40.5019 37.5037 41.8124 35.4593 42.777C32.6961 44.1792 29.6516 44.9387 26.5536 45ZM24.1765 8.63979C22.0128 8.96424 19.932 9.70356 18.0489 10.8174C16.5023 11.7307 15.1353 12.9178 14.0142 14.3211C12.6958 16.0062 11.7418 17.9469 11.2134 20.0202C10.5453 22.4181 10.3582 24.9242 10.6618 27.3949C10.937 29.4631 11.6334 31.4533 12.7087 33.2412C15.2228 37.2534 19.2248 40.1058 23.8374 41.1744C24.7276 41.3793 25.638 41.4816 26.5515 41.4798C29.3933 41.4023 32.1728 40.6289 34.6456 39.2265C35.1612 38.9448 35.6277 38.6627 36.0432 38.3901H36.035C33.3312 38.3792 30.6614 37.7858 28.2078 36.65C26.3341 35.8119 24.6506 34.6022 23.2583 33.094C21.9564 31.6775 20.9078 30.0475 20.159 28.2753C18.7453 24.9806 18.3134 21.3481 18.9148 17.8137C19.3291 15.7762 20.1623 13.8472 21.362 12.149C22.2162 10.9144 23.1567 9.74154 24.1765 8.63979Z" fill="white"/>
</svg>
