<svg width="50" height="50" viewBox="0 0 50 50" fill="none" xmlns="http://www.w3.org/2000/svg">
<path d="M36 40C35.606 40.0004 35.2158 39.923 34.8518 39.7721C34.4878 39.6213 34.1572 39.4 33.879 39.121L21.879 27.121C21.3166 26.5584 21.0006 25.7955 21.0006 25C21.0006 24.2045 21.3166 23.4416 21.879 22.879L33.879 10.879C34.4448 10.3325 35.2026 10.0301 35.9892 10.037C36.7758 10.0438 37.5282 10.3593 38.0845 10.9155C38.6407 11.4718 38.9562 12.2242 38.963 13.0108C38.9699 13.7974 38.6675 14.5552 38.121 15.121L28.242 25L38.121 34.879C38.5404 35.2986 38.826 35.833 38.9417 36.4149C39.0574 36.9968 38.998 37.5999 38.771 38.148C38.544 38.6961 38.1596 39.1646 37.6664 39.4942C37.1731 39.8239 36.5932 39.9999 36 40ZM14 40C13.2044 40 12.4413 39.6839 11.8787 39.1213C11.3161 38.5587 11 37.7956 11 37V13C11 12.2044 11.3161 11.4413 11.8787 10.8787C12.4413 10.3161 13.2044 10 14 10C14.7956 10 15.5587 10.3161 16.1213 10.8787C16.6839 11.4413 17 12.2044 17 13V37C17 37.7956 16.6839 38.5587 16.1213 39.1213C15.5587 39.6839 14.7956 40 14 40Z" fill="white"/>
</svg>
