<svg width="50" height="50" viewBox="0 0 50 50" fill="none" xmlns="http://www.w3.org/2000/svg">
<path d="M27.442 50C25.9621 50.0032 24.4867 49.8357 23.0452 49.5013C19.729 48.7129 16.5886 47.3155 13.783 45.3796C10.7788 43.3379 8.24934 40.6737 6.36588 37.5679C4.71321 34.8213 3.64127 31.7657 3.21659 28.5886C2.75846 24.9269 3.02862 21.2108 4.01272 17.6542C4.82742 14.4738 6.29548 11.4963 8.32269 8.91387C10.0554 6.74321 12.1687 4.90593 14.5594 3.49223C18.1367 1.34276 22.2031 0.141436 26.3742 0.00161924C27.0849 -0.0121834 27.795 0.0622985 28.4874 0.223437C29.0647 0.310564 29.5964 0.587186 30.0015 1.00754C30.4065 1.42788 30.6623 1.96989 30.728 2.54994C30.7461 3.5262 30.3947 4.47305 29.7444 5.20143C29.3271 5.74816 28.7756 6.35428 28.1461 7.05507C26.0886 9.32824 22.9812 12.7649 22.225 16.8271C21.6257 20.3894 22.068 24.0488 23.4983 27.366C24.9712 30.9875 27.765 33.9132 31.3143 35.5526C33.8162 36.7152 36.5384 37.3258 39.2972 37.3426C40.2803 37.3336 41.2619 37.2683 42.2375 37.1466C42.7477 37.0788 43.2612 37.0388 43.7756 37.0262C44.1316 36.989 44.4919 37.0235 44.8349 37.1259C45.1778 37.2284 45.4973 37.3965 45.7746 37.6229C46.0518 37.8492 46.2814 38.1276 46.4503 38.4431C46.6193 38.7586 46.7242 39.1048 46.759 39.461C46.7567 40.0112 46.6396 40.5545 46.4151 41.0568C46.1906 41.559 45.8632 42.0105 45.4548 42.3791C43.457 44.3774 41.1296 46.0155 38.5741 47.2212C35.1201 48.974 31.3145 49.9234 27.442 50ZM24.4707 4.54974C21.766 4.9553 19.165 5.87945 16.8111 7.27173C14.8778 8.41335 13.1691 9.89721 11.7677 11.6513C10.1198 13.7578 8.92726 16.1836 8.2668 18.7753C7.43166 21.7727 7.1978 24.9053 7.57728 27.9936C7.92131 30.5788 8.79172 33.0666 10.1359 35.3015C13.2785 40.3168 18.281 43.8823 24.0468 45.218C25.1596 45.4742 26.2975 45.602 27.4394 45.5997C30.9916 45.5029 34.4659 44.5362 37.557 42.7831C38.2015 42.431 38.7846 42.0784 39.304 41.7377H39.2937C35.914 41.724 32.5768 40.9822 29.5097 39.5625C27.1676 38.5148 25.0632 37.0028 23.3229 35.1176C21.6955 33.3469 20.3848 31.3094 19.4488 29.0941C17.6816 24.9758 17.1418 20.4351 17.8935 16.0172C18.4114 13.4703 19.4529 11.0589 20.9525 8.93622C22.0202 7.39299 23.1959 5.92692 24.4707 4.54974Z" fill="white"/>
</svg>
