<svg width="50" height="50" viewBox="0 0 50 50" fill="none" xmlns="http://www.w3.org/2000/svg">
<path d="M22.0833 28.75L17.5521 24.2188C17.1701 23.8368 16.7014 23.6458 16.1458 23.6458C15.5903 23.6458 15.1042 23.8542 14.6875 24.2708C14.3056 24.6528 14.1146 25.1389 14.1146 25.7292C14.1146 26.3194 14.3056 26.8056 14.6875 27.1875L20.625 33.125C21.0069 33.5069 21.4931 33.6979 22.0833 33.6979C22.6736 33.6979 23.1597 33.5069 23.5417 33.125L35.3646 21.3021C35.7465 20.9201 35.9375 20.4514 35.9375 19.8958C35.9375 19.3403 35.7292 18.8542 35.3125 18.4375C34.9306 18.0556 34.4444 17.8646 33.8542 17.8646C33.2639 17.8646 32.7778 18.0556 32.3958 18.4375L22.0833 28.75ZM25 45.8333C22.1181 45.8333 19.4097 45.2861 16.875 44.1917C14.3403 43.0986 12.1354 41.6146 10.2604 39.7396C8.38542 37.8646 6.90139 35.6597 5.80833 33.125C4.71389 30.5903 4.16667 27.8819 4.16667 25C4.16667 22.1181 4.71389 19.4097 5.80833 16.875C6.90139 14.3403 8.38542 12.1354 10.2604 10.2604C12.1354 8.38542 14.3403 6.90069 16.875 5.80625C19.4097 4.71319 22.1181 4.16667 25 4.16667C27.8819 4.16667 30.5903 4.71319 33.125 5.80625C35.6597 6.90069 37.8646 8.38542 39.7396 10.2604C41.6146 12.1354 43.0986 14.3403 44.1917 16.875C45.2861 19.4097 45.8333 22.1181 45.8333 25C45.8333 27.8819 45.2861 30.5903 44.1917 33.125C43.0986 35.6597 41.6146 37.8646 39.7396 39.7396C37.8646 41.6146 35.6597 43.0986 33.125 44.1917C30.5903 45.2861 27.8819 45.8333 25 45.8333Z" fill="#6F6F6F"/>
</svg>
