<svg width="50" height="50" viewBox="0 0 50 50" fill="none" xmlns="http://www.w3.org/2000/svg">
<path d="M22.0833 28.75L17.5521 24.2187C17.1701 23.8368 16.7014 23.6458 16.1458 23.6458C15.5903 23.6458 15.1042 23.8542 14.6875 24.2708C14.3056 24.6528 14.1146 25.1389 14.1146 25.7292C14.1146 26.3194 14.3056 26.8056 14.6875 27.1875L20.625 33.125C21.0069 33.5069 21.4931 33.6979 22.0833 33.6979C22.6736 33.6979 23.1597 33.5069 23.5417 33.125L35.3646 21.3021C35.7465 20.9201 35.9375 20.4514 35.9375 19.8958C35.9375 19.3403 35.7292 18.8542 35.3125 18.4375C34.9306 18.0556 34.4444 17.8646 33.8542 17.8646C33.2639 17.8646 32.7778 18.0556 32.3958 18.4375L22.0833 28.75Z" fill="#1D2028"/>
</svg>
