<svg width="55" height="55" viewBox="0 0 55 55" fill="none" xmlns="http://www.w3.org/2000/svg">
<path d="M28 53C41.8071 53 53 41.8071 53 28C53 14.1929 41.8071 3 28 3C14.1929 3 3 14.1929 3 28C3 41.8071 14.1929 53 28 53Z" fill="white" fill-opacity="0.6"/>
<path d="M39.6436 35.7564L32.1891 28.3436L39.6436 20.2436C39.6436 20.2436 41.7218 18.2145 40.1891 16.4109C39.7523 15.8605 39.1275 15.491 38.4347 15.3735C37.7419 15.256 37.0302 15.3989 36.4363 15.7745L28 23.9018L19.5627 15.7745C18.9697 15.3991 18.2589 15.256 17.5668 15.3726C16.8747 15.4892 16.25 15.8574 15.8127 16.4064C14.2773 18.21 16.3582 20.2391 16.3582 20.2391L23.8127 28.3391L16.3582 35.7518C16.3582 35.7518 14.28 37.7818 15.8127 39.5855C16.2502 40.1343 16.8749 40.5023 17.567 40.6187C18.2591 40.7351 18.9698 40.5919 19.5627 40.2164L27.9991 32.0891L36.4355 40.2164C37.0284 40.5919 37.7391 40.7351 38.4312 40.6187C39.1233 40.5023 39.748 40.1343 40.1855 39.5855C41.7227 37.7864 39.6436 35.7564 39.6436 35.7564Z" fill="black"/>
</svg>
