<svg width="50" height="50" viewBox="0 0 50 50" fill="none" xmlns="http://www.w3.org/2000/svg">
<path d="M47.8254 40.3222L33.2116 25.6871L47.8254 9.6951C47.8254 9.6951 51.8995 5.68902 48.8948 2.12806C48.0385 1.04132 46.8136 0.311809 45.4555 0.0798729C44.0973 -0.152064 42.702 0.129952 41.5379 0.871668L24.9993 16.9175L8.45902 0.871668C7.29644 0.130508 5.90297 -0.152082 4.54616 0.0781441C3.18935 0.308371 1.96481 1.03519 1.10755 2.11908C-1.90254 5.68004 2.17681 9.68612 2.17681 9.68612L16.7907 25.6781L2.17681 40.3133C2.17681 40.3133 -1.89719 44.3212 1.10755 47.8821C1.96506 48.9657 3.18974 49.6922 4.54654 49.9221C5.90333 50.152 7.29664 49.8691 8.45902 49.1277L24.9976 33.0819L41.5362 49.1277C42.6985 49.8691 44.0919 50.152 45.4487 49.9221C46.8055 49.6922 48.0301 48.9657 48.8876 47.8821C51.9013 44.3301 47.8254 40.3222 47.8254 40.3222Z" fill="white"/>
</svg>
