<svg width="62" height="62" viewBox="0 0 62 62" fill="none" xmlns="http://www.w3.org/2000/svg">
<path fill-rule="evenodd" clip-rule="evenodd" d="M6.0927 24.8812C6.0927 24.8812 5.05633 24.8478 4.0309 25.7796C3.12839 26.5997 3 27.529 3 27.529V55.795C3 55.795 3.19655 57.2837 3.84344 57.8361C4.82145 58.6713 5.52616 58.5166 5.52616 58.5166H12.6823V24.8812H6.0927Z" fill="#B7B7B7"/>
<path fill-rule="evenodd" clip-rule="evenodd" d="M52.6663 22.3535H39.0781C39.0781 22.3535 40.1091 18.4652 40.2965 16.5208C40.4839 14.5763 40.4839 10.2019 39.453 7.38242C38.4227 4.56357 34.955 1.74411 30.5508 3.59136C26.1466 5.43855 26.5215 10.2991 26.334 12.3408C26.1466 14.3818 25.8655 15.4513 23.0539 19.7285C21.6407 21.8788 19.1389 23.1686 16.9992 23.9204V58.5167H46.7625C46.7625 58.5167 49.0118 58.7112 51.2605 57.35C53.5098 55.9896 54.0721 53.3646 54.0721 53.3646C54.0721 53.3646 58.4623 33.1894 58.6637 31.9774C58.9273 30.3934 59.6009 28.1862 57.7266 25.3668C55.8528 22.5479 52.6663 22.3535 52.6663 22.3535Z" fill="#B7B7B7"/>
</svg>
