<svg width="50" height="50" viewBox="0 0 50 50" fill="none" xmlns="http://www.w3.org/2000/svg">
<g clip-path="url(#clip0_62_7585)">
<path d="M46.9426 17.7165C46.4562 17.0492 45.8347 16.4918 45.1185 16.0807C44.4023 15.6696 43.6076 15.4139 42.7861 15.3304H31.6283C32.0529 13.8121 32.3872 12.2699 32.6294 10.712C32.7831 9.1725 32.7831 5.70888 31.9365 3.47652C31.6681 2.78782 31.2626 2.1608 30.7447 1.63349C30.2267 1.10617 29.6071 0.68955 28.9233 0.408872C28.2395 0.128194 27.5058 -0.0106949 26.7668 0.000642123C26.0277 0.0119791 25.2987 0.173306 24.6238 0.474825C21.0024 1.93785 21.3139 5.78614 21.1634 7.40287C21.0129 9.0196 20.7787 9.86619 18.4691 13.2526C16.1595 16.6389 10.3098 17.3326 10.3098 17.3326H4.53654C3.90697 17.3631 3.30844 17.6151 2.84659 18.044C2.41832 18.3988 2.12044 18.8861 2 19.429V41.8105C2.0703 42.4047 2.31092 42.9659 2.69288 43.4265C2.87158 43.6097 3.08739 43.7526 3.32584 43.8456C3.56428 43.9386 3.81986 43.9795 4.07542 43.9657H37.9479C39.2416 44.0093 40.5216 43.6892 41.6425 43.0418C42.7839 42.3203 43.609 41.1926 43.9514 39.8864C43.9514 39.8864 47.5574 23.9114 47.7232 22.9522C47.9284 21.6992 48.4821 19.9521 46.9426 17.7165ZM9.91788 40.0393H5.91508V21.1037H9.91788V40.0393ZM44.0174 22.0275L40.396 38.2689C40.2255 38.8051 39.9083 39.283 39.4802 39.6482C39.2519 39.8552 38.982 40.011 38.6886 40.1051C38.3952 40.1992 38.085 40.2294 37.779 40.1938H13.5352V20.5677C13.5352 20.5677 19.6931 18.951 22.1564 14.8717C23.7939 12.3864 24.7739 9.52605 25.0044 6.55869C25.1581 4.94196 25.5436 3.86441 26.9294 3.78715C28.3152 3.7099 28.9066 5.2196 29.0611 6.45086C29.3203 8.79679 29.0657 11.171 28.3151 13.4087L27.3149 16.1802C27.3149 16.1802 26.622 17.4123 27.2344 18.2581C27.4252 18.509 27.6689 18.7149 27.9481 18.8612C28.2274 19.0075 28.5354 19.0906 28.8503 19.1047H42.7829C43.0171 19.1181 43.2442 19.1905 43.4429 19.3152C43.6417 19.4398 43.8058 19.6127 43.92 19.8177C44.2129 20.5207 44.2474 21.3047 44.0174 22.0307V22.0275Z" fill="#B7B7B7"/>
</g>
<defs>
<clipPath id="clip0_62_7585">
<rect width="50" height="50" fill="white"/>
</clipPath>
</defs>
</svg>
