<svg width="50" height="50" viewBox="0 0 50 50" fill="none" xmlns="http://www.w3.org/2000/svg">
<g clip-path="url(#clip0_62_7582)">
<path d="M1.17131 46.4431C0.762998 45.9504 0.505668 45.3504 0.430298 44.715V20.7795C0.559473 20.1988 0.877949 19.6775 1.33567 19.2975C1.82982 18.8392 2.46981 18.5698 3.14299 18.5368H8.93234V47.0188H2.64986C2.6075 47.026 2.56453 47.0291 2.52159 47.0283C2.0172 46.9959 1.53984 46.7889 1.17131 46.4431ZM38.8731 47.0197H12.7276V17.7218C14.6072 17.0849 16.8052 15.9928 18.0462 14.1717C20.5153 10.5503 20.7623 9.64405 20.9276 7.91594C21.0928 6.18782 20.7623 2.0715 24.6282 0.507762C25.3499 0.185323 26.1295 0.0128003 26.9198 0.000685681C27.7101 -0.011429 28.4947 0.137101 29.2259 0.43727C29.957 0.737439 30.6196 1.183 31.1735 1.74692C31.7273 2.31084 32.1608 2.98136 32.4478 3.71784C33.3531 6.10605 33.3531 9.81013 33.1888 11.4565C32.9296 13.1225 32.5721 14.7718 32.1181 16.3956H44.0549C44.9335 16.4846 45.7835 16.7578 46.5495 17.1975C47.3154 17.6372 47.98 18.2334 48.5 18.9473C50.1455 21.3346 49.5542 23.203 49.3236 24.5413C49.1463 25.568 45.2898 42.6512 45.2898 42.6512C44.9236 44.0485 44.0409 45.2547 42.8199 46.0265C41.6993 46.6687 40.4323 47.0117 39.1408 47.0223C38.9704 47.0274 38.8723 47.0188 38.8723 47.0188L38.8731 47.0197Z" fill="#FB50FB"/>
</g>
<defs>
<clipPath id="clip0_62_7582">
<rect width="50" height="50" fill="white"/>
</clipPath>
</defs>
</svg>
