<svg width="50" height="50" viewBox="0 0 50 50" fill="none" xmlns="http://www.w3.org/2000/svg">
<g clip-path="url(#clip0_62_7579)">
<path d="M48.8637 19.2577C48.335 18.5324 47.6594 17.9265 46.8809 17.4796C46.1025 17.0327 45.2386 16.7549 44.3456 16.6641H32.2171C32.6787 15.0136 33.0421 13.3373 33.3054 11.6439C33.4724 9.97045 33.4724 6.20552 32.5522 3.77896C32.2604 3.03034 31.8197 2.34878 31.2567 1.77559C30.6937 1.2024 30.0201 0.749536 29.2768 0.444441C28.5335 0.139346 27.7361 -0.0116252 26.9327 0.000697984C26.1293 0.0130212 25.3369 0.188382 24.6033 0.516132C20.6669 2.10643 21.0054 6.2895 20.8419 8.04687C20.6783 9.80425 20.4237 10.7245 17.9132 14.4054C15.4027 18.0864 9.04407 18.8405 9.04407 18.8405H2.76858C2.08424 18.8736 1.43365 19.1475 0.931625 19.6137C0.466094 19.9993 0.142297 20.529 0.0113831 21.1192V45.4478C0.0877971 46.0937 0.349351 46.7037 0.764539 47.2043C0.958787 47.4035 1.19336 47.5588 1.45256 47.6599C1.71175 47.761 1.98956 47.8055 2.26735 47.7904H39.0866C40.4928 47.8378 41.8842 47.4899 43.1026 46.7862C44.3432 46.0019 45.2402 44.7761 45.6123 43.3563C45.6123 43.3563 49.532 25.9916 49.7122 24.9489C49.9353 23.5869 50.5371 21.6878 48.8637 19.2577ZM8.61807 43.5225H4.26705V22.9395H8.61807V43.5225ZM45.684 23.9438L41.7476 41.598C41.5623 42.181 41.2175 42.7003 40.7521 43.0973C40.504 43.3223 40.2106 43.4917 39.8917 43.594C39.5727 43.6963 39.2356 43.7292 38.9029 43.6904H12.5501V22.357C12.5501 22.357 19.2437 20.5996 21.9213 16.1655C23.7013 13.4639 24.7664 10.3548 25.0171 7.12926C25.1841 5.37188 25.6032 4.20059 27.1095 4.11661C28.6158 4.03264 29.2587 5.67367 29.4267 7.01204C29.7083 9.56205 29.4316 12.1428 28.6158 14.5752L27.5285 17.5878C27.5285 17.5878 26.7753 18.927 27.441 19.8464C27.6484 20.1192 27.9133 20.343 28.2168 20.502C28.5204 20.6611 28.8552 20.7514 29.1975 20.7667H44.3421C44.5967 20.7813 44.8435 20.86 45.0596 20.9955C45.2757 21.131 45.4541 21.3189 45.5781 21.5417C45.8965 22.3059 45.934 23.1581 45.684 23.9473V23.9438Z" fill="#77787C"/>
</g>
<defs>
<clipPath id="clip0_62_7579">
<rect width="50" height="50" fill="white"/>
</clipPath>
</defs>
</svg>
