<svg width="64" height="62" viewBox="0 0 64 62" fill="none" xmlns="http://www.w3.org/2000/svg">
<path fill-rule="evenodd" clip-rule="evenodd" d="M8.14222 5.83214C22.3433 -4.16541 32.0001 8.55837 32.0001 8.55837C32.0001 8.55837 41.6562 -4.16541 55.8574 5.83214C70.0585 15.829 58.6978 33.3244 58.6978 33.3244C58.6978 33.3244 52.7897 42.9811 46.087 49.0022C39.3843 55.0233 32.0001 60.4765 32.0001 60.4765C32.0001 60.4765 24.6152 55.0233 17.9126 49.0022C11.2099 42.9811 5.30231 33.3244 5.30231 33.3244C5.30231 33.3244 -6.05832 15.829 8.14222 5.83214ZM10.5845 30.0932C12.0968 32.5648 17.1037 39.9522 22.0506 44.3955C25.5702 47.5574 29.3244 50.587 32.0001 52.6803C34.6752 50.587 38.4294 47.5574 41.9489 44.3955C47.8777 39.0702 53.4363 30.062 53.4894 29.9759L53.4904 29.9742C53.5498 29.8793 55.8119 26.2607 56.5695 21.8963C57.6767 15.5139 54.659 12.561 52.2929 10.8952C49.7452 9.10141 47.3047 8.19203 45.0403 8.19203C40.4716 8.19203 37.2298 11.9481 36.9171 12.3239L32.0813 19.2138L27.0875 12.3289C26.7998 11.9824 23.5486 8.19203 18.9592 8.19203C16.6948 8.19203 14.2551 9.10141 11.7074 10.8958C9.34122 12.561 6.32348 15.5139 7.4307 21.8963C8.19401 26.2965 10.4878 29.9397 10.4959 29.9521L10.5845 30.0932Z" fill="#B7B7B7"/>
<path d="M32.0001 8.55837L31.6018 8.86065L32.0001 9.38544L32.3984 8.86064L32.0001 8.55837ZM8.14222 5.83214L8.43004 6.24099L8.43005 6.24098L8.14222 5.83214ZM55.8574 5.83214L55.5695 6.24098L55.5695 6.24099L55.8574 5.83214ZM58.6978 33.3244L58.2783 33.052L58.2713 33.0634L58.6978 33.3244ZM46.087 49.0022L46.4212 49.3742L46.4212 49.3742L46.087 49.0022ZM32.0001 60.4765L31.7031 60.8787L32.0001 61.098L32.2971 60.8787L32.0001 60.4765ZM17.9126 49.0022L18.2467 48.6303L18.2467 48.6303L17.9126 49.0022ZM5.30231 33.3244L5.72898 33.0634L5.72166 33.0521L5.30231 33.3244ZM22.0506 44.3955L22.3848 44.0235L22.3848 44.0235L22.0506 44.3955ZM10.5845 30.0932L11.011 29.8322L11.0079 29.8272L10.5845 30.0932ZM32.0001 52.6803L31.692 53.0741L32.0002 53.3152L32.3083 53.0741L32.0001 52.6803ZM41.9489 44.3955L41.6148 44.0235L41.6148 44.0235L41.9489 44.3955ZM53.4894 29.9759L53.0655 29.7107L53.0637 29.7135L53.4894 29.9759ZM53.4904 29.9742L53.9143 30.2394L53.9144 30.2393L53.4904 29.9742ZM56.5695 21.8963L57.0622 21.9819L57.0622 21.9818L56.5695 21.8963ZM52.2929 10.8952L52.005 11.304L52.005 11.304L52.2929 10.8952ZM36.9171 12.3239L36.5328 12.004L36.5196 12.0198L36.5079 12.0366L36.9171 12.3239ZM32.0813 19.2138L31.6765 19.5074L32.088 20.0746L32.4905 19.501L32.0813 19.2138ZM27.0875 12.3289L27.4922 12.0353L27.4826 12.022L27.4721 12.0094L27.0875 12.3289ZM11.7074 10.8958L11.9951 11.3047L11.9953 11.3046L11.7074 10.8958ZM7.4307 21.8963L7.92334 21.8109L7.92334 21.8109L7.4307 21.8963ZM10.4959 29.9521L10.9193 29.6861L10.9152 29.6799L10.4959 29.9521ZM32.0001 8.55837C32.3983 8.25609 32.3982 8.25583 32.3979 8.25552C32.3978 8.25536 32.3975 8.255 32.3973 8.25467C32.3968 8.254 32.3961 8.25313 32.3953 8.25208C32.3937 8.24997 32.3915 8.2471 32.3887 8.24349C32.3831 8.23626 32.3751 8.22604 32.3649 8.21297C32.3443 8.18684 32.3144 8.1493 32.2752 8.10144C32.197 8.00574 32.0819 7.8687 31.9312 7.69906C31.6298 7.3599 31.1854 6.88967 30.6078 6.35846C29.454 5.29741 27.7604 3.98532 25.6059 2.9921C21.267 0.991904 15.1116 0.314264 7.85439 5.42329L8.43005 6.24098C15.374 1.35246 21.1475 2.03794 25.1872 3.90025C27.222 4.83828 28.8302 6.08229 29.9308 7.09452C30.4804 7.59996 30.9014 8.04566 31.1836 8.36328C31.3247 8.52203 31.4309 8.64859 31.5011 8.73439C31.5361 8.77729 31.5622 8.80998 31.579 8.83138C31.5874 8.84208 31.5935 8.84996 31.5974 8.85489C31.5993 8.85735 31.6006 8.85907 31.6013 8.86004C31.6017 8.86052 31.6019 8.86081 31.602 8.86091C31.602 8.86097 31.602 8.8609 31.602 8.86093C31.6019 8.86081 31.6018 8.86065 32.0001 8.55837ZM56.1452 5.42329C48.888 0.314266 42.7327 0.991901 38.3939 2.9921C36.2395 3.98533 34.546 5.29742 33.3923 6.35847C32.8147 6.88968 32.3703 7.35991 32.0689 7.69907C31.9182 7.86872 31.8031 8.00575 31.7249 8.10145C31.6857 8.14931 31.6558 8.18685 31.6353 8.21298C31.625 8.22605 31.617 8.23627 31.6115 8.2435C31.6087 8.24712 31.6065 8.24999 31.6048 8.25209C31.604 8.25315 31.6034 8.25401 31.6029 8.25468C31.6026 8.25501 31.6023 8.25537 31.6022 8.25554C31.602 8.25585 31.6018 8.25611 32.0001 8.55837C32.3984 8.86064 32.3982 8.8608 32.3981 8.86091C32.3982 8.86089 32.3981 8.86095 32.3982 8.8609C32.3982 8.8608 32.3985 8.86051 32.3988 8.86002C32.3996 8.85906 32.4009 8.85734 32.4028 8.85487C32.4066 8.84995 32.4127 8.84207 32.4211 8.83137C32.438 8.80996 32.464 8.77728 32.4991 8.73438C32.5692 8.64858 32.6754 8.52202 32.8165 8.36327C33.0987 8.04565 33.5196 7.59995 34.0692 7.09451C35.1698 6.08228 36.7779 4.83827 38.8126 3.90024C42.8522 2.03794 48.6256 1.35246 55.5695 6.24098L56.1452 5.42329ZM58.6978 33.3244C59.1172 33.5967 59.1173 33.5965 59.1175 33.5962C59.1176 33.596 59.1179 33.5956 59.1181 33.5952C59.1186 33.5944 59.1193 33.5934 59.1201 33.5921C59.1218 33.5895 59.1241 33.5859 59.1271 33.5812C59.1332 33.5718 59.1418 33.5582 59.1529 33.5406C59.1752 33.5052 59.2075 33.4534 59.2487 33.3861C59.331 33.2513 59.4488 33.0539 59.593 32.8001C59.8813 32.2926 60.2758 31.5586 60.7037 30.647C61.5583 28.8261 62.5516 26.2856 63.0943 23.4201C64.1819 17.6773 63.4593 10.5721 56.1452 5.42328L55.5695 6.24099C62.4565 11.0891 63.1542 17.73 62.1117 23.2341C61.5894 25.9921 60.6301 28.4502 59.7984 30.2221C59.3831 31.1069 59.001 31.8178 58.7235 32.3061C58.5848 32.5502 58.4724 32.7385 58.3952 32.8649C58.3566 32.9281 58.3269 32.9758 58.307 33.0072C58.2971 33.023 58.2897 33.0346 58.2849 33.0421C58.2825 33.0459 58.2807 33.0486 58.2797 33.0503C58.2791 33.0511 58.2788 33.0517 58.2786 33.052C58.2785 33.0521 58.2784 33.0522 58.2784 33.0522C58.2784 33.0522 58.2785 33.0521 58.6978 33.3244ZM46.4212 49.3742C49.8104 46.3296 52.9869 42.378 55.3096 39.2005C56.4727 37.6093 57.4253 36.2072 58.0874 35.2025C58.4186 34.7 58.6772 34.2967 58.8533 34.0186C58.9414 33.8795 59.0088 33.7717 59.0544 33.6984C59.0772 33.6618 59.0945 33.6337 59.1062 33.6148C59.1121 33.6053 59.1165 33.598 59.1196 33.5931C59.1211 33.5907 59.1222 33.5888 59.123 33.5875C59.1234 33.5868 59.1237 33.5863 59.1239 33.586C59.1241 33.5858 59.1242 33.5856 59.1242 33.5855C59.1243 33.5854 59.1243 33.5853 58.6978 33.3244C58.2713 33.0634 58.2713 33.0634 58.2713 33.0635C58.2713 33.0635 58.2712 33.0636 58.2712 33.0637C58.271 33.0639 58.2708 33.0643 58.2705 33.0648C58.2698 33.0659 58.2688 33.0675 58.2675 33.0697C58.2648 33.0741 58.2606 33.0808 58.2551 33.0898C58.2441 33.1077 58.2274 33.1347 58.2053 33.1702C58.161 33.2413 58.095 33.3469 58.0084 33.4836C57.8353 33.7571 57.58 34.1553 57.2525 34.6522C56.5974 35.6463 55.654 37.0347 54.5023 38.6103C52.1952 41.7665 49.0663 45.6538 45.7529 48.6303L46.4212 49.3742ZM32.0001 60.4765C32.2971 60.8787 32.2971 60.8787 32.2972 60.8786C32.2973 60.8786 32.2974 60.8785 32.2975 60.8784C32.2978 60.8782 32.2981 60.8779 32.2986 60.8776C32.2995 60.8769 32.3009 60.8759 32.3028 60.8745C32.3064 60.8718 32.3119 60.8678 32.3191 60.8624C32.3335 60.8518 32.3548 60.836 32.3829 60.8151C32.439 60.7734 32.522 60.7115 32.63 60.6308C32.8459 60.4692 33.1615 60.232 33.561 59.9285C34.36 59.3217 35.4949 58.45 36.8396 57.3899C39.5281 55.2704 43.0589 52.3945 46.4212 49.3742L45.7529 48.6303C42.4125 51.631 38.8998 54.4923 36.2205 56.6046C34.8813 57.6604 33.7512 58.5284 32.9562 59.1322C32.5587 59.4341 32.245 59.6699 32.0309 59.8301C31.9239 59.9102 31.8417 59.9714 31.7864 60.0125C31.7587 60.033 31.7378 60.0485 31.7238 60.0589C31.7168 60.0641 31.7116 60.068 31.7081 60.0705C31.7064 60.0718 31.7051 60.0728 31.7042 60.0734C31.7038 60.0737 31.7035 60.0739 31.7033 60.0741C31.7032 60.0742 31.7031 60.0742 31.7031 60.0742C31.703 60.0743 31.703 60.0743 32.0001 60.4765ZM17.5784 49.3742C20.9406 52.3945 24.4716 55.2704 27.1603 57.3899C28.505 58.45 29.64 59.3217 30.4391 59.9285C30.8386 60.232 31.1542 60.4692 31.3701 60.6308C31.4781 60.7115 31.5611 60.7734 31.6173 60.8151C31.6453 60.836 31.6667 60.8518 31.6811 60.8624C31.6883 60.8678 31.6937 60.8718 31.6974 60.8745C31.6992 60.8759 31.7006 60.8769 31.7016 60.8776C31.702 60.878 31.7024 60.8782 31.7026 60.8784C31.7028 60.8785 31.7029 60.8786 31.7029 60.8786C31.703 60.8787 31.7031 60.8787 32.0001 60.4765C32.2971 60.0743 32.2971 60.0743 32.297 60.0742C32.297 60.0742 32.2969 60.0741 32.2968 60.0741C32.2966 60.0739 32.2963 60.0737 32.2959 60.0734C32.295 60.0728 32.2937 60.0718 32.292 60.0705C32.2885 60.0679 32.2833 60.0641 32.2763 60.0589C32.2623 60.0485 32.2414 60.033 32.2137 60.0125C32.1584 59.9714 32.0762 59.9102 31.9692 59.8301C31.7551 59.6699 31.4414 59.434 31.0438 59.1322C30.2488 58.5284 29.1186 57.6604 27.7793 56.6046C25.0999 54.4923 21.5871 51.631 18.2467 48.6303L17.5784 49.3742ZM5.30231 33.3244C4.87579 33.5853 4.87584 33.5854 4.87592 33.5855C4.87597 33.5856 4.87607 33.5858 4.87618 33.5859C4.8764 33.5863 4.8767 33.5868 4.8771 33.5875C4.8779 33.5888 4.87905 33.5906 4.88057 33.5931C4.88359 33.598 4.88804 33.6053 4.89389 33.6147C4.9056 33.6337 4.92292 33.6617 4.94571 33.6984C4.99129 33.7717 5.05874 33.8795 5.14679 34.0186C5.3229 34.2967 5.58149 34.7 5.91259 35.2025C6.57467 36.2072 7.52722 37.6093 8.69025 39.2005C11.0128 42.3779 14.1891 46.3296 17.5784 49.3742L18.2467 48.6303C14.9333 45.6538 11.8045 41.7665 9.49758 38.6104C8.3459 37.0347 7.40264 35.6463 6.7476 34.6522C6.42013 34.1553 6.16483 33.7571 5.99169 33.4836C5.90512 33.3469 5.8391 33.2414 5.79487 33.1702C5.77275 33.1347 5.75609 33.1077 5.74503 33.0898C5.7395 33.0808 5.73537 33.0741 5.73267 33.0697C5.73131 33.0675 5.73031 33.0659 5.72967 33.0648C5.72935 33.0643 5.72912 33.0639 5.72898 33.0637C5.72891 33.0636 5.72887 33.0635 5.72884 33.0635C5.72882 33.0635 5.72883 33.0635 5.30231 33.3244ZM7.8544 5.42329C0.540521 10.5721 -0.181905 17.6773 0.905795 23.4202C1.44851 26.2856 2.44178 28.8261 3.29647 30.647C3.72434 31.5586 4.1188 32.2926 4.40716 32.8001C4.55138 33.0539 4.66917 33.2513 4.75147 33.3861C4.79262 33.4534 4.8249 33.5052 4.84719 33.5406C4.85834 33.5582 4.86699 33.5718 4.87299 33.5812C4.876 33.5859 4.87834 33.5895 4.88001 33.5921C4.88084 33.5934 4.88151 33.5944 4.882 33.5952C4.88225 33.5956 4.88249 33.596 4.88261 33.5962C4.88281 33.5965 4.88296 33.5967 5.30231 33.3244C5.72166 33.0521 5.72172 33.0522 5.72175 33.0522C5.7217 33.0522 5.72168 33.0521 5.72158 33.052C5.72138 33.0517 5.72102 33.0511 5.72048 33.0503C5.71941 33.0486 5.71767 33.0459 5.71526 33.0421C5.71046 33.0346 5.70303 33.023 5.69311 33.0072C5.67328 32.9758 5.64351 32.9281 5.60492 32.8649C5.52773 32.7385 5.41531 32.5502 5.27662 32.3061C4.99917 31.8178 4.61703 31.1069 4.20171 30.2221C3.37006 28.4502 2.4107 25.9921 1.88833 23.2341C0.845846 17.73 1.54337 11.0891 8.43004 6.24099L7.8544 5.42329ZM22.3848 44.0235C17.4927 39.6295 12.5161 32.292 11.011 29.8323L10.158 30.3542C11.6775 32.8376 16.7147 40.2749 21.7165 44.7674L22.3848 44.0235ZM32.3082 52.2865C29.6369 50.1966 25.8925 47.1748 22.3848 44.0235L21.7165 44.7674C25.2479 47.9399 29.0119 50.9773 31.692 53.0741L32.3082 52.2865ZM41.6148 44.0235C38.1071 47.1748 34.3627 50.1966 31.692 52.2866L32.3083 53.0741C34.9877 50.9773 38.7517 47.9399 42.2831 44.7674L41.6148 44.0235ZM53.0637 29.7135C53.0075 29.8047 47.4827 38.7529 41.6148 44.0235L42.2831 44.7674C48.2727 39.3876 53.8651 30.3193 53.915 30.2382L53.0637 29.7135ZM53.0665 29.709L53.0655 29.7107L53.9133 30.241L53.9143 30.2394L53.0665 29.709ZM56.0769 21.8108C55.3365 26.0761 53.1179 29.6269 53.0664 29.7092L53.9144 30.2393C53.9816 30.1317 56.2873 26.4454 57.0622 21.9819L56.0769 21.8108ZM52.005 11.304C53.1577 12.1155 54.4313 13.2149 55.2906 14.8587C56.1455 16.494 56.6141 18.7143 56.0769 21.8109L57.0622 21.9818C57.6322 18.6959 57.1456 16.2486 56.1768 14.3954C55.2125 12.5507 53.7942 11.3407 52.5807 10.4863L52.005 11.304ZM45.0403 8.69203C47.1695 8.69203 49.5107 9.54785 52.005 11.304L52.5807 10.4863C49.9796 8.65498 47.44 7.69203 45.0403 7.69203V8.69203ZM37.3014 12.6437C37.4414 12.4756 38.2973 11.479 39.6678 10.5278C41.0401 9.57536 42.8938 8.69203 45.0403 8.69203V7.69203C42.6182 7.69203 40.5666 8.68675 39.0976 9.70629C37.6268 10.7271 36.7055 11.7965 36.5328 12.004L37.3014 12.6437ZM32.4905 19.501L37.3264 12.6111L36.5079 12.0366L31.672 18.9265L32.4905 19.501ZM26.6827 12.6224L31.6765 19.5074L32.486 18.9202L27.4922 12.0353L26.6827 12.6224ZM18.9592 8.69203C21.1155 8.69203 22.9764 9.58346 24.3507 10.5408C25.723 11.4968 26.5751 12.4946 26.7029 12.6483L27.4721 12.0094C27.3121 11.8167 26.3948 10.7461 24.9223 9.72027C23.4517 8.6958 21.3924 7.69203 18.9592 7.69203V8.69203ZM11.9953 11.3046C14.4896 9.54782 16.8301 8.69203 18.9592 8.69203V7.69203C16.5595 7.69203 14.0206 8.65501 11.4194 10.487L11.9953 11.3046ZM7.92334 21.8109C7.38616 18.7143 7.85477 16.494 8.70963 14.8588C9.56889 13.2151 10.8425 12.1159 11.9951 11.3047L11.4196 10.4869C10.2061 11.341 8.78775 12.5508 7.82342 14.3955C6.85467 16.2486 6.36802 18.6959 6.93806 21.9818L7.92334 21.8109ZM10.9152 29.6799C10.9205 29.688 8.66951 26.1122 7.92334 21.8109L6.93806 21.9818C7.71852 26.4809 10.0551 30.1914 10.0765 30.2244L10.9152 29.6799ZM11.0079 29.8272L10.9192 29.6861L10.0725 30.2182L10.1612 30.3593L11.0079 29.8272Z" fill="black" fill-opacity="0.01"/>
</svg>
