<svg width="50" height="50" viewBox="0 0 50 50" fill="none" xmlns="http://www.w3.org/2000/svg">
<path d="M25 47.6863C24.9418 47.643 19.0929 43.3066 13.8808 38.6296C11.2944 36.2176 8.96169 33.5472 6.91922 30.6601C5.10744 28.1799 3.93767 26.2729 3.92603 26.2549C3.47071 25.5205 3.06132 24.7586 2.7002 23.9735C1.8553 22.1862 1.23331 20.3017 0.848231 18.3626C0.351798 16.0158 0.436031 13.5832 1.09361 11.2763C1.97515 8.5257 3.76529 6.15637 6.1704 4.55693C8.63038 2.68415 11.6134 1.6256 14.7036 1.52884C16.1722 1.53206 17.6277 1.80636 18.9967 2.33795C20.1498 2.78663 21.2389 3.38474 22.2363 4.11694C23.2666 4.85368 24.1946 5.72399 24.9958 6.70505C25.7999 5.7281 26.7271 4.85925 27.7541 4.12012C28.7533 3.38632 29.8447 2.78712 31.0001 2.33795C32.3691 1.80636 33.8246 1.53206 35.2932 1.52884C38.3849 1.62359 41.3699 2.68108 43.8317 4.55376C46.2365 6.15351 48.0266 8.52272 48.9085 11.2731C49.566 13.58 49.6502 16.0126 49.1539 18.3594C48.7704 20.2978 48.1469 22.1809 47.2977 23.9651C46.9367 24.7502 46.5273 25.5121 46.0718 26.2464C46.0612 26.2644 44.8946 28.1661 43.0786 30.6516C41.0239 33.529 38.6922 36.1983 36.1171 38.6211C30.9166 43.3066 25.0582 47.643 25 47.6863ZM14.7036 6.41736C12.623 6.52313 10.6255 7.26809 8.98378 8.55067C7.11595 9.86429 4.73409 12.1943 5.60772 17.2341C6.04173 19.4724 6.85821 21.6191 8.02131 23.5801V23.5864L8.09111 23.6922C10.6425 27.8112 13.6836 31.6059 17.1479 34.9933C19.957 37.518 22.965 39.9432 25 41.5329C27.0254 39.9464 30.0313 37.5285 32.8542 34.9933C35.1608 32.8335 37.242 30.4451 39.0659 27.8647C40.6799 25.6658 41.7798 23.9016 41.9025 23.7081L41.9596 23.615C43.1295 21.6443 43.9524 19.4875 44.3923 17.2383C45.2659 12.1986 42.884 9.86852 41.0162 8.55384C39.3729 7.27031 37.3735 6.52529 35.2911 6.42053C31.7077 6.42053 29.1566 9.34709 28.8795 9.68025L25.0687 15.1166L21.1236 9.68131C20.8455 9.34709 18.2997 6.41736 14.7036 6.41736Z" fill="white"/>
</svg>
