<svg width="50" height="50" viewBox="0 0 50 50" fill="none" xmlns="http://www.w3.org/2000/svg">
<path d="M0.507828 25.0005C0.507828 18.5053 3.08772 12.276 7.68008 7.68268C12.2724 3.08937 18.5012 0.50818 24.9964 0.506836C31.4926 0.506836 37.7227 3.08743 42.3161 7.68088C46.9096 12.2743 49.4901 18.5044 49.4901 25.0005C49.4901 31.4967 46.9096 37.7267 42.3161 42.3202C37.7227 46.9136 31.4926 49.4942 24.9964 49.4942C18.5012 49.4929 12.2724 46.9117 7.68008 42.3184C3.08772 37.7251 0.507828 31.4958 0.507828 25.0005ZM5.19188 25.0005C5.19805 30.2515 7.28645 35.2857 10.9991 38.9991C14.7117 42.7125 19.7455 44.8019 24.9964 44.8091C30.2485 44.8032 35.2837 42.7143 38.9975 39.0005C42.7112 35.2868 44.8002 30.2515 44.8061 24.9995C44.7999 19.7476 42.7108 14.7127 38.9971 10.9992C35.2834 7.28564 30.2483 5.19679 24.9964 5.19089C19.7451 5.19786 14.7109 7.2873 10.9981 11.0009C7.28518 14.7146 5.19676 19.7492 5.19086 25.0005H5.19188ZM23.2134 35.1968C23.2134 33.7543 23.2449 32.2795 23.2449 30.8047C23.2486 30.7791 23.2463 30.7531 23.2382 30.7286C23.2301 30.7041 23.2164 30.6818 23.1982 30.6635C23.18 30.6452 23.1578 30.6314 23.1334 30.6232C23.1089 30.615 23.0829 30.6125 23.0573 30.6161C21.0179 30.6161 19.1355 30.6161 17.8168 30.678C17.6175 30.695 17.4169 30.6688 17.2287 30.6012C17.0405 30.5336 16.869 30.4262 16.7261 30.2863C16.5832 30.1463 16.4722 29.9772 16.4007 29.7905C16.3291 29.6037 16.2987 29.4037 16.3115 29.2041C16.2979 29.0108 16.3243 28.8168 16.3891 28.6342C16.4539 28.4516 16.5557 28.2843 16.6882 28.1429C16.8206 28.0015 16.9809 27.8889 17.1589 27.8124C17.3369 27.7358 17.5288 27.6968 17.7225 27.6978H17.7864C18.7575 27.7293 20.7989 27.7292 23.0259 27.7292C23.2134 27.7292 23.2134 27.6978 23.2449 27.5407C23.2804 27.2355 23.2145 26.927 23.0573 26.6629C22.211 25.2823 22.1157 25.2519 21.8653 25.2519C20.2972 25.2519 18.8852 25.2833 17.8178 25.3137C17.6196 25.3382 17.4185 25.3182 17.229 25.2552C17.0395 25.1922 16.8664 25.0878 16.7223 24.9496C16.5782 24.8114 16.4666 24.6428 16.3958 24.4561C16.3249 24.2695 16.2965 24.0694 16.3126 23.8703C16.2995 23.6787 16.3266 23.4865 16.3921 23.306C16.4575 23.1255 16.5599 22.9606 16.6927 22.8219C16.8255 22.6832 16.9858 22.5737 17.1633 22.5005C17.3408 22.4272 17.5316 22.3918 17.7236 22.3965H17.7874C18.2892 22.3965 19.0413 22.4279 19.9515 22.4279C20.2029 22.4279 20.2029 22.3965 20.2029 22.3965C20.2029 22.365 20.1715 22.3336 20.1401 22.2708C18.4767 19.7934 16.7515 17.3141 15.7814 15.8706C15.57 15.5657 15.4504 15.2065 15.4368 14.8357C15.4676 14.3637 15.6753 13.9207 16.0184 13.5951C16.3615 13.2695 16.8147 13.0852 17.2877 13.0791C17.5816 13.0785 17.8698 13.1606 18.1193 13.316C18.3688 13.4714 18.5696 13.6938 18.6987 13.9579C19.9536 16.1534 21.994 19.1974 24.0953 22.3022C24.1896 22.4289 24.221 22.3975 24.4096 22.4289H25.7587C25.9158 22.3975 25.9158 22.4289 26.0101 22.3022C27.9166 19.601 29.686 16.8056 31.3115 13.9265C31.4348 13.6825 31.6231 13.4772 31.8556 13.3332C32.0881 13.1893 32.3557 13.1122 32.6292 13.1105C33.117 13.1156 33.5857 13.3011 33.9449 13.6312C34.3041 13.9614 34.5283 14.4129 34.5744 14.8985C34.5744 15.4317 34.5744 15.4632 30.0251 22.2404C29.9927 22.3022 29.9633 22.3346 29.9633 22.3661C29.9633 22.3975 30.0251 22.3975 30.1508 22.3975H31.6257C31.8212 22.3856 32.0171 22.4142 32.201 22.4817C32.3849 22.5492 32.5529 22.6541 32.6943 22.7897C32.8357 22.9253 32.9475 23.0887 33.0226 23.2696C33.0978 23.4505 33.1346 23.645 33.1309 23.8409C33.136 24.0385 33.1003 24.2351 33.0261 24.4183C32.9518 24.6015 32.8406 24.7674 32.6993 24.9057C32.5581 25.044 32.3899 25.1517 32.2051 25.2221C32.0204 25.2925 31.8231 25.324 31.6257 25.3147H31.5942L28.1742 25.2833C27.9228 25.3147 27.9228 25.2833 27.7982 25.4708L27.264 26.2554C27.1038 26.4329 26.9822 26.6416 26.9067 26.8684C26.8311 27.0952 26.8034 27.3351 26.8251 27.5731C26.8575 27.6978 26.8869 27.7303 27.046 27.7303C28.9284 27.7303 30.6222 27.7303 31.5942 27.6988H31.6257C31.8248 27.6893 32.0238 27.7205 32.2105 27.7905C32.3973 27.8604 32.5678 27.9676 32.7116 28.1056C32.8555 28.2437 32.9698 28.4095 33.0475 28.5932C33.1251 28.7768 33.1646 28.9743 33.1634 29.1737C33.1679 29.3754 33.1309 29.5758 33.0548 29.7626C32.9787 29.9494 32.865 30.1186 32.7209 30.2597C32.5767 30.4008 32.4052 30.5108 32.2168 30.583C32.0284 30.6551 31.8272 30.6877 31.6257 30.6789H31.5942C30.2127 30.6789 28.6446 30.6485 27.0126 30.6485C26.8869 30.6485 26.8565 30.7114 26.8565 30.8056V35.291C26.8565 35.5189 26.8089 35.7442 26.7169 35.9526C26.6249 36.161 26.4904 36.348 26.322 36.5015C26.1536 36.6549 25.9551 36.7716 25.739 36.844C25.523 36.9164 25.2943 36.943 25.0674 36.922C24.8301 36.9402 24.5916 36.909 24.3669 36.8305C24.1423 36.752 23.9363 36.6277 23.7621 36.4656C23.5878 36.3036 23.449 36.1071 23.3544 35.8887C23.2598 35.6704 23.2125 35.4347 23.2134 35.1968Z" fill="white"/>
</svg>
