<svg width="67" height="65" viewBox="0 0 67 65" fill="none" xmlns="http://www.w3.org/2000/svg">
<path fill-rule="evenodd" clip-rule="evenodd" d="M3.25928 32.4897C3.25928 38.6462 5.08415 44.3703 8.21352 49.1613C8.21352 49.1613 9.39525 50.7504 9.39525 52.2165C9.39525 53.2532 8.78897 54.0421 8.40707 54.4404C6.85256 55.6865 5.68448 56.4762 5.21145 56.7814C5.07739 56.8676 4.81379 57.0928 4.29635 57.417C3.68634 57.7993 2 58.6094 2 59.9152C2 61.8951 5.57374 62.3326 6.3103 62.3953C7.17794 62.4686 11.2758 62.653 16.6617 61.3804C16.6617 61.3804 19.205 60.8855 20.7498 60.8855C21.8532 60.8855 23.2517 61.2059 23.962 61.3888C27.004 62.4172 30.2598 62.9802 33.6475 62.9802C50.4308 62.9802 64.0366 49.329 64.0366 32.4897C64.0366 15.6511 50.4308 2 33.6475 2C16.865 2 3.25928 15.6511 3.25928 32.4897V32.4897Z" stroke="#BCBCBC" stroke-width="4"/>
</svg>
