<svg width="55" height="49" viewBox="0 0 55 49" fill="none" xmlns="http://www.w3.org/2000/svg">
<path fill-rule="evenodd" clip-rule="evenodd" d="M0 41.7616V6.96483C0 3.11792 3.11856 0 6.96482 0H48.0352C51.8814 0 55 3.11792 55 6.96483V41.7616C55 45.6079 51.8814 48.7264 48.0352 48.7264H6.96482C3.11856 48.7264 0 45.6079 0 41.7616ZM44.372 5.58594H10.6902L27.8165 22.1619L44.372 5.58594ZM5.47461 39.3711C5.47461 41.4543 7.16302 43.1428 9.24557 43.1428H45.7553C47.8378 43.1428 49.5262 41.4543 49.5262 39.3711V9.35669C49.5262 8.98015 49.4545 8.62401 49.3517 8.28125L29.7199 28.2278C29.7199 28.2278 28.7613 29.2081 27.4747 29.2081C26.1678 29.2081 25.2289 28.2278 25.2289 28.2278L5.63646 8.32134C5.54144 8.65221 5.47461 8.99559 5.47461 9.35732V39.3711Z" fill="url(#paint0_linear_200_42)"/>
<defs>
<linearGradient id="paint0_linear_200_42" x1="-8.19566e-05" y1="0" x2="-8.19566e-05" y2="48.7266" gradientUnits="userSpaceOnUse">
<stop stop-color="#E2E2E2"/>
<stop offset="1" stop-color="#C1C1C1"/>
</linearGradient>
</defs>
</svg>
