<svg width="54" height="40" viewBox="0 0 54 40" fill="none" xmlns="http://www.w3.org/2000/svg">
<g clip-path="url(#clip0_204_2)">
<path d="M17.87 39.2588C14.73 39.2588 12.185 37.5161 12.185 35.3701C12.185 33.2241 14.73 31.4829 17.87 31.4829H47.808C50.946 31.4829 53.491 33.2231 53.491 35.3701C53.491 37.5171 50.946 39.2588 47.808 39.2588H17.87ZM0.500977 34.7998C0.500977 33.7389 0.922401 32.7218 1.67255 31.9717C2.42269 31.2215 3.44011 30.7998 4.50098 30.7998C5.56184 30.7998 6.57926 31.2215 7.32941 31.9717C8.07955 32.7218 8.50098 33.7389 8.50098 34.7998C8.50098 35.8607 8.07955 36.8783 7.32941 37.6284C6.57926 38.3786 5.56184 38.7998 4.50098 38.7998C3.44011 38.7998 2.42269 38.3786 1.67255 37.6284C0.922401 36.8783 0.500977 35.8607 0.500977 34.7998ZM0.500977 19.7998C0.500977 18.7389 0.922401 17.7218 1.67255 16.9717C2.42269 16.2215 3.44011 15.7998 4.50098 15.7998C5.56184 15.7998 6.57926 16.2215 7.32941 16.9717C8.07955 17.7218 8.50098 18.7389 8.50098 19.7998C8.50098 20.8607 8.07955 21.8783 7.32941 22.6284C6.57926 23.3786 5.56184 23.7998 4.50098 23.7998C3.44115 23.7998 2.42464 23.3792 1.67467 22.6304C0.924694 21.8815 0.502566 20.866 0.500977 19.8062V19.7998ZM17.87 23.7598C14.73 23.7598 12.185 22.02 12.185 19.873C12.185 17.726 14.73 15.9839 17.87 15.9839H47.808C50.946 15.9839 53.491 17.724 53.491 19.873C53.491 22.022 50.946 23.7598 47.808 23.7598H17.87ZM0.500977 4.80518C0.500977 3.74431 0.922401 2.72671 1.67255 1.97656C2.42269 1.22642 3.44011 0.805176 4.50098 0.805176C5.56184 0.805176 6.57926 1.22642 7.32941 1.97656C8.07955 2.72671 8.50098 3.74431 8.50098 4.80518C8.50098 5.86604 8.07955 6.88316 7.32941 7.6333C6.57926 8.38345 5.56184 8.80518 4.50098 8.80518C3.44011 8.80518 2.42269 8.38345 1.67255 7.6333C0.922401 6.88316 0.500977 5.86604 0.500977 4.80518ZM16.075 8.27588C15.5644 8.27614 15.0587 8.17569 14.5869 7.98047C14.115 7.78525 13.6863 7.49915 13.3252 7.13818C12.964 6.77722 12.6775 6.34868 12.482 5.87695C12.2866 5.40523 12.186 4.89978 12.186 4.38916C12.1858 3.8785 12.2863 3.37271 12.4816 2.90088C12.677 2.42905 12.9633 2.0003 13.3244 1.63916C13.6854 1.27802 14.1141 0.991351 14.5859 0.795898C15.0576 0.600446 15.5633 0.5 16.074 0.5H49.601C50.1116 0.5 50.6172 0.600433 51.0889 0.795898C51.5607 0.991364 51.9892 1.27801 52.3502 1.63916C52.7112 2.00031 52.9974 2.42906 53.1927 2.90088C53.3879 3.3727 53.4882 3.87854 53.488 4.38916C53.488 5.42006 53.0785 6.40874 52.3495 7.1377C51.6205 7.86665 50.6319 8.27588 49.601 8.27588H16.075Z" fill="url(#paint0_linear_204_2)"/>
</g>
<defs>
<linearGradient id="paint0_linear_204_2" x1="26.996" y1="0.5" x2="26.996" y2="39.2588" gradientUnits="userSpaceOnUse">
<stop stop-color="#E2E2E2"/>
<stop offset="1" stop-color="#C1C1C1"/>
</linearGradient>
<clipPath id="clip0_204_2">
<rect width="53.99" height="39.759" fill="white"/>
</clipPath>
</defs>
</svg>
