<svg width="47" height="47" viewBox="0 0 47 47" fill="none" xmlns="http://www.w3.org/2000/svg">
<path fill-rule="evenodd" clip-rule="evenodd" d="M0 23.0303C0 35.7498 10.3112 46.061 23.0303 46.061C35.7499 46.061 46.0606 35.7498 46.0606 23.0303C46.0606 10.3111 35.7499 0 23.0303 0C10.3112 0 0 10.3111 0 23.0303V23.0303Z" fill="#6F6F6F"/>
<path fill-rule="evenodd" clip-rule="evenodd" d="M16.1879 30.9755C16.1879 30.9755 13.9563 33.1586 15.6055 35.0992C17.4181 37.2317 19.6325 35.7785 19.6325 35.7785L30.7421 25.0567C30.7421 25.0567 31.8014 24.0427 31.8014 22.631C31.8014 21.241 30.7421 20.2054 30.7421 20.2054L19.6325 9.48349C19.6325 9.48349 17.4181 8.03032 15.6055 10.1626C13.9563 12.1032 16.1879 14.2866 16.1879 14.2866L24.1895 22.2611L16.1879 30.9755V30.9755Z" fill="white"/>
</svg>
