<svg width="100" height="100" viewBox="0 0 100 100" fill="none" xmlns="http://www.w3.org/2000/svg">
<g clip-path="url(#clip0_146_2)">
<path d="M33.2389 100C33.2389 100 29.0701 100 27.5555 96.8026C26.7298 95.068 27.2001 94.8483 26.49 91.1201C25.7798 87.3919 17.9531 67.153 17.9531 67.153C17.9531 67.153 24.0031 66.7771 27.8968 67.0203C30.0849 67.1283 32.2634 67.39 34.4146 67.8041C34.4146 67.8041 33.2383 74.9657 39.2735 82.2456C45.3088 89.5254 48.3268 89.5251 47.7932 96.0911C47.5655 97.1617 46.9887 98.1269 46.1534 98.8343C45.3181 99.5417 44.2716 99.9517 43.1781 100H33.2389ZM69.9272 84.4823C63.5563 78.4045 57.9271 74.0514 53.2012 71.5289C41.3758 65.2246 38.4011 64.7888 34.2845 64.1831C33.7621 64.1064 33.1139 64.0097 32.4352 63.8951C29.6343 63.5688 26.8141 63.4385 23.995 63.505C21.8683 63.505 19.4645 63.5386 16.8551 63.6079C16.7857 63.6079 16.7123 63.6079 16.642 63.6079C14.6144 63.6067 12.6707 62.8001 11.2376 61.3658C9.80447 59.9314 8.99951 57.9872 9 55.9596V30.6416C9.00244 28.6149 9.80782 26.6719 11.2403 25.2382C12.6728 23.8045 14.6153 22.9966 16.642 22.9924C16.715 22.9924 16.7857 22.9924 16.8551 22.9924C19.4598 23.0655 21.8637 23.0999 23.995 23.0999C26.8142 23.1657 29.6344 23.0342 32.4352 22.7062C33.1176 22.5915 33.7649 22.4967 34.2845 22.42C38.4048 21.8143 41.3794 21.3758 53.2048 15.0714C57.9483 12.5434 63.5775 8.18551 69.9309 2.12622C71.3268 0.76083 73.2029 -0.00345055 75.1555 -0.00121582C77.1336 0.00869747 79.0354 0.762081 80.4841 2.10906C81.242 2.82098 81.8448 3.68199 82.253 4.63833C82.6612 5.59467 82.8664 6.62537 82.8562 7.66514V33.3145C85.2314 33.696 87.3928 34.9112 88.9532 36.7422C90.5135 38.5732 91.3705 40.9004 91.3705 43.306C91.3705 45.7117 90.5135 48.0389 88.9532 49.8699C87.3928 51.7009 85.2314 52.9161 82.8562 53.2976V78.9388C82.8665 79.9791 82.6612 81.0105 82.253 81.9674C81.8448 82.9244 81.2421 83.7868 80.4841 84.4994C79.0345 85.8444 77.133 86.5956 75.1555 86.6052C73.2024 86.6081 71.3254 85.8461 69.9272 84.4823ZM50.1879 49.878L63.6993 62.9153C64.4726 63.3715 65.3508 63.62 66.2485 63.6359C66.9178 63.627 67.5761 63.467 68.1745 63.1672C68.773 62.8675 69.2963 62.4356 69.7042 61.9049C70.1911 61.339 70.4969 60.6408 70.5837 59.8993C70.6705 59.1579 70.5339 58.407 70.1909 57.7439C69.8529 57.009 69.395 56.3353 68.8355 55.751L56.8989 43.8605L68.8355 30.8611C69.393 30.2752 69.8507 29.6028 70.1909 28.8691C70.5339 28.206 70.6705 27.4551 70.5837 26.7137C70.4969 25.9722 70.1911 25.274 69.7042 24.7081C69.2954 24.1776 68.7717 23.7464 68.1727 23.4467C67.5737 23.1469 66.9146 22.9863 66.2449 22.9771C65.3483 22.9927 64.4712 23.2403 63.6993 23.6968L50.1843 36.735L36.6702 23.6968C35.8985 23.236 35.0189 22.9881 34.1202 22.9771C33.4511 22.9866 32.7932 23.1469 32.195 23.4467C31.5968 23.7464 31.0735 24.1779 30.6654 24.7081C30.1785 25.274 29.8718 25.9722 29.785 26.7137C29.6981 27.4551 29.8357 28.206 30.1787 28.8691C30.516 29.603 30.9738 30.2747 31.5331 30.8575L43.4697 43.8605L31.5331 55.751C30.9732 56.3347 30.5154 57.0085 30.1787 57.7439C29.8357 58.407 29.6981 59.1579 29.785 59.8993C29.8718 60.6408 30.1785 61.339 30.6654 61.9049C31.0735 62.4351 31.5968 62.8666 32.195 63.1663C32.7932 63.4661 33.4511 63.6264 34.1202 63.6359C35.0182 63.6199 35.8966 63.3715 36.6702 62.9153L50.1843 49.878H50.1879Z" fill="url(#paint0_linear_146_2)"/>
</g>
<defs>
<linearGradient id="paint0_linear_146_2" x1="50.1852" y1="-0.0012207" x2="50.1852" y2="100" gradientUnits="userSpaceOnUse">
<stop stop-color="#E2E2E2"/>
<stop offset="1" stop-color="#BFBFBF"/>
</linearGradient>
<clipPath id="clip0_146_2">
<rect width="100" height="100" fill="white"/>
</clipPath>
</defs>
</svg>
