<svg width="55" height="50" viewBox="0 0 55 50" fill="none" xmlns="http://www.w3.org/2000/svg">
<g clip-path="url(#clip0_224_10)">
<path d="M19.3696 39.4467H8.46723C8.01363 39.4467 7.56447 39.3575 7.1454 39.1842C6.72633 39.0109 6.34555 38.7569 6.02481 38.4366C5.70407 38.1164 5.44964 37.7362 5.27606 37.3178C5.10248 36.8994 5.01313 36.451 5.01313 35.9981V8.55491C5.01313 8.10203 5.10248 7.65359 5.27606 7.23518C5.44964 6.81677 5.70407 6.43659 6.02481 6.11635C6.34555 5.79612 6.72633 5.54209 7.1454 5.36878C7.56447 5.19547 8.01363 5.10629 8.46723 5.10629H41.9022C42.8181 5.10629 43.6966 5.46951 44.3444 6.11612C44.9921 6.76273 45.3561 7.63975 45.3563 8.55428V18.4774L50.3689 23.6971V6.36824C50.3689 4.67857 49.6966 3.0581 48.4999 1.86333C47.3033 0.66855 45.6802 -0.00267792 43.9879 -0.00267792H6.37827C4.68593 -0.00267792 3.06292 0.66855 1.86625 1.86333C0.669592 3.0581 -0.00268555 4.67857 -0.00268555 6.36824V38.1848C-0.00268555 39.8745 0.669592 41.4949 1.86625 42.6897C3.06292 43.8845 4.68593 44.5557 6.37827 44.5557H19.3007L19.3696 39.4467Z" fill="url(#paint0_linear_224_10)"/>
<path d="M18.3132 22.2763V16.5984C18.3133 16.2574 18.4033 15.9224 18.5742 15.6271C18.745 15.3318 18.9906 15.0865 19.2864 14.916C19.5822 14.7455 19.9178 14.6557 20.2593 14.6556C20.6009 14.6555 20.9365 14.7452 21.2324 14.9156L26.1573 17.7549L31.0829 20.5941C31.3787 20.7646 31.6243 21.0099 31.7951 21.3052C31.9659 21.6005 32.0558 21.9356 32.0558 22.2766C32.0558 22.6176 31.9659 22.9527 31.7951 23.248C31.6243 23.5433 31.3787 23.7886 31.0829 23.9591L26.1573 26.7983L21.2324 29.6369C20.9366 29.8075 20.601 29.8973 20.2594 29.8974C19.9178 29.8975 19.5822 29.8077 19.2864 29.6372C18.9905 29.4667 18.7449 29.2215 18.574 28.9262C18.4032 28.6308 18.3133 28.2958 18.3132 27.9548V22.2763Z" fill="url(#paint1_linear_224_10)"/>
<path d="M54.2954 31.8964L42.2728 19.8482C42.0781 19.6535 41.8299 19.5208 41.5596 19.4669C41.2893 19.413 41.0091 19.4403 40.7544 19.5454C40.4997 19.6506 40.2819 19.8287 40.1286 20.0574C39.9753 20.2861 39.8934 20.5551 39.8932 20.8303V26.5428C39.8945 26.8762 39.7754 27.1989 39.5579 27.4518C39.3403 27.7048 39.0388 27.871 38.7085 27.92C37.1429 28.1485 34.0891 28.9496 29.935 31.7007C27.4573 33.4956 25.4599 35.8713 24.1188 38.6187C22.7776 41.366 22.1339 44.4006 22.2443 47.4549C22.274 47.803 22.4809 49.5 23.4187 49.5C24.0355 49.5 24.421 48.7001 24.6021 48.4105C24.7555 48.1653 24.8599 48.0398 24.9031 47.9768C26.4897 45.6345 28.4609 43.5763 30.7336 41.889C33.3595 39.9217 36.684 39.2396 38.6047 39.0047C38.8008 38.98 38.9999 38.9973 39.1887 39.0555C39.3776 39.1137 39.5518 39.2113 39.6999 39.342C39.848 39.4727 39.9665 39.6334 40.0475 39.8133C40.1285 39.9933 40.1701 40.1884 40.1697 40.3857V46.0487C40.1695 46.3241 40.2511 46.5933 40.4043 46.8223C40.5574 47.0513 40.7752 47.2298 41.03 47.3351C41.2848 47.4405 41.5652 47.468 41.8356 47.4141C42.1061 47.3603 42.3545 47.2276 42.5493 47.0327L54.2922 35.3064C54.7454 34.8545 55.0003 34.2415 55.0009 33.602C55.0015 32.9626 54.7478 32.3491 54.2954 31.8964ZM48.9728 34.7536L44.3598 39.3599C44.2862 39.4333 44.1925 39.4832 44.0904 39.5034C43.9884 39.5236 43.8827 39.5133 43.7865 39.4735C43.6904 39.4338 43.6083 39.3665 43.5504 39.2802C43.4925 39.194 43.4615 39.0925 43.4613 38.9886V38.4313C43.4608 37.6045 43.1318 36.8116 42.5465 36.2266C41.9612 35.6416 41.1674 35.3122 40.3392 35.3109C40.2112 35.3111 40.0834 35.3189 39.9563 35.3341C37.3876 35.5535 34.8788 36.229 32.548 37.329C31.4477 37.8895 28.5518 39.4488 27.7075 40.3426C29.1364 37.9172 32.528 35.2478 34.8361 33.5637C37.6656 31.6975 39.6515 31.1897 40.5854 31.054C41.327 30.9415 42.0038 30.5675 42.4931 29.9998C42.9824 29.4321 43.2518 28.7082 43.2525 27.9592V27.4058C43.2526 27.2999 43.2841 27.1964 43.3432 27.1084C43.4022 27.0204 43.486 26.9518 43.584 26.9113C43.6821 26.8709 43.7899 26.8604 43.894 26.8812C43.998 26.902 44.0935 26.9531 44.1684 27.0281L48.9754 31.8442C49.361 32.2306 49.5773 32.754 49.5768 33.2994C49.5763 33.8449 49.3591 34.3678 48.9728 34.7536Z" fill="url(#paint2_linear_224_10)"/>
</g>
<defs>
<linearGradient id="paint0_linear_224_10" x1="25.1831" y1="-0.00267792" x2="25.1831" y2="44.5557" gradientUnits="userSpaceOnUse">
<stop stop-color="#E2E2E2"/>
<stop offset="1" stop-color="#C1C1C1"/>
</linearGradient>
<linearGradient id="paint1_linear_224_10" x1="25.1845" y1="14.6556" x2="25.1845" y2="29.8974" gradientUnits="userSpaceOnUse">
<stop stop-color="#E2E2E2"/>
<stop offset="1" stop-color="#C1C1C1"/>
</linearGradient>
<linearGradient id="paint2_linear_224_10" x1="38.6165" y1="19.4399" x2="38.6165" y2="49.5" gradientUnits="userSpaceOnUse">
<stop stop-color="#E2E2E2"/>
<stop offset="1" stop-color="#C1C1C1"/>
</linearGradient>
<clipPath id="clip0_224_10">
<rect width="55" height="49.5" fill="white"/>
</clipPath>
</defs>
</svg>
