<svg width="55" height="55" viewBox="0 0 55 55" fill="none" xmlns="http://www.w3.org/2000/svg">
<path fill-rule="evenodd" clip-rule="evenodd" d="M3 28.0303C3 41.8544 14.2066 53.061 28.0303 53.061C41.8544 53.061 53.0605 41.8544 53.0605 28.0303C53.0605 14.2066 41.8544 3 28.0303 3C14.2066 3 3 14.2066 3 28.0303V28.0303Z" fill="#6F6F6F"/>
<path fill-rule="evenodd" clip-rule="evenodd" d="M22.2746 36.7643C22.2746 36.7643 19.884 38.9264 21.6507 40.8483C23.5924 42.9604 25.9645 41.5212 25.9645 41.5212L37.8653 30.9024C37.8653 30.9024 39 29.8981 39 28.5C39 27.1233 37.8653 26.0977 37.8653 26.0977L25.9645 15.4788C25.9645 15.4788 23.5924 14.0396 21.6507 16.1514C19.884 18.0734 22.2746 20.2358 22.2746 20.2358L30.8461 28.1336L22.2746 36.7643V36.7643Z" fill="white"/>
</svg>
