<svg width="100" height="100" viewBox="0 0 100 100" fill="none" xmlns="http://www.w3.org/2000/svg">
<path d="M71.8979 92.9811H28.1047C20.9148 92.9861 13.9962 90.2348 8.77217 85.2948C3.54816 80.3547 0.416056 73.6012 0.019618 66.4223C0.0849065 66.4223 0.150415 66.4223 0.219721 66.4223C4.38133 66.4223 8.37294 64.7685 11.3156 61.8258C14.2583 58.8831 15.9111 54.8915 15.9111 50.7299C15.9111 46.5683 14.2583 42.5786 11.3156 39.6359C8.37294 36.6932 4.38133 35.0394 0.219721 35.0394H0C0.27428 27.7716 3.35554 20.8938 8.59659 15.8511C13.8376 10.8084 20.8307 7.9938 28.1037 8.00001H71.8969C79.1676 8.0018 86.1549 10.8179 91.3942 15.859C96.6335 20.9 99.7174 27.7743 99.9996 35.0394C95.8917 35.1169 91.9787 36.8026 89.0999 39.734C86.2211 42.6655 84.6065 46.6095 84.6034 50.7181C84.6004 54.8268 86.2087 58.7724 89.0832 61.7081C91.9577 64.6438 95.8693 66.3349 99.9771 66.4184C99.58 73.5964 96.448 80.3485 91.2255 85.2889C86.003 90.2293 79.0869 92.9828 71.8979 92.9811ZM50.1533 66.0005C50.6149 66.0012 51.0698 66.1137 51.4785 66.3281L60.5332 71.1051C60.9403 71.3249 61.3957 71.4407 61.8584 71.4425C62.2756 71.441 62.6873 71.3473 63.0649 71.1698C63.4424 70.9923 63.7765 70.7348 64.0438 70.4146C64.3138 70.0973 64.5101 69.7241 64.6186 69.3218C64.7272 68.9196 64.7453 68.4979 64.6716 68.0879L62.9413 57.9689C62.8631 57.5119 62.8974 57.0426 63.0404 56.6015C63.1833 56.1605 63.431 55.7625 63.7623 55.4382L71.0867 48.2698C71.4674 47.8964 71.7363 47.4242 71.8635 46.9064C71.9908 46.3885 71.971 45.8462 71.8066 45.3389C71.6423 44.8316 71.3393 44.3792 70.9327 44.0343C70.526 43.6893 70.0318 43.4662 69.5045 43.3869L59.3816 41.9116C58.9234 41.8441 58.4883 41.6669 58.1143 41.3937C57.7403 41.1205 57.439 40.7601 57.2354 40.3441L52.7095 31.1394C52.4755 30.6608 52.1109 30.2581 51.659 29.976C51.2071 29.694 50.6851 29.5445 50.1523 29.5445C49.6196 29.5445 49.0976 29.694 48.6457 29.976C48.1938 30.2581 47.8301 30.6608 47.5961 31.1394L43.0703 40.3441C42.8665 40.7608 42.5642 41.1224 42.1894 41.3957C41.8146 41.6689 41.3791 41.8451 40.9201 41.9116L30.8012 43.3869C30.2737 43.4661 29.7788 43.6893 29.372 44.0343C28.9652 44.3793 28.6633 44.8314 28.499 45.3389C28.3348 45.8463 28.3146 46.3904 28.4421 46.9083C28.5696 47.4262 28.8389 47.8966 29.22 48.2698L36.5443 55.4382C36.8754 55.7627 37.1234 56.1625 37.2663 56.6035C37.4092 57.0445 37.4432 57.5119 37.3654 57.9689L35.6341 68.0879C35.56 68.4975 35.5777 68.9199 35.6861 69.3218C35.7944 69.7238 35.9899 70.0957 36.2599 70.4126C36.5271 70.7328 36.8614 70.9904 37.2388 71.1679C37.6162 71.3454 38.0283 71.439 38.4453 71.4406C38.9085 71.44 39.3637 71.3247 39.7715 71.1051L48.8232 66.3281C49.2341 66.1136 49.6898 66.0011 50.1533 66.0005Z" fill="url(#paint0_linear_146_17)"/>
<defs>
<linearGradient id="paint0_linear_146_17" x1="49.9998" y1="8" x2="49.9998" y2="92.9811" gradientUnits="userSpaceOnUse">
<stop stop-color="#E2E2E2"/>
<stop offset="1" stop-color="#C0C0C0"/>
</linearGradient>
</defs>
</svg>
