<svg width="100" height="100" viewBox="0 0 100 100" fill="none" xmlns="http://www.w3.org/2000/svg">
<g clip-path="url(#clip0_146_10)">
<path d="M5.58777 85.1502C6.55922 81.6828 9.33265 77.7981 11.6894 76.2718C12.7737 75.4585 14.0342 74.9113 15.3689 74.6751C15.3689 74.6751 12.6615 72.2484 9.81812 72.5959C8.13198 72.7986 6.4628 73.123 4.82361 73.5671C4.82361 73.5671 7.25389 68.0871 11.8973 65.7995C16.5407 63.5119 19.5308 64.1325 19.5308 64.1325L31.8816 76.4833C31.8816 76.4833 32.2945 83.5575 28.9654 86.6083C26.6935 88.6015 24.1484 90.2598 21.4075 91.5335C21.4075 91.5335 24.181 87.9273 23.2823 85.2231C22.3837 82.5189 21.1987 82.0287 21.1987 82.0287C21.0539 83.4394 20.5058 84.779 19.6199 85.8864C18.734 86.9938 17.5478 87.8225 16.2032 88.2734C11.5598 89.7315 9.19905 90.9774 7.54003 92.5047C6.38029 93.791 5.54634 95.338 5.10983 97.014C5.10983 97.014 4.61909 88.6184 5.58777 85.1502ZM49.2873 83.7793L48.4367 72.7192C48.4137 72.4103 48.3179 72.1109 48.1586 71.8453C47.9992 71.5796 47.7804 71.3548 47.5186 71.1891C47.2569 71.0234 46.9601 70.9216 46.6519 70.8912C46.3436 70.8607 46.0328 70.9032 45.7437 71.0145L35.0103 75.1413C34.6515 75.2795 34.2605 75.3107 33.8843 75.2313C33.5081 75.152 33.1631 74.9652 32.8906 74.694L27.2427 69.0433L27.1418 68.947L21.4984 63.299C21.2252 63.0278 21.0375 62.6828 20.9574 62.3063C20.8774 61.9297 20.9082 61.5383 21.0474 61.1794L25.1752 50.446C25.2863 50.1569 25.3281 49.846 25.2976 49.5378C25.2671 49.2296 25.1653 48.9327 24.9997 48.671C24.834 48.4094 24.609 48.1905 24.3435 48.0311C24.078 47.8717 23.7793 47.7762 23.4704 47.753L12.4103 46.8988C12.0315 46.87 11.6687 46.7324 11.3653 46.5037C11.062 46.2749 10.8303 45.9644 10.6984 45.6081C10.5665 45.2517 10.5396 44.865 10.621 44.4938C10.7024 44.1226 10.8886 43.783 11.1574 43.5145L26.4056 28.2619C26.767 27.9015 27.2527 27.694 27.7629 27.6822L37.5584 27.4428C38.0563 27.4333 38.5323 27.2361 38.8905 26.8901C45.3547 20.7098 52.2153 14.9571 59.4284 9.66993C73.9374 -0.972666 93.0895 0.832422 95.0416 1.04902L95.1209 0.972509L95.1326 1.05892L95.219 1.06972L95.1425 1.14892C95.3581 3.10011 97.1623 22.2559 86.5206 36.7631C81.2335 43.9761 75.4817 50.8368 69.3013 57.301C68.9552 57.6594 68.758 58.1349 68.7487 58.6331L68.5084 68.4277C68.4959 68.9377 68.2885 69.4241 67.9287 69.7859L52.677 85.034C52.4957 85.2194 52.2796 85.3665 52.0406 85.467C51.8016 85.5675 51.5447 85.6192 51.2854 85.6191C50.7809 85.6233 50.2938 85.4353 49.9227 85.0934C49.5517 84.7516 49.3245 84.2825 49.2873 83.7793ZM61.9981 17.2675C60.0388 19.225 58.8189 21.8019 58.5463 24.5581C58.2737 27.3142 58.9652 30.079 60.5031 32.3824C62.041 34.6858 64.3299 36.3848 66.98 37.1897C69.6301 37.9946 72.4775 37.8555 75.0366 36.7964C77.5957 35.7373 79.7077 33.8238 81.014 31.3815C82.3203 28.9393 82.74 26.1198 82.2003 23.4033C81.6606 20.6867 80.1951 18.2419 78.0545 16.4844C75.9139 14.7269 73.2303 13.7657 70.4606 13.7653C67.2869 13.7647 64.2433 15.0243 61.9981 17.2675Z" fill="url(#paint0_linear_146_10)"/>
</g>
<defs>
<linearGradient id="paint0_linear_146_10" x1="50.1064" y1="0.801575" x2="50.1064" y2="97.014" gradientUnits="userSpaceOnUse">
<stop stop-color="#E3E3E3"/>
<stop offset="1" stop-color="#BFBFBF"/>
</linearGradient>
<clipPath id="clip0_146_10">
<rect width="100" height="100" fill="white"/>
</clipPath>
</defs>
</svg>
