<svg width="100" height="100" viewBox="0 0 100 100" fill="none" xmlns="http://www.w3.org/2000/svg">
<path d="M51.0124 1C42.1846 0.997002 33.5202 3.3805 25.936 7.89827C18.3518 12.416 12.1299 18.9 7.92876 26.6641C3.72764 34.4282 1.70351 43.1835 2.0706 52.0037C2.43769 60.8239 5.18233 69.3808 10.0141 76.7689H9.96864C9.96864 76.7689 11.9194 79.3256 11.9194 81.6814C11.8633 83.032 11.2937 84.3102 10.3271 85.2551C7.82117 87.2577 5.93912 88.5255 5.17466 89.0151C4.9632 89.1546 4.53387 89.5152 3.70069 90.0364C2.71736 90.6508 0 91.9523 0 94.0543C0 97.2348 5.76043 97.939 6.94782 98.0384C12.5594 98.3059 18.1801 97.7567 23.6337 96.408L23.6284 96.4206C25.8033 95.9888 28.0071 95.7188 30.2219 95.6128C31.9738 95.6878 33.7117 95.9595 35.4029 96.4228C42.1344 98.6862 49.2776 99.4589 56.3373 98.6873C63.3971 97.9157 70.2046 95.6182 76.2882 91.954C82.3718 88.2899 87.5859 83.3468 91.5692 77.4672C95.5524 71.5876 98.2096 64.9122 99.3565 57.9036C100.503 50.895 100.113 43.7207 98.2112 36.8782C96.3099 30.0356 92.9433 23.6883 88.345 18.2762C83.7467 12.864 78.0265 8.51647 71.5809 5.5348C65.1353 2.55314 58.1185 1.00869 51.0166 1.00846L51.0124 1ZM25.3963 57.1193C23.5637 57.1195 21.7722 56.5763 20.2483 55.5584C18.7245 54.5404 17.5368 53.0934 16.8353 51.4004C16.1339 49.7074 15.9503 47.8444 16.3076 46.047C16.665 44.2496 17.5474 42.5985 18.8432 41.3026C20.1389 40.0067 21.7899 39.1241 23.5872 38.7665C25.3846 38.4089 27.2476 38.5924 28.9407 39.2936C30.6338 39.9949 32.081 41.1825 33.0991 42.7062C34.1172 44.2299 34.6607 46.0213 34.6607 47.8539C34.6607 50.3112 33.6845 52.668 31.9469 54.4056C30.2093 56.1432 27.8525 57.1193 25.3952 57.1193H25.3963ZM49.9985 57.1193C48.166 57.1191 46.3747 56.5756 44.8511 55.5573C43.3275 54.5391 42.1401 53.092 41.439 51.3989C40.7379 49.7058 40.5546 47.8429 40.9122 46.0456C41.2698 44.2484 42.1523 42.5975 43.4482 41.3018C44.744 40.0061 46.395 39.1238 48.1923 38.7664C49.9896 38.409 51.8525 38.5925 53.5455 39.2938C55.2385 39.9952 56.6855 41.1827 57.7035 42.7064C58.7216 44.2301 59.265 46.0214 59.265 47.8539C59.2647 50.3113 58.2883 52.6681 56.5505 54.4056C54.8127 56.1432 52.4559 57.1193 49.9985 57.1193ZM74.6006 57.1193C72.7681 57.1191 70.9768 56.5756 69.4533 55.5573C67.9297 54.5391 66.7423 53.092 66.0412 51.3989C65.3401 49.7058 65.1568 47.8429 65.5144 46.0456C65.872 44.2484 66.7545 42.5975 68.0504 41.3018C69.3462 40.0061 70.9971 39.1238 72.7944 38.7664C74.5917 38.409 76.4547 38.5925 78.1477 39.2938C79.8407 39.9952 81.2877 41.1827 82.3057 42.7064C83.3238 44.2301 83.8671 46.0214 83.8671 47.8539C83.867 49.0708 83.6272 50.2757 83.1614 51.3999C82.6956 52.5241 82.0129 53.5456 81.1523 54.406C80.2917 55.2663 79.2701 55.9488 78.1458 56.4144C77.0215 56.8799 75.8164 57.1195 74.5995 57.1193H74.6006Z" fill="url(#paint0_linear_146_14)"/>
<defs>
<linearGradient id="paint0_linear_146_14" x1="49.9997" y1="1" x2="49.9997" y2="98.9773" gradientUnits="userSpaceOnUse">
<stop stop-color="#E3E3E3"/>
<stop offset="1" stop-color="#BFBFBF"/>
</linearGradient>
</defs>
</svg>
