<svg width="63" height="63" viewBox="0 0 63 63" fill="none" xmlns="http://www.w3.org/2000/svg">
<path fill-rule="evenodd" clip-rule="evenodd" d="M34.6153 40.0517C34.3987 40.0517 34.346 40.1505 34.346 40.2984V47.3578C34.346 49.086 32.8364 49.9256 31.2733 49.9256C29.711 49.9256 28.0935 49.0377 28.0935 47.2099C28.0935 44.94 28.1462 42.6188 28.1462 40.2984C28.1462 40.1 28.0399 40.0012 27.8241 40.0012C24.3207 40.0012 21.0858 40.0012 18.821 40.1C17.0437 40.1988 16.2342 38.9156 16.2342 37.7795C16.2342 36.5944 17.0437 35.4093 18.6596 35.4093C20.3298 35.4598 23.9435 35.4598 27.7706 35.4598C28.0935 35.4598 28.0935 35.4093 28.1462 35.1626C28.1462 34.5704 28.1462 34.2733 27.8241 33.7813C26.3689 31.6088 26.2059 31.5605 25.7752 31.5605C23.0805 31.5605 20.6551 31.6088 18.821 31.6585C17.7973 31.7076 16.2342 31.264 16.2342 29.3872C16.2342 28.202 17.0437 27.0667 18.6596 27.0667C19.5219 27.0667 20.9244 27.1165 22.4867 27.1165C22.919 27.1165 22.919 27.0667 22.919 27.0667C22.919 27.0176 22.8647 26.9679 22.8111 26.8691C19.9534 22.9689 16.9894 19.0681 15.3184 16.7967C14.9412 16.2543 14.7246 15.7111 14.7246 15.1673C14.7246 13.6367 16.3421 12.4025 17.9052 12.4025C18.821 12.4025 19.7392 12.7977 20.3306 13.7852C22.4867 17.2417 25.9917 22.0305 29.6031 26.918C29.7637 27.1165 29.8188 27.0667 30.1417 27.1165H32.4592C32.7285 27.0667 32.7285 27.1165 32.8916 26.918C36.1249 22.7223 39.9519 17.192 42.0001 13.7362C42.5388 12.8476 43.4018 12.4523 44.2649 12.4523C45.88 12.4523 47.6061 13.7362 47.6061 15.2661C47.6061 16.1057 47.6061 16.1547 39.7905 26.82C39.7354 26.918 39.6826 26.9679 39.6826 27.0176C39.6826 27.0667 39.7905 27.0667 40.0047 27.0667H42.4852C44.2114 27.0667 45.1256 28.202 45.1256 29.3381C45.1256 30.4734 44.2649 31.6585 42.5388 31.6585L36.6099 31.6088C36.1776 31.6585 36.1776 31.6088 35.9634 31.9052L35.046 33.1401C34.3987 33.979 34.2924 34.225 34.2924 35.2132C34.346 35.4093 34.3987 35.4598 34.6704 35.4598C37.9038 35.4598 40.815 35.4598 42.4852 35.4093C44.2114 35.4093 45.1807 36.5944 45.1807 37.7304C45.1807 38.9156 44.2114 40.1 42.4852 40.1C40.1134 40.1 37.4179 40.0517 34.6153 40.0517V40.0517Z" fill="white"/>
<path fill-rule="evenodd" clip-rule="evenodd" d="M31.1637 62.3277C48.3753 62.3277 62.3274 48.3752 62.3274 31.1636C62.3274 13.9526 48.3753 0 31.1637 0C13.9527 0 0 13.9526 0 31.1636C0 48.3752 13.9527 62.3277 31.1637 62.3277V62.3277ZM31.1636 4.62109C45.7991 4.62109 57.7061 16.5286 57.7061 31.1635C57.7061 45.7989 45.7991 57.7066 31.1636 57.7066C16.5281 57.7066 4.62109 45.7989 4.62109 31.1635C4.62109 16.5286 16.5281 4.62109 31.1636 4.62109V4.62109Z" fill="white"/>
</svg>
