<svg width="55" height="59" viewBox="0 0 55 59" fill="none" xmlns="http://www.w3.org/2000/svg">
<path fill-rule="evenodd" clip-rule="evenodd" d="M0.211955 27.2946C-1.54241 14.086 7.7618 1.96202 20.99 0.210254C23.586 -0.134145 26.2207 -0.0551107 28.7913 0.444883C41.8941 2.99027 50.4496 15.6602 47.8997 28.7436C45.3497 41.827 32.6609 50.369 19.5587 47.8236C18.7011 47.7066 17.8333 47.6874 16.9716 47.7644C15.895 47.9598 14.837 48.2281 13.8011 48.5802C11.2209 49.5932 8.50773 50.2267 5.74566 50.4606C5.15817 50.4886 2.29553 50.5189 2.08821 48.9653C1.96812 48.0618 2.91807 47.3241 3.44825 46.9124C3.52024 46.8565 3.5845 46.8066 3.63728 46.7631C3.90158 46.5445 4.07231 46.3786 4.18297 46.2711C4.22864 46.2267 4.26408 46.1923 4.29165 46.1682C4.63329 45.8799 5.47157 45.1385 6.56741 43.9975C6.97863 43.4735 7.17425 42.8119 7.11362 42.1489C6.96001 40.9982 5.86209 39.8737 5.86209 39.8737C2.79353 36.3187 0.829815 31.9473 0.211955 27.2946ZM26.1711 42.8924C36.5099 41.5196 43.7766 32.038 42.4018 21.7147C41.0269 11.3914 31.5313 4.13473 21.1925 5.50754C10.8538 6.88031 3.58706 16.3618 4.96188 26.6852C6.33601 37.0086 15.8317 44.2652 26.1711 42.8924ZM50.7551 30.1975C51.1147 28.3528 51.2704 26.5007 51.2387 24.665C53.8747 29.1563 54.7811 34.6555 53.3257 40.0806C52.3091 43.8702 50.2262 47.2856 47.2968 49.8998C47.2968 49.8998 46.2463 50.7086 45.9943 51.6461C45.8723 52.1887 45.9625 52.7582 46.247 53.2376C47.0309 54.3015 47.6453 55.0065 47.8974 55.283C47.9177 55.3059 47.9436 55.3386 47.9771 55.3808C48.0572 55.4817 48.1807 55.6373 48.3754 55.8463C48.4148 55.8885 48.4631 55.9375 48.5174 55.9923C48.9122 56.3912 49.6176 57.1042 49.4196 57.8393C49.08 59.1042 46.7099 58.7699 46.2264 58.6826C43.9623 58.1902 41.7837 57.3772 39.7552 56.2589C38.9348 55.8552 38.0856 55.5127 37.2149 55.2342C36.5089 55.0767 35.7877 54.9996 35.0645 55.0031C30.2947 55.3002 25.812 53.915 22.1869 51.3662C23.0878 51.4584 23.9929 51.5092 24.8924 51.5092C37.4712 51.5092 48.3499 42.5463 50.7551 30.1975Z" fill="url(#paint0_linear_200_44)"/>
<defs>
<linearGradient id="paint0_linear_200_44" x1="-0.000650881" y1="0" x2="-0.000650881" y2="58.7881" gradientUnits="userSpaceOnUse">
<stop stop-color="#E2E2E2"/>
<stop offset="1" stop-color="#C1C1C1"/>
</linearGradient>
</defs>
</svg>
