<svg width="55" height="49" viewBox="0 0 55 49" fill="none" xmlns="http://www.w3.org/2000/svg">
<path fill-rule="evenodd" clip-rule="evenodd" d="M0.00012207 6.96474V41.7603C0.00012207 45.6072 3.11862 48.725 6.96481 48.725H48.0346C51.8815 48.725 55 45.6072 55 41.7603V6.96474C55 3.11779 51.8815 0 48.0346 0H6.96481C3.11862 0 0.00012207 3.11779 0.00012207 6.96474ZM9.24586 43.1412C7.16265 43.1412 5.47424 41.4528 5.47424 39.3696V9.35625C5.47424 7.27306 7.16336 5.58398 9.24656 5.58398H45.7543C47.8376 5.58398 49.526 7.27306 49.526 9.35565V39.3696C49.526 41.4528 47.8376 43.1412 45.7543 43.1412H9.24586ZM15.958 13.292C18.5365 13.292 20.6268 15.3823 20.6268 17.9608V19.091C20.6268 21.6695 18.5365 23.7598 15.958 23.7598H14.6093C12.0308 23.7598 9.94055 21.6696 9.94055 19.0911V17.9608C9.94055 15.3823 12.0308 13.292 14.6093 13.292H15.958ZM32.5901 17.9608C32.5901 15.3823 30.4998 13.292 27.9213 13.292H26.5726C23.9941 13.292 21.9038 15.3823 21.9038 17.9608V19.091C21.9038 21.6695 23.9941 23.7598 26.5726 23.7598H27.9212C30.4998 23.7598 32.5901 21.6695 32.5901 19.091V17.9608ZM15.958 24.6562C18.5365 24.6562 20.6268 26.7465 20.6268 29.325V30.4553C20.6268 33.0338 18.5365 35.1241 15.958 35.1241H14.6093C12.0308 35.1241 9.94055 33.0338 9.94055 30.4553V29.325C9.94055 26.7465 12.0308 24.6562 14.6093 24.6562H15.958ZM32.5901 29.325C32.5901 26.7465 30.4998 24.6562 27.9213 24.6562H26.5726C23.9941 24.6562 21.9038 26.7465 21.9038 29.325V30.4553C21.9038 33.0338 23.9941 35.1241 26.5726 35.1241H27.9213C30.4998 35.1241 32.5901 33.0338 32.5901 30.4553V29.325ZM40.2848 13.292C42.8633 13.292 44.9536 15.3823 44.9536 17.9608V19.091C44.9536 21.6695 42.8633 23.7598 40.2848 23.7598H38.9361C36.3576 23.7598 34.2673 21.6696 34.2673 19.0911V17.9608C34.2673 15.3823 36.3576 13.292 38.9361 13.292H40.2848ZM44.9536 29.3251C44.9536 26.7466 42.8633 24.6562 40.2848 24.6562H38.9361C36.3576 24.6562 34.2673 26.7465 34.2673 29.325V30.4553C34.2673 33.0338 36.3576 35.1241 38.9361 35.1241H40.2848C42.8633 35.1241 44.9536 33.0338 44.9536 30.4553V29.3251Z" fill="url(#paint0_linear_200_46)"/>
<defs>
<linearGradient id="paint0_linear_200_46" x1="0.000275371" y1="0" x2="0.000275371" y2="48.7246" gradientUnits="userSpaceOnUse">
<stop stop-color="#E2E2E2"/>
<stop offset="1" stop-color="#C1C1C1"/>
</linearGradient>
</defs>
</svg>
