<svg width="100" height="100" viewBox="0 0 100 100" fill="none" xmlns="http://www.w3.org/2000/svg">
<path d="M3 53.319C3.02303 43.6721 6.02868 34.2679 11.6051 26.396C17.1816 18.5241 25.0563 12.5694 34.1493 9.34771L36.9976 18.1389L48.9575 52.8307L19.833 31.4992C15.1307 37.8036 12.5834 45.4549 12.5689 53.3199C12.5689 53.6268 12.6057 53.9192 12.6154 54.2191L48.9583 52.8315L19.5608 74.946C24.094 81.2575 30.4903 85.9896 37.852 88.4777L48.9583 52.8315L60.292 88.8782C68.1162 86.5306 74.9483 81.6695 79.7304 75.0467L48.9583 52.8315L86.7895 53.5378C86.7895 53.4628 86.8033 53.394 86.8033 53.319C86.7606 45.075 83.9962 37.076 78.9397 30.5647L48.9592 52.835L61.2015 16.5283L63.6433 8.60011C81.6485 13.3697 96.3644 32.9183 96.3644 53.3233C96.3108 65.6689 91.3687 77.4905 82.62 86.2013C73.8713 94.912 62.0284 99.8027 49.6827 99.8027C37.337 99.8027 25.494 94.912 16.7453 86.2013C7.99661 77.4905 3.05452 65.6689 3.00086 53.3233L3 53.319ZM49.0289 32.3751C45.8098 32.2216 46.1178 29.4648 46.1178 29.4648L42.4349 4.6089C42.4349 4.6089 43.0474 0.00445557 49.0315 0.00445557C55.0156 0.00445557 55.3224 4.14983 55.3224 4.14983L52.5611 29.0057C52.5611 29.0057 51.3688 32.3846 49.1392 32.3846L49.0289 32.3751Z" fill="url(#paint0_linear_146_5)"/>
<defs>
<linearGradient id="paint0_linear_146_5" x1="49.6822" y1="0.00445557" x2="49.6822" y2="99.8027" gradientUnits="userSpaceOnUse">
<stop stop-color="#E2E2E2"/>
<stop offset="1" stop-color="#C3C3C3"/>
</linearGradient>
</defs>
</svg>
