<svg width="52" height="55" viewBox="0 0 52 55" fill="none" xmlns="http://www.w3.org/2000/svg">
<g clip-path="url(#clip0_204_4)">
<path d="M15.814 54.3382C12.427 54.3382 9.68097 51.2981 9.68097 47.5501V42.8157L15.128 47.3557C15.4113 47.8181 15.8065 48.2016 16.2772 48.471C16.7478 48.7403 17.2788 48.8868 17.821 48.8968H43.772C44.6991 48.8473 45.5689 48.4332 46.1914 47.7444C46.8139 47.0556 47.1384 46.1483 47.094 45.221V9.12136C47.1387 8.19395 46.8142 7.28582 46.1917 6.59695C45.5692 5.90807 44.6992 5.49376 43.772 5.4446H17.822C17.3658 5.44935 16.9161 5.55325 16.5037 5.74831C16.0913 5.94338 15.726 6.22583 15.433 6.57546L9.67999 11.7747V6.79031C9.67999 3.04231 12.426 0.00417328 15.813 0.00417328H45.779C49.167 0.00417328 51.913 3.04231 51.913 6.79031V47.554C51.913 51.302 49.167 54.3421 45.779 54.3421L15.814 54.3382ZM15.814 43.8821L1.48401 30.053L1.427 30.01C0.698565 29.4446 0.193448 28.6394 0.000976562 27.7376C0.193548 26.8334 0.70065 26.0276 1.43201 25.4622L1.48401 25.4231L15.819 11.5891C16.2965 11.3292 16.8294 11.1878 17.373 11.177C17.7984 11.1862 18.2161 11.2924 18.5943 11.4876C18.9725 11.6827 19.301 11.9615 19.555 12.303C20.984 13.984 19.088 15.958 18.867 16.177L9.45398 25.3772H36.743C37.3659 25.3767 37.9637 25.6227 38.4056 26.0618C38.8475 26.5009 39.0975 27.0971 39.101 27.72C39.1028 28.0308 39.0432 28.3386 38.9255 28.6262C38.8078 28.9139 38.6344 29.1754 38.4152 29.3958C38.1961 29.6161 37.9355 29.7912 37.6485 29.9104C37.3615 30.0297 37.0538 30.0912 36.743 30.0911H9.45398L18.869 39.2971C19.088 39.5141 20.985 41.4882 19.555 43.1692C19.3012 43.5107 18.9726 43.7897 18.5944 43.9846C18.2162 44.1796 17.7984 44.2855 17.373 44.2942C16.8293 44.2825 16.2962 44.1412 15.818 43.8821H15.814Z" fill="url(#paint0_linear_204_4)"/>
</g>
<defs>
<linearGradient id="paint0_linear_204_4" x1="25.957" y1="0.00417328" x2="25.957" y2="54.3421" gradientUnits="userSpaceOnUse">
<stop stop-color="#E2E2E2"/>
<stop offset="1" stop-color="#C1C1C1"/>
</linearGradient>
<clipPath id="clip0_204_4">
<rect width="51.915" height="54.338" fill="white"/>
</clipPath>
</defs>
</svg>
