<svg width="55" height="48" viewBox="0 0 55 48" fill="none" xmlns="http://www.w3.org/2000/svg">
<path fill-rule="evenodd" clip-rule="evenodd" d="M12.8826 9.80767H2.3275C1.04194 9.80767 0 10.8496 0 12.1352V35.7148C0 37.0004 1.04194 38.0424 2.3275 38.0424H15.0574C15.6198 38.0424 16.1633 38.2461 16.5873 38.616L26.6837 47.4216C28.1896 48.735 30.5419 47.6659 30.5419 45.6677V2.33191C30.5419 0.442674 28.4105 -0.659454 26.8687 0.432162L14.2274 9.37989C13.8342 9.658 13.3637 9.80767 12.8826 9.80767ZM19.5274 35.2446C18.2899 34.1642 16.7014 33.5688 15.0572 33.5688H5.3894C4.8827 33.5688 4.47302 33.1584 4.47302 32.6524V15.1968C4.47302 14.6908 4.8827 14.2803 5.3894 14.2803H12.5907C14.1882 14.2803 15.746 13.7849 17.0496 12.8624L24.6222 7.50226C25.2289 7.07219 26.0679 7.50678 26.0679 8.2503V38.9328C26.0679 39.72 25.1424 40.1409 24.5493 39.6237L19.5274 35.2446ZM33.9153 35.9937C33.0447 34.215 33.9995 32.646 34.6265 32.0649C34.6754 32.0281 39.5792 28.2217 39.5792 23.4277C39.5792 18.8899 36.0097 16.5533 35.6121 16.3075C35.2783 16.1413 33.895 15.3828 33.5462 14.0642C33.4116 13.556 33.3808 12.7659 33.9987 11.8931C34.7701 10.8037 35.7007 10.5752 36.3443 10.5752C37.0698 10.5752 37.6314 10.8631 37.8569 10.9984C38.6996 11.3969 45.8145 15.0144 45.8145 23.7208C45.8145 32.7227 38.5275 36.8229 38.2178 36.9937C38.1276 37.0343 37.2465 37.4259 36.3262 37.4259C35.2234 37.4259 34.3671 36.9169 33.9153 35.9937ZM37.9756 41.9016C37.7899 42.4279 37.6824 43.2744 38.2229 44.3201C38.7056 45.2561 39.5325 45.7719 40.5489 45.7719C41.4089 45.7719 42.166 45.3929 42.4133 45.2546C43.5117 44.7825 54.9996 39.4501 54.9996 23.2311C54.9996 9.87268 43.8883 3.50952 42.7968 2.91785C42.5352 2.73292 41.7352 2.22852 40.7887 2.22852C39.7986 2.22852 38.9604 2.76976 38.4274 3.7524C37.3246 5.78601 39.0296 7.47444 40.0844 8.08266L40.2009 8.13978C40.5707 8.29537 49.2516 12.0799 49.2516 23.9144C49.2516 35.7671 40.0873 39.9154 39.6926 40.0891C39.561 40.147 38.4026 40.6898 37.9756 41.9016Z" fill="url(#paint0_linear_200_43)"/>
<defs>
<linearGradient id="paint0_linear_200_43" x1="-0.000219643" y1="0" x2="-0.000219643" y2="48" gradientUnits="userSpaceOnUse">
<stop stop-color="#E2E2E2"/>
<stop offset="1" stop-color="#C1C1C1"/>
</linearGradient>
</defs>
</svg>
