<svg width="100" height="100" viewBox="0 0 100 100" fill="none" xmlns="http://www.w3.org/2000/svg">
<g clip-path="url(#clip0_146_8)">
<path d="M60.6843 100.002C60.8838 98.3739 60.9718 96.7332 60.9479 95.0927V77.1413C60.9643 75.5228 60.8762 73.9041 60.6843 72.297C62.2426 72.3629 63.4368 72.4023 65.5623 72.4023H72.8267C79.3947 72.4023 83.014 75.5517 83.014 81.3243C83.014 87.2309 79.2292 90.7431 72.7899 90.7431H67.5491V94.9885C67.5398 96.6631 67.6278 98.3369 67.8127 100.001L60.6843 100.002ZM67.5511 85.1057H72.4945C72.9835 85.1632 73.4785 85.1107 73.9447 84.9524C74.411 84.7942 74.8366 84.5343 75.1895 84.191C75.5425 83.8478 75.8145 83.4304 75.9857 82.9687C76.1569 82.5071 76.2227 82.013 76.1788 81.5226C76.1788 79.2317 74.8837 78.0376 72.4945 78.0376H67.5511V85.1057ZM49.2685 100.002C49.4831 98.3752 49.5725 96.7336 49.5363 95.0927V77.3099C49.5761 75.6686 49.4867 74.0274 49.2685 72.4002H56.5646C56.351 74.0278 56.2642 75.6689 56.305 77.3099V95.0927C56.2699 96.7333 56.3567 98.3747 56.5646 100.002H49.2685ZM28.665 100.002C28.3947 98.7846 28.0398 97.5874 27.6021 96.4193L20.534 76.4473C19.8715 74.5217 19.5373 73.6937 18.9785 72.3992H26.7395C26.913 73.6108 27.1787 74.8072 27.5347 75.9782L32.3442 91.9378C32.6121 92.8357 32.6116 92.8351 32.9768 94.2291C33.3745 92.764 33.4421 92.572 33.6053 91.9378L38.419 75.9782C38.7895 74.813 39.0456 73.6143 39.1824 72.3992H46.9782C46.5104 73.3955 46.2159 74.1554 45.3849 76.4473L38.3464 96.4193C37.9199 97.5907 37.5665 98.7873 37.2876 100.002H28.665ZM20.2304 68.1661C19.5721 68.166 18.9315 67.9543 18.4021 67.5631C17.8726 67.1719 17.4825 66.6216 17.2891 65.9923L2.1359 16.8054C1.9657 16.252 1.95524 15.662 2.10524 15.1028C2.25524 14.5436 2.55986 14.0373 2.98416 13.6434C3.40846 13.2494 3.93509 12.984 4.50388 12.8758C5.07267 12.7677 5.66013 12.8214 6.19937 13.0322L28.1131 21.6017C28.7216 21.8394 29.3898 21.8768 30.0212 21.709C30.6525 21.5411 31.2136 21.1761 31.6237 20.6676L47.4269 1.14531C47.7151 0.788514 48.079 0.500895 48.4928 0.303184C48.9067 0.105473 49.3597 0.00271606 49.8184 0.00271606C50.277 0.00271606 50.73 0.105473 51.1439 0.303184C51.5578 0.500895 51.9216 0.788514 52.2098 1.14531L68.0049 20.6676C68.4162 21.176 68.9783 21.5412 69.6104 21.709C70.2425 21.8768 70.9112 21.8391 71.5206 21.6017L93.4343 13.0332C93.9735 12.8225 94.561 12.7687 95.1298 12.8769C95.6986 12.985 96.2252 13.2505 96.6495 13.6444C97.0738 14.0383 97.3784 14.5446 97.5284 15.1038C97.6784 15.663 97.668 16.2531 97.4978 16.8064L82.3446 65.9933C82.151 66.6225 81.7611 67.1729 81.2316 67.5641C80.7021 67.9553 80.0615 68.1669 79.4032 68.1671L20.2304 68.1661Z" fill="url(#paint0_linear_146_8)"/>
</g>
<defs>
<linearGradient id="paint0_linear_146_8" x1="49.8168" y1="0.00271606" x2="49.8168" y2="100.002" gradientUnits="userSpaceOnUse">
<stop stop-color="#E3E3E3"/>
<stop offset="1" stop-color="#BFBFBF"/>
</linearGradient>
<clipPath id="clip0_146_8">
<rect width="100" height="100" fill="white"/>
</clipPath>
</defs>
</svg>
