<svg width="55" height="53" viewBox="0 0 55 53" fill="none" xmlns="http://www.w3.org/2000/svg">
<path fill-rule="evenodd" clip-rule="evenodd" d="M31.347 6.71796C31.347 8.77134 29.6473 10.4359 27.5506 10.4359C25.4539 10.4359 23.7542 8.77134 23.7542 6.71796C23.7542 4.66459 25.4539 3 27.5506 3C29.6473 3 31.347 4.66459 31.347 6.71796ZM47.4991 16.3841C47.4287 16.4328 47.3025 16.6425 47.1624 16.8754L47.1623 16.8755C47.0433 17.0732 46.9143 17.2877 46.8007 17.4346C45.6195 18.9762 44.1158 20.152 42.4292 20.8528C40.7427 21.5535 38.9282 21.7564 37.1544 21.4425C32.9911 20.6318 30.6259 15.9649 30.1084 13.9584C29.9165 13.0034 29.7682 12.0378 29.6642 11.0653C28.4697 10.9782 27.2715 10.9782 26.077 11.0653C26.03 11.3369 25.9899 11.6073 25.9488 11.8839L25.9488 11.884C25.8687 12.4239 25.7851 12.9875 25.6401 13.6299C25.6317 13.668 25.6217 13.7191 25.6094 13.7818L25.6094 13.782C25.3893 14.9047 24.4359 19.7686 18.9216 21.4734C13.1771 23.1868 9.91398 19.9124 8.36893 17.4359C8.14346 17.0733 7.87289 16.6953 7.6074 16.3494C6.39484 16.9074 5.21768 17.5607 4.08439 18.3045C4.2387 18.8747 4.42955 19.4313 4.6554 19.9697C4.86453 20.4988 13.0661 41 13.0661 41L13.1264 40.9666V41H42.1999C42.1999 41 51.1433 18.6754 51.0542 18.2678C51.0012 18.0267 47.7409 16.3172 47.4991 16.3841ZM39.5179 36.3813H15.5897C15.0033 34.8824 14.2556 32.9695 13.5948 31.2789L13.5937 31.2761L13.5905 31.2681C13.0626 29.9174 12.5906 28.7098 12.3012 27.97C12.0988 27.4557 11.7939 26.3403 11.7939 26.3403C11.7939 26.3403 13.45 26.6617 13.7938 26.7389C17.3213 27.5162 19.6048 26.7627 22.1075 25.5006C25.1114 23.9377 27.6316 19.8963 27.6316 19.8963C29.804 23.0409 32.8424 25.2586 36.2559 26.1911C38.546 26.7342 40.9037 26.7967 43.2134 26.3756L39.5179 36.3813ZM13 48C13 46.3431 14.3431 45 16 45H39C40.6569 45 42 46.3431 42 48C42 49.6569 40.6569 51 39 51H16C14.3431 51 13 49.6569 13 48ZM54.7096 13.8747C55.5126 11.9774 54.5931 9.80175 52.6557 9.01531C50.7184 8.22887 48.4969 9.12941 47.6938 11.0267C46.8908 12.924 47.8104 15.0997 49.7477 15.8861C51.685 16.6725 53.9066 15.772 54.7096 13.8747ZM7.59281 12.3985C7.59281 14.4518 5.8931 16.1164 3.7964 16.1164C1.69971 16.1164 0 14.4518 0 12.3985C0 10.3451 1.69971 8.68051 3.7964 8.68051C5.8931 8.68051 7.59281 10.3451 7.59281 12.3985Z" fill="url(#paint0_linear_224_4)"/>
<defs>
<linearGradient id="paint0_linear_224_4" x1="27.5" y1="3" x2="27.5" y2="48" gradientUnits="userSpaceOnUse">
<stop stop-color="#E2E2E2"/>
<stop offset="1" stop-color="#C1C1C1"/>
</linearGradient>
</defs>
</svg>
