<svg width="47" height="43" viewBox="0 0 47 43" fill="none" xmlns="http://www.w3.org/2000/svg">
<path fill-rule="evenodd" clip-rule="evenodd" d="M18.4188 2.87514L0.778841 33.4281C-1.43418 37.2616 1.33231 42.0531 5.75882 42.0531H41.0383C45.4648 42.0531 48.2313 37.2616 46.0183 33.4281L28.3783 2.87514C26.1648 -0.95838 20.6318 -0.95838 18.4188 2.87514V2.87514ZM5.75807 37.0926C5.64508 37.0926 5.30209 37.0926 5.07408 36.6976C4.84607 36.3031 5.01758 36.0061 5.07408 35.9086L22.7141 5.3551C22.7701 5.25758 22.9416 4.96058 23.3976 4.96058C23.8536 4.96058 24.0251 5.25758 24.0816 5.3551L41.7211 35.9081C41.7776 36.0061 41.9496 36.3031 41.7211 36.6976C41.4931 37.0926 41.1501 37.0926 41.0376 37.0926H5.75807V37.0926Z" fill="#6F6F6F"/>
<path fill-rule="evenodd" clip-rule="evenodd" d="M23.1706 30.1652C24.5866 30.1652 25.7826 31.3791 25.7826 32.8162C25.7826 34.2562 24.6111 35.4276 23.1706 35.4276C21.7311 35.4276 20.5596 34.2562 20.5596 32.8162C20.5596 31.3791 21.7551 30.1652 23.1706 30.1652V30.1652Z" fill="#6F6F6F"/>
<path fill-rule="evenodd" clip-rule="evenodd" d="M21.3686 21.2006C21.0811 18.2746 20.873 16.1606 20.873 15.1586C20.873 13.5016 21.6681 12.6256 23.1711 12.6256C24.6746 12.6256 25.4696 13.5016 25.4696 15.1586C25.4696 16.1626 25.261 18.2821 24.9726 21.2166C24.8391 22.5731 24.6876 24.1176 24.5276 25.8356L23.9996 29.4126H22.3436L21.8161 25.8431C21.6546 24.1111 21.5026 22.5606 21.3686 21.2006V21.2006Z" fill="#6F6F6F"/>
</svg>
