<svg width="50" height="50" viewBox="0 0 50 50" fill="none" xmlns="http://www.w3.org/2000/svg">
<path d="M6.58957 47.4102C5.53615 47.4103 4.50127 47.133 3.58896 46.6064C2.67665 46.0797 1.91905 45.3222 1.39231 44.4099C0.865577 43.4976 0.588258 42.4628 0.588242 41.4094C0.588225 40.3559 0.865509 39.3211 1.39222 38.4088L19.8021 6.52228C20.3288 5.61009 21.0864 4.85262 21.9986 4.32597C22.9108 3.79932 23.9456 3.52206 24.999 3.52206C26.0523 3.52206 27.0871 3.79932 27.9993 4.32597C28.9115 4.85262 29.6691 5.61009 30.1958 6.52228L48.6057 38.4088C49.1324 39.3211 49.4097 40.3559 49.4097 41.4094C49.4096 42.4628 49.1323 43.4976 48.6056 44.4099C48.0789 45.3222 47.3213 46.0797 46.4089 46.6064C45.4966 47.133 44.4618 47.4103 43.4083 47.4102H6.58957ZM24.2856 9.10844L5.87572 40.9949C5.79732 41.1179 5.75567 41.2608 5.75567 41.4066C5.75567 41.5525 5.79732 41.6954 5.87572 41.8184C5.9424 41.9489 6.04507 42.0575 6.17157 42.1315C6.29808 42.2055 6.44313 42.2417 6.58957 42.2358H43.4094C43.5557 42.2418 43.7006 42.2056 43.827 42.1316C43.9533 42.0576 44.0558 41.9489 44.1222 41.8184C44.2008 41.6954 44.2426 41.5526 44.2426 41.4066C44.2426 41.2607 44.2008 41.1178 44.1222 40.9949L25.7133 9.10844C25.6456 8.97927 25.5425 8.87202 25.4161 8.79921C25.2897 8.72641 25.1452 8.69104 24.9995 8.69724C24.8535 8.69085 24.7087 8.72636 24.5822 8.79959C24.4557 8.87282 24.3528 8.98071 24.2856 9.11053V9.10844ZM22.0376 36.7264C22.0415 36.001 22.3286 35.3059 22.8376 34.7891C23.3466 34.2723 24.0373 33.9747 24.7626 33.9597C25.4879 33.9747 26.1787 34.2722 26.6879 34.789C27.1971 35.3058 27.4844 36.0009 27.4886 36.7264C27.4877 37.4491 27.2003 38.142 26.6892 38.6531C26.1782 39.1641 25.4853 39.4516 24.7626 39.4524C24.0399 39.4516 23.3472 39.1641 22.8363 38.653C22.3254 38.1419 22.0382 37.4491 22.0376 36.7264ZM23.8984 33.178L23.3484 29.4533C23.1804 27.6457 23.0218 26.028 22.8819 24.6087C22.5824 21.5549 22.3653 19.3487 22.3653 18.303C22.3653 16.5726 23.195 15.6594 24.7657 15.6594C26.3364 15.6594 27.1661 16.5736 27.1661 18.303C27.1661 19.3466 26.948 21.5623 26.6443 24.6254C26.5044 26.0405 26.3468 27.6519 26.1798 29.446L25.6288 33.1791L23.8984 33.178Z" fill="#6F6F6F"/>
</svg>
