<svg width="136" height="116" viewBox="0 0 136 116" fill="none" xmlns="http://www.w3.org/2000/svg">
<path d="M49.3 41.444L50.796 39.948C49.608 38.892 47.672 37.572 45.648 36.472H54.8C54.712 38.452 54.58 40.036 54.492 41.444H49.3ZM42.392 36.472L40.632 38.188C42.392 39.024 44.328 40.256 45.868 41.444H36.232C36.496 39.86 36.716 38.232 36.98 36.472H42.392ZM43.008 27.364L41.204 29.124C42.92 29.872 44.768 31.016 46.308 32.16H37.552C37.772 30.532 37.992 28.948 38.168 27.364H43.008ZM49.74 32.16L51.236 30.664C50.048 29.652 48.156 28.376 46.22 27.364H55.152C55.108 29.124 55.064 30.664 54.976 32.16H49.74ZM66.46 36.648V31.984H60.124C60.212 29.872 60.3 27.628 60.388 25.076C60.388 24.46 60.432 22.788 60.432 22.788H34.384C35.176 21.688 35.924 20.588 36.672 19.4H64.788V14.736H39.4C39.84 13.812 40.28 12.888 40.676 12.008L35.484 10.512C33.24 15.924 29.412 21.468 25.364 24.856C26.684 25.516 28.972 27.056 30.072 27.892C31.172 26.792 32.228 25.516 33.328 24.196C33.064 26.616 32.756 29.344 32.404 31.984H25.672V36.648H31.744C31.216 40.124 30.688 43.424 30.16 46.02H53.832C53.656 46.636 53.48 46.988 53.304 47.252C52.908 47.868 52.512 47.956 51.764 47.956C50.84 48 49.124 47.956 47.144 47.78C47.804 48.924 48.376 50.64 48.42 51.784C50.62 51.916 52.864 51.916 54.272 51.696C55.768 51.476 56.956 51.036 57.924 49.628C58.408 48.968 58.76 47.868 59.068 46.02H64.524V41.444H59.596C59.728 40.036 59.816 38.496 59.948 36.648H66.46ZM80.232 43.16V33.304H99.768V43.16H80.232ZM99.768 18.652V28.112H80.232V18.652H99.768ZM74.82 13.372V51.3H80.232V48.44H99.768V51.212H105.4V13.372H74.82ZM31.392 75.92C31.04 73.412 30.116 69.54 29.28 66.592L25.672 67.472C26.464 70.42 27.3 74.336 27.564 76.888L31.392 75.92ZM48.156 94.796C48.2 94.092 48.244 93.388 48.288 92.684H59.552V94.796H48.156ZM59.552 87.228V89.296H48.288V87.228H59.552ZM64.392 83.4H43.58V91.232C43.58 94.664 43.316 98.8 40.764 101.88C41.732 102.452 43.668 104.256 44.416 105.18C46.088 103.244 47.1 100.736 47.628 98.184H59.552V100.032C59.552 100.516 59.376 100.692 58.804 100.692C58.276 100.692 56.428 100.692 54.8 100.648C55.372 101.792 55.988 103.552 56.164 104.784C58.936 104.828 61.004 104.74 62.456 104.08C63.996 103.42 64.392 102.276 64.392 100.076V83.4ZM56.34 77.856V75.92H65.052V72.444H56.34V70.684H65.932V66.944H56.34V63.732H51.28V66.944H42.172V67.912L38.256 66.68C37.772 69.144 36.848 72.576 35.968 75.04V63.776H31.392V78.34H25.76V83.18H31.392V85.688L29.06 84.852C28.444 88.196 26.772 92.244 25.012 94.488C25.76 95.984 26.728 98.316 27.168 99.856C29.016 97.7 30.424 94.004 31.392 90.264V104.828H35.968V88.46C37.068 90.528 38.432 93.432 39.092 95.148L42.392 91.364C41.688 90.308 38.696 85.996 37.816 84.984L35.968 86.26V83.18H40.676V78.34H35.968V76.008L38.872 77.108C39.796 75.04 41.028 71.916 42.172 69.012V70.684H51.28V72.444H43.272V75.92H51.28V77.856H41.512V81.596H66.504V77.856H56.34ZM97.304 83.268V90.968C97.304 95.588 98.184 97.128 102.364 97.128H105.708C108.876 97.128 110.196 95.632 110.724 89.78C109.272 89.472 107.116 88.636 106.148 87.756C106.016 91.76 105.84 92.332 105.136 92.332H103.288C102.584 92.332 102.452 92.2 102.452 90.968V83.268H110.064V78.736H99.152V73.632H108.26V69.232H99.152V63.952H93.96V69.232H90.484C90.88 68.22 91.232 67.164 91.54 66.152L86.612 65.052C85.6 68.88 83.708 72.708 81.332 75.128C82.52 75.744 84.632 77.064 85.644 77.9C86.656 76.712 87.58 75.26 88.46 73.632H93.96V78.736H81.992V83.268H89.164C88.548 87.58 86.964 91.012 81.068 93.124C82.256 94.136 83.62 96.116 84.236 97.48C91.54 94.444 93.652 89.516 94.488 83.268H97.304ZM80.936 71.872C79.528 69.848 76.492 66.944 73.984 64.964L70.024 67.912C72.488 70.068 75.392 73.104 76.624 75.216L80.936 71.872ZM79.968 80.628H70.112V85.468H74.952V96.732C73.148 97.744 71.256 99.108 69.496 100.692L72.972 105.268C75.348 102.496 77.724 99.944 79.396 99.944C80.364 99.944 81.728 101.264 83.488 102.276C86.48 103.992 89.912 104.52 95.148 104.52C99.416 104.52 105.972 104.3 109.228 104.08C109.272 102.672 110.108 100.076 110.636 98.668C106.412 99.284 99.636 99.636 95.236 99.636C90.704 99.636 86.92 99.416 84.192 97.788C82.212 96.6 81.156 95.544 79.968 95.324V80.628Z" fill="#D04BFF"/>
</svg>
