<svg width="50" height="50" viewBox="0 0 50 50" fill="none" xmlns="http://www.w3.org/2000/svg">
<path d="M22.9995 22.9996C22.9995 23.7952 22.6834 24.5583 22.1208 25.1209C21.5582 25.6834 20.7952 25.9995 19.9996 25.9995H2.99993C2.2043 25.9995 1.44126 25.6834 0.87866 25.1209C0.316063 24.5583 0 23.7952 0 22.9996C0 22.2039 0.316063 21.4409 0.87866 20.8783C1.44126 20.3157 2.2043 19.9996 2.99993 19.9996H19.9996C20.7952 19.9996 21.5582 20.3157 22.1208 20.8783C22.6834 21.4409 22.9995 22.2039 22.9995 22.9996ZM2.99993 9.99987H35.9992C36.7948 9.99987 37.5579 9.6838 38.1205 9.12121C38.6831 8.55861 38.9991 7.79557 38.9991 6.99993C38.9991 6.2043 38.6831 5.44126 38.1205 4.87866C37.5579 4.31606 36.7948 4 35.9992 4H2.99993C2.2043 4 1.44126 4.31606 0.87866 4.87866C0.316063 5.44126 0 6.2043 0 6.99993C0 7.79557 0.316063 8.55861 0.87866 9.12121C1.44126 9.6838 2.2043 9.99987 2.99993 9.99987ZM15.9996 35.9993H2.99993C2.2043 35.9993 1.44126 36.3154 0.87866 36.878C0.316063 37.4405 0 38.2036 0 38.9992C0 39.7949 0.316063 40.5579 0.87866 41.1205C1.44126 41.6831 2.2043 41.9992 2.99993 41.9992H15.9996C16.7953 41.9992 17.5583 41.6831 18.1209 41.1205C18.6835 40.5579 18.9996 39.7949 18.9996 38.9992C18.9996 38.2036 18.6835 37.4405 18.1209 36.878C17.5583 36.3154 16.7953 35.9993 15.9996 35.9993ZM49.1214 30.8769C48.8427 30.5972 48.5115 30.3753 48.1469 30.2239C47.7822 30.0725 47.3913 29.9946 46.9965 29.9946C46.6016 29.9946 46.2107 30.0725 45.846 30.2239C45.4814 30.3753 45.1502 30.5972 44.8715 30.8769L39.9991 35.7493V18.9997C39.9991 18.204 39.683 17.441 39.1205 16.8784C38.5579 16.3158 37.7948 15.9997 36.9992 15.9997C36.2035 15.9997 35.4405 16.3158 34.8779 16.8784C34.3153 17.441 33.9992 18.204 33.9992 18.9997V35.7493L29.1219 30.8694C28.5583 30.3058 27.7939 29.9892 26.9969 29.9892C26.1999 29.9892 25.4355 30.3058 24.8719 30.8694C24.3084 31.433 23.9918 32.1973 23.9918 32.9944C23.9918 33.7914 24.3084 34.5557 24.8719 35.1193L34.8717 45.1191C35.1504 45.3988 35.4816 45.6207 35.8463 45.7721C36.2109 45.9235 36.6018 46.0014 36.9967 46.0014C37.3915 46.0014 37.7825 45.9235 38.1471 45.7721C38.5118 45.6207 38.8429 45.3988 39.1216 45.1191L49.1214 35.1193C49.684 34.5567 50 33.7937 50 32.9981C50 32.2025 49.684 31.4395 49.1214 30.8769Z" fill="#B7B7B7"/>
</svg>
