<svg width="40" height="60" viewBox="0 0 40 60" fill="none" xmlns="http://www.w3.org/2000/svg">
<path fill-rule="evenodd" clip-rule="evenodd" d="M14.6422 13C21.072 13 26.2844 18.2124 26.2844 24.6422C26.2844 31.072 21.072 36.2844 14.6422 36.2844C8.2124 36.2844 3 31.072 3 24.6422C3 18.2124 8.2124 13 14.6422 13ZM14.6422 16.4927C19.1431 16.4927 22.7917 20.1414 22.7917 24.6422C22.7917 29.1431 19.1431 32.7918 14.6422 32.7918C10.1413 32.7918 6.49266 29.1431 6.49266 24.6422C6.49266 20.1414 10.1413 16.4927 14.6422 16.4927ZM23.5651 34.0667C23.5651 34.0667 24.4249 33.1016 25.0849 32.3566C25.7448 31.6116 26.5323 30.1565 26.5323 30.1565L36.8535 39.28C36.8535 39.28 37.5346 41.0042 35.9594 42.205C34.3842 43.4059 32.9735 42.205 32.9735 42.205L23.5651 34.0667Z" fill="#5F6577"/>
</svg>
