<svg width="66" height="63" viewBox="0 0 66 63" fill="none" xmlns="http://www.w3.org/2000/svg">
<path fill-rule="evenodd" clip-rule="evenodd" d="M35.3558 5.6503C35.3558 3.29113 38.1939 2.11257 39.8494 3.78359L62.5387 26.69C64.313 28.4813 64.3102 31.3798 62.5326 33.1684L40.3681 55.4601C38.7113 57.1264 35.8779 55.9458 35.8779 53.5893V42.828C35.8779 41.2364 34.494 40.0082 32.9236 40.2025C29.2993 40.6501 23.026 41.9456 18.0706 45.683C11.4575 50.6718 7.78933 56.1231 7.06665 57.2548C6.98963 57.3757 6.78899 57.6128 6.49926 58.0795C6.15683 58.6303 5.43347 60.1506 4.26566 60.1506C2.49674 60.1506 2.10499 56.9274 2.04962 56.263C1.90101 54.4853 1.19789 37.6844 16.563 26.315C24.4025 21.0845 30.1652 19.5629 33.1202 19.1288C34.4075 18.9393 35.3558 17.8225 35.3558 16.5135V5.6503V5.6503Z" stroke="#BCBCBC" stroke-width="4"/>
</svg>
