<svg width="136" height="115" viewBox="0 0 136 115" fill="none" xmlns="http://www.w3.org/2000/svg">
<path fill-rule="evenodd" clip-rule="evenodd" d="M105 0C122.121 0 136 12.8718 136 28.75V86.25C136 102.128 122.121 115 105 115H31C13.8792 115 0 102.128 0 86.25V28.75C0 12.8718 13.8792 0 31 0H105Z" fill="url(#paint0_linear_2_146)"/>
<path fill-rule="evenodd" clip-rule="evenodd" d="M71.1467 44.539C70.95 44.539 70.9022 44.6382 70.9022 44.7853V51.8175C70.9022 53.5379 69.5238 54.3742 68.0992 54.3742C66.6729 54.3742 65.1969 53.4901 65.1969 51.6705C65.1969 49.4079 65.2449 47.0975 65.2449 44.7853C65.2449 44.5886 65.1491 44.4894 64.9507 44.4894C61.7563 44.4894 58.8044 44.4894 56.7385 44.5886C55.1155 44.686 54.3767 43.4086 54.3767 42.2764C54.3767 41.0964 55.1155 39.9164 56.5896 39.9164H56.6888C58.2144 39.966 61.4107 39.966 64.903 39.966C65.1969 39.966 65.1969 39.9164 65.2449 39.6701C65.2449 39.0801 65.2449 38.7842 64.9507 38.2934C63.6236 36.13 63.4748 36.0822 63.0832 36.0822C60.624 36.0822 58.411 36.13 56.7385 36.1797C55.8029 36.2293 54.3767 35.7863 54.3767 33.9171C54.3767 32.737 55.1155 31.6067 56.5896 31.6067H56.6888C57.4755 31.6067 58.6573 31.6563 60.0819 31.6563C60.4769 31.6563 60.4769 31.6067 60.4769 31.6067C60.4769 31.5571 60.4274 31.5074 60.3778 31.41C57.7714 27.5244 55.0659 23.6389 53.5421 21.3781C53.1967 20.8359 53 20.2955 53 19.7551C53 18.2296 54.4759 17 55.9022 17C56.7385 17 57.5748 17.3951 58.1151 18.3784C60.0819 21.821 63.28 26.5907 66.5737 31.4596C66.7207 31.6563 66.7721 31.6067 67.0662 31.6563H69.18C69.4263 31.6067 69.4263 31.6563 69.575 31.4596C72.5252 27.2799 76.0156 21.7714 77.8848 18.3288C78.3757 17.4429 79.164 17.0496 79.9508 17.0496C81.4248 17.0496 83 18.3288 83 19.8526C83 20.6889 83 20.7385 75.8685 31.3604C75.8188 31.4596 75.7711 31.5074 75.7711 31.5571C75.7711 31.6067 75.8685 31.6067 76.0653 31.6067H78.3278C79.9029 31.6067 80.7357 32.737 80.7357 33.8692C80.7357 34.9996 79.9508 36.1797 78.3757 36.1797L72.9682 36.13C72.573 36.1797 72.573 36.13 72.3781 36.4259L71.54 37.6556C70.95 38.4918 70.8526 38.7363 70.8526 39.7215C70.9022 39.9164 70.95 39.966 71.198 39.966C74.1481 39.966 76.8041 39.966 78.3278 39.9164C79.9029 39.9164 80.7871 41.0964 80.7871 42.2286C80.7871 43.4086 79.9029 44.5886 78.3278 44.5886C76.1626 44.5886 73.7052 44.539 71.1467 44.539Z" fill="#F7F7F7"/>
<path d="M57.056 94.114C55.58 94.114 55.292 93.898 55.292 92.746V81.082L59.972 80.83C60.764 81.694 61.376 82.522 61.844 83.242L64.184 81.766C62.42 79.174 58.568 75.538 55.328 73.018L53.168 74.314C54.68 75.538 56.336 77.014 57.848 78.526L41 79.282C43.016 77.086 45.068 74.53 46.976 71.794H65.552V69.238H48.704C49.532 68.014 50.324 66.754 51.08 65.494L48.056 64.486C47.192 66.106 46.256 67.726 45.248 69.238H34.52V71.794H43.556C41.828 74.278 40.28 76.222 39.56 76.978C38.264 78.49 37.4 79.462 36.5 79.678C36.86 80.434 37.328 81.874 37.508 82.414C38.3 82.162 39.38 82.018 44.42 81.694C43.88 88.462 42.332 92.71 34.232 94.942C34.736 95.446 35.492 96.49 35.78 97.174C44.672 94.51 46.508 89.434 47.156 81.55L52.592 81.226V92.746C52.592 95.734 53.456 96.562 56.768 96.562H62.348C65.408 96.562 66.128 95.086 66.452 89.578C65.732 89.398 64.616 88.966 63.968 88.498C63.824 93.286 63.608 94.114 62.132 94.114H57.056ZM77.576 64.522C75.704 69.958 72.608 75.286 69.296 78.778C69.728 79.426 70.52 80.794 70.772 81.406C71.816 80.218 72.86 78.922 73.832 77.482V97.318H76.316V73.486C77.756 70.894 79.016 68.086 79.988 65.278L77.576 64.522ZM84.2 91.018H96.692V93.97H84.2V91.018ZM96.692 75.934V78.958H84.2V75.934H96.692ZM96.692 83.998H84.2V80.938H96.692V83.998ZM84.2 85.942H96.692V89.038H84.2V85.942ZM99.176 93.97V73.846H90.392C90.68 72.874 90.932 71.686 91.22 70.498H101.3V68.158H91.688C91.94 66.97 92.156 65.746 92.372 64.666L89.528 64.486C89.42 65.566 89.24 66.862 89.06 68.158H79.88V70.498H88.664C88.412 71.686 88.196 72.874 87.98 73.846H81.788V93.97H78.368V96.274H102.38V93.97H99.176Z" fill="#F7F7F7"/>
<defs>
<linearGradient id="paint0_linear_2_146" x1="0" y1="115" x2="136" y2="115" gradientUnits="userSpaceOnUse">
<stop stop-color="#D22783"/>
<stop offset="1" stop-color="#8F31D3"/>
</linearGradient>
</defs>
</svg>
