<svg width="136" height="116" viewBox="0 0 136 116" fill="none" xmlns="http://www.w3.org/2000/svg">
<path d="M37.2344 15.3125C37.6927 14.5104 37.4635 13.7083 36.5469 12.9062C36.0885 12.5625 35.401 12.4479 34.4844 12.5625C33.6823 12.7917 33.1667 13.1354 32.9375 13.5938C31.2188 16.5729 29.2708 19.4948 27.0938 22.3594C26.0625 23.849 26.1198 25.0521 27.2656 25.9688C28.9844 26.8854 30.4167 26.5417 31.5625 24.9375L30.7031 32.3281H27.7812C26.4062 32.4427 25.6615 33.2448 25.5469 34.7344C25.6615 36.224 26.349 37.026 27.6094 37.1406H30.1875C29.7292 40.4635 29.3854 43.099 29.1562 45.0469C28.8125 47.4531 29.9583 48.6562 32.5938 48.6562H56.6562C56.5417 49.1146 56.0833 49.401 55.2812 49.5156C54.5938 49.6302 52.875 49.6302 50.125 49.5156C48.6354 49.5156 47.8333 50.2031 47.7188 51.5781C47.8333 52.8385 48.6354 53.5833 50.125 53.8125C50.2396 53.8125 50.5833 53.8125 51.1562 53.8125C52.4167 53.9271 53.5052 53.9844 54.4219 53.9844C57.401 53.8698 59.349 53.4115 60.2656 52.6094C61.4115 51.8073 61.9844 50.4323 61.9844 48.4844H63.875C65.0208 48.3698 65.651 47.5677 65.7656 46.0781C65.651 44.7031 65.0208 43.9583 63.875 43.8438H62.3281L62.5 36.9688H64.2188C65.5938 36.8542 66.3385 36.0521 66.4531 34.5625C66.3385 33.0729 65.5938 32.2708 64.2188 32.1562H62.6719V25.4531C62.7865 23.1615 61.7552 22.0729 59.5781 22.1875H33.4531C33.7969 21.8438 34.3125 21.1562 35 20.125H63.7031C64.9635 20.0104 65.651 19.2083 65.7656 17.7188C65.651 16.2292 64.9635 15.4271 63.7031 15.3125H37.2344ZM57.8594 32.5H50.4688C51.8438 31.3542 51.8438 30.2083 50.4688 29.0625C50.125 28.8333 49.6667 28.5469 49.0938 28.2031C48.4062 27.6302 47.776 27.1719 47.2031 26.8281H56.8281C57.5156 26.8281 57.8594 27.3438 57.8594 28.375V32.5ZM42.7344 26.8281C41.8177 27.6302 41.9323 28.6042 43.0781 29.75C43.4219 29.9792 43.8802 30.2656 44.4531 30.6094C45.7135 31.526 46.6875 32.1562 47.375 32.5H35.5156C35.8594 29.5208 36.0312 27.974 36.0312 27.8594C36.1458 27.1719 36.5469 26.8281 37.2344 26.8281H42.7344ZM57.8594 37.1406C57.8594 40.1198 57.8021 42.4115 57.6875 44.0156H49.9531C50.7552 43.6719 51.1562 43.0417 51.1562 42.125C51.0417 41.2083 50.5833 40.5208 49.7812 40.0625C49.4375 39.8333 48.75 39.375 47.7188 38.6875C46.4583 37.8854 45.6562 37.3698 45.3125 37.1406H57.8594ZM35.8594 44.1875C34.4844 44.4167 33.9688 43.7865 34.3125 42.2969C34.6562 40.6927 34.8854 38.974 35 37.1406H41.7031C40.5573 38.1719 40.5 39.3177 41.5312 40.5781C43.1354 41.8385 44.9115 43.0417 46.8594 44.1875H35.8594ZM77.625 15.1406C74.5312 14.9115 73.099 16.5156 73.3281 19.9531V47.9688C73.099 50.8333 74.4167 52.151 77.2812 51.9219H102.719C105.698 52.151 107.073 50.6615 106.844 47.4531V19.7812C107.073 16.4583 105.641 14.9115 102.547 15.1406H77.625ZM101.688 30.2656H78.4844V21.1562C78.4844 20.5833 78.7708 20.2969 79.3438 20.2969H100.828C101.401 20.2969 101.688 20.6406 101.688 21.3281V30.2656ZM101.688 35.5938V45.9062C101.802 46.4792 101.516 46.7656 100.828 46.7656H79.5156C78.7135 46.8802 78.3698 46.5938 78.4844 45.9062V35.5938H101.688ZM42.2188 64.1719C40.5 63.599 39.4115 64.1719 38.9531 65.8906C38.8385 66.349 38.6094 67.2083 38.2656 68.4688C37.9219 69.9583 37.6354 71.1042 37.4062 71.9062C37.2917 73.3958 37.8073 74.1979 38.9531 74.3125C39.8698 74.4271 40.5573 73.9115 41.0156 72.7656C41.1302 72.1927 41.3021 71.4479 41.5312 70.5312C41.7604 69.6146 41.9323 68.8698 42.0469 68.2969H50.8125V69.6719H43.5938C42.5625 69.7865 42.0469 70.4167 42.0469 71.5625C42.1615 72.7083 42.7344 73.2812 43.7656 73.2812H50.8125V74.6562H41.7031C40.4427 74.6562 39.8125 75.1146 39.8125 76.0312H37.0625V62.9688C36.9479 61.8229 36.2604 61.1927 35 61.0781C33.625 61.1927 32.8802 61.8229 32.7656 62.9688V76.0312H28.125C26.9792 76.1458 26.349 76.8906 26.2344 78.2656C26.349 79.6406 26.9792 80.3854 28.125 80.5H31.5625C30.6458 83.8229 28.9844 87.8333 26.5781 92.5312C25.776 94.3646 25.9479 95.5104 27.0938 95.9688C28.4688 96.7708 29.6146 96.2552 30.5312 94.4219C31.4479 92.9323 32.1927 91.3281 32.7656 89.6094V99.9219C32.8802 101.068 33.625 101.698 35 101.812C36.2604 101.698 36.9479 101.068 37.0625 99.9219V88.0625C37.2917 88.4062 37.5781 88.75 37.9219 89.0938C38.151 89.4375 38.3802 89.7812 38.6094 90.125C39.2969 90.9271 40.1562 90.9844 41.1875 90.2969C42.2188 89.6094 42.3906 88.6927 41.7031 87.5469C41.474 87.0885 40.9583 86.2292 40.1562 84.9688C39.8125 84.625 39.5833 84.3385 39.4688 84.1094C38.3229 82.6198 37.5208 81.875 37.0625 81.875V80.5H40.3281C41.5885 80.5 42.2188 79.8698 42.2188 78.6094H64.9062C65.9375 78.4948 66.5104 77.8073 66.625 76.5469C66.3958 75.2865 65.7656 74.6562 64.7344 74.6562H55.625V73.2812H63.3594C64.3906 73.1667 64.9635 72.5365 65.0781 71.3906C64.849 70.2448 64.2188 69.6719 63.1875 69.6719H55.625V68.2969H64.3906C65.651 68.1823 66.2812 67.4948 66.2812 66.2344C66.1667 64.974 65.4792 64.2865 64.2188 64.1719H55.625V62.625C55.5104 61.4792 54.7083 60.849 53.2188 60.7344C51.7292 60.849 50.9271 61.4792 50.8125 62.625V64.1719H42.2188ZM30.7031 74.4844C32.0781 74.2552 32.5365 73.3385 32.0781 71.7344C31.849 70.8177 31.3906 68.8125 30.7031 65.7188C30.474 64.2292 29.6719 63.6562 28.2969 64C27.2656 64.3438 26.8646 65.1458 27.0938 66.4062C27.3229 67.2083 27.5521 68.2396 27.7812 69.5C28.0104 70.7604 28.2396 71.7917 28.4688 72.5938C28.8125 74.4271 29.5573 75.0573 30.7031 74.4844ZM42.2188 99.5781C42.3333 100.839 43.1354 101.526 44.625 101.641C46.1146 101.526 46.9167 100.781 47.0312 99.4062V94.5938H59.2344V95.9688C59.349 96.6562 58.5469 97 56.8281 97C54.3073 96.4271 52.9896 96.8854 52.875 98.375C52.5312 100.438 54.3073 101.411 58.2031 101.297C62.3281 101.411 64.276 99.8646 64.0469 96.6562V84.2812C64.276 81.3021 63.1302 79.9271 60.6094 80.1562H45.4844C43.0781 80.0417 41.9896 81.1875 42.2188 83.5938V99.5781ZM59.2344 85.6562H47.0312V84.9688C47.0312 84.3958 47.2604 84.1094 47.7188 84.1094H58.5469C59.0052 84.1094 59.2344 84.3958 59.2344 84.9688V85.6562ZM47.0312 89.4375H59.2344V90.9844H47.0312V89.4375ZM93.6094 67.0938H90.6875C90.9167 66.75 91.0885 66.4062 91.2031 66.0625C91.4323 64.8021 90.7448 63.8281 89.1406 63.1406C87.8802 62.6823 86.9635 63.0833 86.3906 64.3438C85.3594 66.75 84.0417 69.2135 82.4375 71.7344C81.6354 72.8802 81.8073 73.9115 82.9531 74.8281C84.3281 75.6302 85.474 75.5729 86.3906 74.6562C87.0781 73.8542 87.7083 72.9375 88.2812 71.9062H93.6094V76.2031H82.7812C81.75 76.3177 81.1771 77.1198 81.0625 78.6094C81.1771 80.099 81.75 80.901 82.7812 81.0156H89.1406C88.6823 85.3698 86.6771 88.5208 83.125 90.4688C81.8646 91.6146 81.6927 92.7604 82.6094 93.9062C83.526 94.8229 84.8438 94.8802 86.5625 94.0781C90.9167 92.1302 93.3802 87.776 93.9531 81.0156H95.6719V90.2969C95.4427 93.1615 96.875 94.5365 99.9688 94.4219H102.719C105.698 94.4219 107.703 93.9062 108.734 92.875C109.766 91.8438 110.281 89.9531 110.281 87.2031C110.167 85.1406 109.422 83.9948 108.047 83.7656C106.557 83.8802 105.755 84.9115 105.641 86.8594C105.755 88.8073 105.125 89.724 103.75 89.6094H102.547C101.286 89.6094 100.656 89.151 100.656 88.2344V81.0156H108.219C109.365 80.901 109.995 80.099 110.109 78.6094C109.995 77.1198 109.365 76.3177 108.219 76.2031H98.5938V71.9062H106.156C107.531 71.7917 108.276 70.9896 108.391 69.5C108.276 68.0104 107.531 67.2083 106.156 67.0938H98.5938V63.1406C98.4792 61.651 97.6771 60.849 96.1875 60.7344C94.5833 60.849 93.724 61.651 93.6094 63.1406V67.0938ZM77.7969 70.1875C78.8281 70.875 79.7448 70.7031 80.5469 69.6719C81.349 68.4115 81.2917 67.3229 80.375 66.4062C80.1458 66.2917 79.8594 66.0625 79.5156 65.7188C77.5677 64.1146 76.0208 62.9688 74.875 62.2812C73.7292 61.5938 72.7552 61.7656 71.9531 62.7969C71.151 64.0573 71.2083 65.0885 72.125 65.8906C74.4167 67.8385 76.3073 69.2708 77.7969 70.1875ZM71.9531 76.5469C70.6927 76.6615 70.0052 77.4635 69.8906 78.9531C70.0052 80.4427 70.6927 81.2448 71.9531 81.3594H74.3594C74.8177 81.3594 75.0469 81.7031 75.0469 82.3906V90.9844C74.1302 92.0156 72.526 93.5052 70.2344 95.4531C69.8906 95.7969 69.6615 96.026 69.5469 96.1406C68.7448 97.0573 68.8021 98.3177 69.7188 99.9219C70.75 100.953 71.7812 101.01 72.8125 100.094C73.2708 99.6354 74.3594 98.6615 76.0781 97.1719C76.651 96.8281 77.0521 96.5417 77.2812 96.3125C79.8021 99.4062 84.099 100.953 90.1719 100.953H107.531C109.021 100.839 109.823 100.036 109.938 98.5469C109.823 97.0573 109.021 96.2552 107.531 96.1406H91.5469C84.099 96.026 80.2031 94.1927 79.8594 90.6406V78.7812C79.7448 77.4062 78.9427 76.6615 77.4531 76.5469H71.9531Z" fill="#D04BFF"/>
</svg>
