<svg width="55" height="55" viewBox="0 0 55 55" fill="none" xmlns="http://www.w3.org/2000/svg">
<path d="M47.078 48.948L33.2428 36.9798C33.2428 36.9798 34.5071 35.5605 35.477 34.4648C36.28 33.4506 36.9924 32.3678 37.606 31.229L52.7843 44.6456C53.0556 45.4088 53.0743 46.239 52.8375 47.0136C52.6007 47.7882 52.1211 48.4661 51.4694 48.9471C50.8555 49.4447 50.0921 49.7212 49.302 49.7321C48.4954 49.7176 47.7153 49.4425 47.078 48.948ZM13.4564 38.8956C11.4218 38.0366 9.57339 36.7905 8.01386 35.2267C6.45017 33.6673 5.20411 31.8192 4.3449 29.7849C3.45282 27.6766 2.99537 25.4099 3.00004 23.1206C2.99564 20.8313 3.45336 18.5647 4.34574 16.4564C5.20493 14.4218 6.45098 12.5734 8.0147 11.0138C9.57444 9.45015 11.4228 8.20413 13.4573 7.34482C15.5653 6.45267 17.8317 5.99526 20.1207 5.99999C22.41 5.99514 24.6767 6.45256 26.7849 7.34482C28.8194 8.20413 30.6678 9.45015 32.2275 11.0138C33.7912 12.5734 35.0373 14.4218 35.8965 16.4564C36.7886 18.5647 37.246 20.8314 37.2413 23.1206C37.246 25.4099 36.7886 27.6766 35.8965 29.7849C35.0373 31.8192 33.7912 33.6673 32.2275 35.2267C30.668 36.7905 28.8196 38.0366 26.7849 38.8956C24.6767 39.7882 22.41 40.2459 20.1207 40.2413C17.8313 40.2459 15.5646 39.7882 13.4564 38.8956ZM11.6459 14.6459C10.5295 15.7562 9.64446 17.0769 9.042 18.5317C8.43955 19.9864 8.1317 21.5461 8.13623 23.1206C8.1318 24.6951 8.43976 26.2549 9.04221 27.7096C9.64466 29.1643 10.5296 30.485 11.6459 31.5954C12.7562 32.7118 14.0769 33.5969 15.5316 34.1994C16.9863 34.8018 18.5462 35.1097 20.1207 35.1051C21.6952 35.1096 23.2549 34.8017 24.7096 34.1992C26.1643 33.5968 27.4851 32.7117 28.5954 31.5954C29.7118 30.485 30.5967 29.1643 31.1992 27.7096C31.8016 26.2549 32.1096 24.6951 32.1051 23.1206C32.1096 21.5461 31.8016 19.9864 31.1992 18.5317C30.5967 17.077 29.7118 15.7563 28.5954 14.6459C27.4851 13.5296 26.1643 12.6446 24.7096 12.0421C23.2549 11.4397 21.6952 11.1318 20.1207 11.1362C18.5462 11.1318 16.9864 11.4397 15.5317 12.0421C14.077 12.6446 12.7563 13.5296 11.6459 14.6459Z" fill="#5F6577"/>
</svg>
