<svg width="62" height="62" viewBox="0 0 62 62" fill="none" xmlns="http://www.w3.org/2000/svg">
<path fill-rule="evenodd" clip-rule="evenodd" d="M33.2705 6.47044C33.2705 4.27142 35.9313 3.17279 37.4832 4.73041L58.7541 26.0824C60.4175 27.7521 60.4149 30.4539 58.7484 32.1211L37.9695 52.9C36.4162 54.4532 33.76 53.3527 33.76 51.1562V41.1251C33.76 39.6415 32.4626 38.4968 30.9904 38.6778C27.5927 39.0951 21.7116 40.3026 17.0658 43.7864C10.8662 48.4366 7.42741 53.518 6.74985 54.5729C6.67764 54.6856 6.48961 54.9066 6.21799 55.3416C5.89696 55.8551 5.21883 57.2722 4.12402 57.2722C2.46568 57.2722 2.09843 54.2677 2.04652 53.6484C1.9072 51.9914 1.24803 36.3306 15.6526 25.7328C23.002 20.8572 28.4044 19.4389 31.1747 19.0343C32.3816 18.8576 33.2705 17.8167 33.2705 16.5965V6.47044V6.47044Z" stroke="white" stroke-width="4"/>
</svg>
