<svg width="55" height="55" viewBox="0 0 55 55" fill="none" xmlns="http://www.w3.org/2000/svg">
<path d="M27.0951 3C27.5377 3 27.9804 3.09623 28.3846 3.27907L46.5046 10.9678C48.6216 11.8627 50.1998 13.9509 50.1901 16.4721C50.142 26.0181 46.2159 43.4837 29.6355 51.4226C28.0285 52.1925 26.1617 52.1925 24.5546 51.4226C7.97432 43.4837 4.04816 26.0181 4.00004 16.4721C3.99042 13.9509 5.56858 11.8627 7.68563 10.9678L25.8152 3.27907C26.2098 3.09623 26.6524 3 27.0951 3ZM27.0951 9.42812V45.8028C40.3747 39.3747 43.9449 25.1424 44.0315 16.6068L27.0951 9.42812Z" fill="#6F6F6F"/>
</svg>
