<svg width="136" height="136" viewBox="0 0 136 136" fill="none" xmlns="http://www.w3.org/2000/svg">
<path fill-rule="evenodd" clip-rule="evenodd" d="M105 12C122.121 12 136 24.8718 136 40.75V98.25C136 114.128 122.121 127 105 127H31C13.8792 127 0 114.128 0 98.25V40.75C0 24.8718 13.8792 12 31 12H105Z" fill="url(#paint0_linear_2_146)"/>
<path fill-rule="evenodd" clip-rule="evenodd" d="M71.1467 56.539C70.95 56.539 70.9022 56.6382 70.9022 56.7853V63.8175C70.9022 65.5379 69.5238 66.3742 68.0992 66.3742C66.6729 66.3742 65.1969 65.4901 65.1969 63.6705C65.1969 61.4079 65.2449 59.0975 65.2449 56.7853C65.2449 56.5886 65.1491 56.4894 64.9507 56.4894C61.7563 56.4894 58.8044 56.4894 56.7385 56.5886C55.1155 56.686 54.3767 55.4086 54.3767 54.2764C54.3767 53.0964 55.1155 51.9164 56.5896 51.9164H56.6888C58.2144 51.966 61.4107 51.966 64.903 51.966C65.1969 51.966 65.1969 51.9164 65.2449 51.6701C65.2449 51.0801 65.2449 50.7842 64.9507 50.2934C63.6236 48.13 63.4748 48.0822 63.0832 48.0822C60.624 48.0822 58.411 48.13 56.7385 48.1797C55.8029 48.2293 54.3767 47.7863 54.3767 45.9171C54.3767 44.737 55.1155 43.6067 56.5896 43.6067H56.6888C57.4755 43.6067 58.6573 43.6563 60.0819 43.6563C60.4769 43.6563 60.4769 43.6067 60.4769 43.6067C60.4769 43.5571 60.4274 43.5074 60.3778 43.41C57.7714 39.5244 55.0659 35.6389 53.5421 33.3781C53.1967 32.8359 53 32.2955 53 31.7551C53 30.2296 54.4759 29 55.9022 29C56.7385 29 57.5748 29.3951 58.1151 30.3784C60.0819 33.821 63.28 38.5907 66.5737 43.4596C66.7207 43.6563 66.7721 43.6067 67.0662 43.6563H69.18C69.4263 43.6067 69.4263 43.6563 69.575 43.4596C72.5252 39.2799 76.0156 33.7714 77.8848 30.3288C78.3757 29.4429 79.164 29.0496 79.9508 29.0496C81.4248 29.0496 83 30.3288 83 31.8526C83 32.6889 83 32.7385 75.8685 43.3604C75.8188 43.4596 75.7711 43.5074 75.7711 43.5571C75.7711 43.6067 75.8685 43.6067 76.0653 43.6067H78.3278C79.9029 43.6067 80.7357 44.737 80.7357 45.8692C80.7357 46.9996 79.9508 48.1797 78.3757 48.1797L72.9682 48.13C72.573 48.1797 72.573 48.13 72.3781 48.4259L71.54 49.6556C70.95 50.4918 70.8526 50.7363 70.8526 51.7215C70.9022 51.9164 70.95 51.966 71.198 51.966C74.1481 51.966 76.8041 51.966 78.3278 51.9164C79.9029 51.9164 80.7871 53.0964 80.7871 54.2286C80.7871 55.4086 79.9029 56.5886 78.3278 56.5886C76.1626 56.5886 73.7052 56.539 71.1467 56.539Z" fill="#F7F7F7"/>
<path d="M57.056 106.114C55.58 106.114 55.292 105.898 55.292 104.746V93.082L59.972 92.83C60.764 93.694 61.376 94.522 61.844 95.242L64.184 93.766C62.42 91.174 58.568 87.538 55.328 85.018L53.168 86.314C54.68 87.538 56.336 89.014 57.848 90.526L41 91.282C43.016 89.086 45.068 86.53 46.976 83.794H65.552V81.238H48.704C49.532 80.014 50.324 78.754 51.08 77.494L48.056 76.486C47.192 78.106 46.256 79.726 45.248 81.238H34.52V83.794H43.556C41.828 86.278 40.28 88.222 39.56 88.978C38.264 90.49 37.4 91.462 36.5 91.678C36.86 92.434 37.328 93.874 37.508 94.414C38.3 94.162 39.38 94.018 44.42 93.694C43.88 100.462 42.332 104.71 34.232 106.942C34.736 107.446 35.492 108.49 35.78 109.174C44.672 106.51 46.508 101.434 47.156 93.55L52.592 93.226V104.746C52.592 107.734 53.456 108.562 56.768 108.562H62.348C65.408 108.562 66.128 107.086 66.452 101.578C65.732 101.398 64.616 100.966 63.968 100.498C63.824 105.286 63.608 106.114 62.132 106.114H57.056ZM77.576 76.522C75.704 81.958 72.608 87.286 69.296 90.778C69.728 91.426 70.52 92.794 70.772 93.406C71.816 92.218 72.86 90.922 73.832 89.482V109.318H76.316V85.486C77.756 82.894 79.016 80.086 79.988 77.278L77.576 76.522ZM84.2 103.018H96.692V105.97H84.2V103.018ZM96.692 87.934V90.958H84.2V87.934H96.692ZM96.692 95.998H84.2V92.938H96.692V95.998ZM84.2 97.942H96.692V101.038H84.2V97.942ZM99.176 105.97V85.846H90.392C90.68 84.874 90.932 83.686 91.22 82.498H101.3V80.158H91.688C91.94 78.97 92.156 77.746 92.372 76.666L89.528 76.486C89.42 77.566 89.24 78.862 89.06 80.158H79.88V82.498H88.664C88.412 83.686 88.196 84.874 87.98 85.846H81.788V105.97H78.368V108.274H102.38V105.97H99.176Z" fill="#F7F7F7"/>
<defs>
<linearGradient id="paint0_linear_2_146" x1="0" y1="127" x2="136" y2="127" gradientUnits="userSpaceOnUse">
<stop stop-color="#D22783"/>
<stop offset="1" stop-color="#8F31D3"/>
</linearGradient>
</defs>
</svg>
