<svg width="136" height="137" viewBox="0 0 136 137" fill="none" xmlns="http://www.w3.org/2000/svg">
<path d="M51 51.1963L52.36 49.8363C51.28 48.8763 49.52 47.6763 47.68 46.6763H56C55.92 48.4763 55.8 49.9163 55.72 51.1963H51ZM44.72 46.6763L43.12 48.2363C44.72 48.9963 46.48 50.1163 47.88 51.1963H39.12C39.36 49.7563 39.56 48.2763 39.8 46.6763H44.72ZM45.28 38.3963L43.64 39.9963C45.2 40.6763 46.88 41.7163 48.28 42.7563H40.32C40.52 41.2763 40.72 39.8363 40.88 38.3963H45.28ZM51.4 42.7563L52.76 41.3963C51.68 40.4763 49.96 39.3163 48.2 38.3963H56.32C56.28 39.9963 56.24 41.3963 56.16 42.7563H51.4ZM66.6 46.8363V42.5963H60.84C60.92 40.6763 61 38.6363 61.08 36.3163C61.08 35.7563 61.12 34.2363 61.12 34.2363H37.44C38.16 33.2363 38.84 32.2363 39.52 31.1563H65.08V26.9163H42C42.4 26.0763 42.8 25.2363 43.16 24.4363L38.44 23.0763C36.4 27.9963 32.92 33.0363 29.24 36.1163C30.44 36.7163 32.52 38.1163 33.52 38.8763C34.52 37.8763 35.48 36.7163 36.48 35.5163C36.24 37.7163 35.96 40.1963 35.64 42.5963H29.52V46.8363H35.04C34.56 49.9963 34.08 52.9963 33.6 55.3563H55.12C54.96 55.9163 54.8 56.2363 54.64 56.4763C54.28 57.0363 53.92 57.1163 53.24 57.1163C52.4 57.1563 50.84 57.1163 49.04 56.9563C49.64 57.9963 50.16 59.5563 50.2 60.5963C52.2 60.7163 54.24 60.7163 55.52 60.5163C56.88 60.3163 57.96 59.9163 58.84 58.6363C59.28 58.0363 59.6 57.0363 59.88 55.3563H64.84V51.1963H60.36C60.48 49.9163 60.56 48.5163 60.68 46.8363H66.6ZM79.12 52.7563V43.7963H96.88V52.7563H79.12ZM96.88 30.4763V39.0763H79.12V30.4763H96.88ZM74.2 25.6763V60.1563H79.12V57.5563H96.88V60.0763H102V25.6763H74.2ZM34.72 86.3563C34.4 84.0763 33.56 80.5563 32.8 77.8763L29.52 78.6763C30.24 81.3563 31 84.9163 31.24 87.2363L34.72 86.3563ZM49.96 103.516C50 102.876 50.04 102.236 50.08 101.596H60.32V103.516H49.96ZM60.32 96.6363V98.5163H50.08V96.6363H60.32ZM64.72 93.1563H45.8V100.276C45.8 103.396 45.56 107.156 43.24 109.956C44.12 110.476 45.88 112.116 46.56 112.956C48.08 111.196 49 108.916 49.48 106.596H60.32V108.276C60.32 108.716 60.16 108.876 59.64 108.876C59.16 108.876 57.48 108.876 56 108.836C56.52 109.876 57.08 111.476 57.24 112.596C59.76 112.636 61.64 112.556 62.96 111.956C64.36 111.356 64.72 110.316 64.72 108.316V93.1563ZM57.4 88.1163V86.3563H65.32V83.1963H57.4V81.5963H66.12V78.1963H57.4V75.2763H52.8V78.1963H44.52V79.0763L40.96 77.9563C40.52 80.1963 39.68 83.3163 38.88 85.5563V75.3163H34.72V88.5563H29.6V92.9563H34.72V95.2363L32.6 94.4763C32.04 97.5163 30.52 101.196 28.92 103.236C29.6 104.596 30.48 106.716 30.88 108.116C32.56 106.156 33.84 102.796 34.72 99.3963V112.636H38.88V97.7563C39.88 99.6363 41.12 102.276 41.72 103.836L44.72 100.396C44.08 99.4363 41.36 95.5163 40.56 94.5963L38.88 95.7563V92.9563H43.16V88.5563H38.88V86.4363L41.52 87.4363C42.36 85.5563 43.48 82.7163 44.52 80.0763V81.5963H52.8V83.1963H45.52V86.3563H52.8V88.1163H43.92V91.5163H66.64V88.1163H57.4ZM94.64 93.0363V100.036C94.64 104.236 95.44 105.636 99.24 105.636H102.28C105.16 105.636 106.36 104.276 106.84 98.9563C105.52 98.6763 103.56 97.9163 102.68 97.1163C102.56 100.756 102.4 101.276 101.76 101.276H100.08C99.44 101.276 99.32 101.156 99.32 100.036V93.0363H106.24V88.9163H96.32V84.2763H104.6V80.2763H96.32V75.4763H91.6V80.2763H88.44C88.8 79.3563 89.12 78.3963 89.4 77.4763L84.92 76.4763C84 79.9563 82.28 83.4363 80.12 85.6363C81.2 86.1963 83.12 87.3963 84.04 88.1563C84.96 87.0763 85.8 85.7563 86.6 84.2763H91.6V88.9163H80.72V93.0363H87.24C86.68 96.9563 85.24 100.076 79.88 101.996C80.96 102.916 82.2 104.716 82.76 105.956C89.4 103.196 91.32 98.7163 92.08 93.0363H94.64ZM79.76 82.6763C78.48 80.8363 75.72 78.1963 73.44 76.3963L69.84 79.0763C72.08 81.0363 74.72 83.7963 75.84 85.7163L79.76 82.6763ZM78.88 90.6363H69.92V95.0363H74.32V105.276C72.68 106.196 70.96 107.436 69.36 108.876L72.52 113.036C74.68 110.516 76.84 108.196 78.36 108.196C79.24 108.196 80.48 109.396 82.08 110.316C84.8 111.876 87.92 112.356 92.68 112.356C96.56 112.356 102.52 112.156 105.48 111.956C105.52 110.676 106.28 108.316 106.76 107.036C102.92 107.596 96.76 107.916 92.76 107.916C88.64 107.916 85.2 107.716 82.72 106.236C80.92 105.156 79.96 104.196 78.88 103.996V90.6363Z" fill="#D04BFF"/>
</svg>
