<svg width="56" height="55" viewBox="0 0 56 55" fill="none" xmlns="http://www.w3.org/2000/svg">
<path d="M28.1113 32.2564C27.7314 32.454 27.2793 32.454 26.9 32.2564L1.65706 19.077C0.690195 18.5721 0.725033 17.1728 1.71675 16.7172L26.9597 5.11966C27.3061 4.96011 27.7052 4.96011 28.0516 5.11966L53.2946 16.7172C54.2857 17.1728 54.3212 18.5721 53.3536 19.077L28.1113 32.2564Z" fill="#ACACAC"/>
<path d="M28.388 38.1571C27.837 38.4631 27.1699 38.4712 26.6115 38.1783L2.74017 25.6439C1.4935 24.9895 0 25.8957 0 27.3056C0 27.9981 0.380513 28.6893 0.989873 29.016L26.5984 42.7245C27.1637 43.0268 27.8432 43.0187 28.4004 42.7033L54.06 28.1801C54.6475 27.8473 55.0113 27.2233 55.0113 26.5465C55.0113 25.1166 53.4792 24.2122 52.2319 24.9053L28.388 38.1571Z" fill="#ACACAC"/>
<path d="M28.388 47.2114C27.837 47.5175 27.1699 47.5256 26.6115 47.2326L2.74017 34.6983C1.4935 34.0438 0 34.9495 0 36.36C0 37.0525 0.380513 37.7437 0.989873 38.0703L26.5984 51.7789C27.1637 52.0812 27.8432 52.073 28.4004 51.7577L54.06 37.2345C54.6475 36.9016 55.0113 36.2777 55.0113 35.6008C55.0113 34.171 53.4792 33.2666 52.2319 33.9597L28.388 47.2114Z" fill="#ACACAC"/>
</svg>
