<svg width="55" height="55" viewBox="0 0 55 55" fill="none" xmlns="http://www.w3.org/2000/svg">
<path d="M27.7865 29.0417C31.2398 29.0417 34.5517 27.6698 36.9936 25.228C39.4355 22.7861 40.8073 19.4742 40.8073 16.0208C40.8073 12.5675 39.4355 9.25559 36.9936 6.81371C34.5517 4.37183 31.2398 3 27.7865 3C24.3331 3 21.0212 4.37183 18.5793 6.81371C16.1375 9.25559 14.7656 12.5675 14.7656 16.0208C14.7656 19.4742 16.1375 22.7861 18.5793 25.228C21.0212 27.6698 24.3331 29.0417 27.7865 29.0417ZM23.1376 31.8411C13.1177 31.8411 5 39.9588 5 49.9788C5 51.6471 6.35295 53 8.02124 53H47.5517C49.22 53 50.5729 51.6471 50.5729 49.9788C50.5729 39.9588 42.4552 31.8411 32.4353 31.8411H23.1376Z" fill="#6F6F6F"/>
</svg>
