<svg width="55" height="55" viewBox="0 0 55 55" fill="none" xmlns="http://www.w3.org/2000/svg">
<path fill-rule="evenodd" clip-rule="evenodd" d="M27.2419 2.95999L26.7418 1.06084C26.4686 0.02233 25.1872 -0.349965 24.4001 0.38071L15.1061 9.00526C14.2647 9.78653 14.6482 11.1915 15.7702 11.4364L28.0381 14.1132C29.0761 14.3395 29.9862 13.3894 29.7163 12.3626L29.1447 10.1902C39.0166 10.7675 46.8454 18.9532 46.8454 28.9704C46.8454 39.3615 38.4211 47.7858 28.0295 47.7858C17.6379 47.7858 9.21422 39.3615 9.21422 28.9704C9.21422 28.5949 9.22807 28.2232 9.24993 27.8531C9.24993 25.8618 7.63348 24.231 5.6422 24.231C3.86504 24.231 2.38873 25.5166 2.09157 27.2081C2.05591 27.41 2 28.588 2 28.9704C2 43.3462 13.6538 55 28.0295 55C42.4059 55 54.0597 43.3462 54.0597 28.9704C54.0597 14.5941 42.4059 2.9403 28.0295 2.9403C27.7654 2.9403 27.5039 2.95091 27.2419 2.95999V2.95999Z" fill="white"/>
</svg>
