<svg width="63" height="62" viewBox="0 0 63 62" fill="none" xmlns="http://www.w3.org/2000/svg">
<path fill-rule="evenodd" clip-rule="evenodd" d="M31.2109 43.6035C39.4386 43.6035 46.1084 38.0528 46.1084 31.206C46.1084 24.3591 39.4386 18.8085 31.2109 18.8085C22.9835 18.8085 16.3135 24.3591 16.3135 31.206C16.3135 38.0528 22.9835 43.6035 31.2109 43.6035V43.6035ZM31.2111 22.7965C37.2358 22.7965 42.12 26.5615 42.12 31.2059C42.12 35.8499 37.2358 39.6148 31.2111 39.6148C25.1859 39.6148 20.3018 35.8499 20.3018 31.2059C20.3018 26.5615 25.1859 22.7965 31.2111 22.7965V22.7965Z" fill="#B7B7B7"/>
<path fill-rule="evenodd" clip-rule="evenodd" d="M31.8788 51.2676C57.0688 51.2676 62.0857 30.7013 62.0857 30.7013C62.0857 30.7013 56.1282 11 31.5652 11C7.0028 11 0 30.8934 0 30.8934C0 30.8934 6.68926 51.2676 31.8788 51.2676V51.2676ZM31.7602 14.8441C52.7413 14.8441 58.1459 31.4699 58.1459 31.4699C58.1459 31.4699 52.1055 47.5196 30.2764 47.5196C12.0503 47.5196 4.4209 31.2779 4.4209 31.2779C4.4209 31.2779 10.7786 14.8441 31.7602 14.8441V14.8441Z" fill="#B7B7B7"/>
</svg>
