<svg width="50" height="50" viewBox="0 0 50 50" fill="none" xmlns="http://www.w3.org/2000/svg">
<path d="M0.45076 24.5427C0.45076 24.5427 5.98978 7.42926 25.4172 7.42926C44.8446 7.42926 49.557 24.3758 49.557 24.3758C49.557 24.3758 45.5887 42.0673 25.6649 42.0673C5.74116 42.0673 0.45076 24.5427 0.45076 24.5427ZM4.25383 24.873C4.25383 24.873 10.2058 38.8449 24.4262 38.8449C41.4588 38.8449 46.1694 25.0382 46.1694 25.0382C44.7101 20.7717 41.9259 17.0831 38.2229 14.5103C34.5198 11.9375 30.0916 10.6151 25.5841 10.736C9.21392 10.7368 4.25125 24.8739 4.25125 24.8739L4.25383 24.873ZM14.4845 24.8111C14.4845 21.982 15.6084 19.2689 17.6088 17.2685C19.6092 15.2681 22.3224 14.1442 25.1514 14.1442C27.9804 14.1442 30.6936 15.2681 32.694 17.2685C34.6944 19.2689 35.8182 21.982 35.8182 24.8111C35.8182 27.6401 34.6944 30.3532 32.694 32.3537C30.6936 34.3541 27.9804 35.4779 25.1514 35.4779C23.7506 35.478 22.3635 35.2022 21.0693 34.6663C19.7751 34.1303 18.5991 33.3447 17.6085 32.3543C16.6179 31.3639 15.8321 30.188 15.296 28.8939C14.7598 27.5998 14.4838 26.2127 14.4837 24.8119L14.4845 24.8111ZM17.9151 24.8111C17.9151 26.7298 18.6774 28.5699 20.0341 29.9267C21.3908 31.2834 23.231 32.0456 25.1497 32.0456C26.0997 32.0456 27.0404 31.8585 27.9181 31.4949C28.7958 31.1313 29.5932 30.5984 30.265 29.9266C30.9367 29.2548 31.4695 28.4573 31.833 27.5795C32.1964 26.7018 32.3835 25.7611 32.3833 24.8111C32.3833 22.8926 31.6212 21.0527 30.2646 19.6961C28.9081 18.3395 27.0682 17.5774 25.1497 17.5774C24.1995 17.5772 23.2586 17.7641 22.3807 18.1276C21.5029 18.4911 20.7052 19.024 20.0333 19.6958C19.3614 20.3676 18.8284 21.1652 18.4648 22.0431C18.1012 22.9209 17.9142 23.8618 17.9143 24.8119L17.9151 24.8111Z" fill="#B7B7B7"/>
</svg>
