<svg width="1200" height="400" viewBox="0 0 1200 400" fill="none" xmlns="http://www.w3.org/2000/svg">
<g clip-path="url(#clip0_7_10)">
<mask id="mask0_7_10" style="mask-type:luminance" maskUnits="userSpaceOnUse" x="0" y="0" width="1200" height="400">
<path d="M1200 0H0V400H1200V0Z" fill="white"/>
</mask>
<g mask="url(#mask0_7_10)">
<path d="M1198.24 551H-51V-150H1249V551H1198.24ZM1199.03 550.206H1248.21V500.985H1199.03V550.206ZM1149.06 550.206H1198.24V500.985H1149.06V550.206ZM1099.09 550.206H1148.27V500.985H1099.09V550.206ZM1049.12 550.206H1098.3V500.985H1049.12L1049.12 550.206ZM999.154 550.206H1048.33V500.985H999.154V550.206ZM949.185 550.206H998.361V500.985H949.185V550.206ZM899.215 550.206H948.39V500.985H899.213L899.215 550.206ZM849.246 550.206H898.42V500.985H849.244L849.246 550.206ZM799.277 550.206H848.453V500.985H799.274L799.277 550.206ZM749.308 550.206H798.484V500.985H749.305L749.308 550.206ZM699.338 550.206H748.514V500.985H699.336L699.338 550.206ZM649.369 550.206H698.545V500.985H649.366L649.369 550.206ZM599.4 550.206H648.576V500.985H599.4V550.206ZM549.431 550.206H598.6V500.985H549.427L549.431 550.206ZM499.462 550.206H548.638V500.985H499.458L499.462 550.206ZM449.492 550.206H498.668V500.985H449.488L449.492 550.206ZM399.522 550.206H448.698V500.985H399.519L399.522 550.206ZM349.552 550.206H398.728V500.985H349.549L349.552 550.206ZM299.583 550.206H348.759V500.985H299.58L299.583 550.206ZM249.613 550.206H298.789V500.985H249.61L249.613 550.206ZM199.644 550.206H248.82V500.985H199.641L199.644 550.206ZM149.675 550.206H198.851V500.985H149.671L149.675 550.206ZM99.706 550.206H148.882V500.985H99.7L99.706 550.206ZM49.736 550.206H98.912V500.985H49.732L49.736 550.206ZM-0.233002 550.206H48.939V500.985H-0.237L-0.233002 550.206ZM-50.202 550.206H-1.031V500.985H-50.207L-50.202 550.206ZM1199.03 500.191H1248.21V450.971H1199.03V500.191ZM1149.06 500.191H1198.24V450.971H1149.06V500.191ZM1099.09 500.191H1148.27V450.971H1099.09V500.191ZM1049.12 500.191H1098.3V450.971H1049.12L1049.12 500.191ZM999.154 500.191H1048.33V450.971H999.154V500.191ZM949.185 500.191H998.361V450.971H949.185V500.191ZM899.215 500.191H948.39V450.971H899.213L899.215 500.191ZM849.246 500.191H898.42V450.971H849.244L849.246 500.191ZM799.277 500.191H848.453V450.971H799.274L799.277 500.191ZM749.308 500.191H798.484V450.971H749.305L749.308 500.191ZM699.338 500.191H748.514V450.971H699.336L699.338 500.191ZM649.369 500.191H698.545V450.971H649.366L649.369 500.191ZM599.4 500.191H648.576V450.971H599.4V500.191ZM549.431 500.191H598.6V450.971H549.427L549.431 500.191ZM499.462 500.191H548.638V450.971H499.458L499.462 500.191ZM449.492 500.191H498.668V450.971H449.488L449.492 500.191ZM399.522 500.191H448.698V450.971H399.519L399.522 500.191ZM349.552 500.191H398.728V450.971H349.549L349.552 500.191ZM299.583 500.191H348.759V450.971H299.58L299.583 500.191ZM249.613 500.191H298.789V450.971H249.61L249.613 500.191ZM199.644 500.191H248.82V450.971H199.641L199.644 500.191ZM149.675 500.191H198.851V450.971H149.671L149.675 500.191ZM99.706 500.191H148.882V450.971H99.7L99.706 500.191ZM49.736 500.191H98.912V450.971H49.732L49.736 500.191ZM-0.233002 500.191H48.939V450.971H-0.237L-0.233002 500.191ZM-50.202 500.191H-1.031V450.971H-50.207L-50.202 500.191ZM1199.03 450.177H1248.21V400.956H1199.03V450.177ZM1149.06 450.177H1198.24V400.956H1149.06V450.177ZM1099.09 450.177H1148.27V400.956H1099.09V450.177ZM1049.12 450.177H1098.3V400.956H1049.12L1049.12 450.177ZM999.154 450.177H1048.33V400.956H999.154V450.177ZM949.185 450.177H998.361V400.956H949.185V450.177ZM899.215 450.177H948.39V400.956H899.213L899.215 450.177ZM849.246 450.177H898.42V400.956H849.244L849.246 450.177ZM799.277 450.177H848.453V400.956H799.274L799.277 450.177ZM749.308 450.177H798.484V400.956H749.305L749.308 450.177ZM699.338 450.177H748.514V400.956H699.336L699.338 450.177ZM649.369 450.177H698.545V400.956H649.366L649.369 450.177ZM599.4 450.177H648.576V400.956H599.4V450.177ZM549.431 450.177H598.6V400.956H549.427L549.431 450.177ZM499.462 450.177H548.638V400.956H499.458L499.462 450.177ZM449.492 450.177H498.668V400.956H449.488L449.492 450.177ZM399.522 450.177H448.698V400.956H399.519L399.522 450.177ZM349.552 450.177H398.728V400.956H349.549L349.552 450.177ZM299.583 450.177H348.759V400.956H299.58L299.583 450.177ZM249.613 450.177H298.789V400.956H249.61L249.613 450.177ZM199.644 450.177H248.82V400.956H199.641L199.644 450.177ZM149.675 450.177H198.851V400.956H149.671L149.675 450.177ZM99.706 450.177H148.882V400.956H99.7L99.706 450.177ZM49.736 450.177H98.912V400.956H49.732L49.736 450.177ZM-0.233002 450.177H48.939V400.956H-0.237L-0.233002 450.177ZM-50.202 450.177H-1.031V400.956H-50.207L-50.202 450.177ZM1199.03 400.162H1248.21V350.941H1199.03V400.162ZM1149.06 400.162H1198.24V350.941H1149.06V400.162ZM1099.09 400.162H1148.27V350.941H1099.09V400.162ZM1049.12 400.162H1098.3V350.941H1049.12L1049.12 400.162ZM999.154 400.162H1048.33V350.941H999.154V400.162ZM949.185 400.162H998.361V350.941H949.185V400.162ZM899.215 400.162H948.39V350.941H899.213L899.215 400.162ZM849.246 400.162H898.42V350.941H849.244L849.246 400.162ZM799.277 400.162H848.453V350.941H799.274L799.277 400.162ZM749.308 400.162H798.484V350.941H749.305L749.308 400.162ZM699.338 400.162H748.514V350.941H699.336L699.338 400.162ZM649.369 400.162H698.545V350.941H649.366L649.369 400.162ZM599.4 400.162H648.576V350.941H599.4V400.162ZM549.431 400.162H598.6V350.941H549.427L549.431 400.162ZM499.462 400.162H548.638V350.941H499.458L499.462 400.162ZM449.492 400.162H498.668V350.941H449.488L449.492 400.162ZM399.522 400.162H448.698V350.941H399.519L399.522 400.162ZM349.552 400.162H398.728V350.941H349.549L349.552 400.162ZM299.583 400.162H348.759V350.941H299.58L299.583 400.162ZM249.613 400.162H298.789V350.941H249.61L249.613 400.162ZM199.644 400.162H248.82V350.941H199.641L199.644 400.162ZM149.675 400.162H198.851V350.941H149.671L149.675 400.162ZM99.706 400.162H148.882V350.941H99.7L99.706 400.162ZM49.736 400.162H98.912V350.941H49.732L49.736 400.162ZM-0.233002 400.162H48.939V350.941H-0.237L-0.233002 400.162ZM-50.202 400.162H-1.031V350.941H-50.207L-50.202 400.162ZM1199.03 350.147H1248.21V300.926H1199.03V350.147ZM1149.06 350.147H1198.24V300.926H1149.06V350.147ZM1099.09 350.147H1148.27V300.926H1099.09V350.147ZM1049.12 350.147H1098.3V300.926H1049.12L1049.12 350.147ZM999.154 350.147H1048.33V300.926H999.154V350.147ZM949.185 350.147H998.361V300.926H949.185V350.147ZM899.215 350.147H948.39V300.926H899.213L899.215 350.147ZM849.246 350.147H898.42V300.926H849.244L849.246 350.147ZM799.277 350.147H848.453V300.926H799.274L799.277 350.147ZM749.308 350.147H798.484V300.926H749.305L749.308 350.147ZM699.338 350.147H748.514V300.926H699.336L699.338 350.147ZM649.369 350.147H698.545V300.926H649.366L649.369 350.147ZM599.4 350.147H648.576V300.926H599.4V350.147ZM549.431 350.147H598.6V300.926H549.427L549.431 350.147ZM499.462 350.147H548.638V300.926H499.458L499.462 350.147ZM449.492 350.147H498.668V300.926H449.488L449.492 350.147ZM399.522 350.147H448.698V300.926H399.519L399.522 350.147ZM349.552 350.147H398.728V300.926H349.549L349.552 350.147ZM299.583 350.147H348.759V300.926H299.58L299.583 350.147ZM249.613 350.147H298.789V300.926H249.61L249.613 350.147ZM199.644 350.147H248.82V300.926H199.641L199.644 350.147ZM149.675 350.147H198.851V300.926H149.671L149.675 350.147ZM99.706 350.147H148.882V300.926H99.7L99.706 350.147ZM49.736 350.147H98.912V300.926H49.732L49.736 350.147ZM-0.233002 350.147H48.939V300.926H-0.237L-0.233002 350.147ZM-50.202 350.147H-1.031V300.926H-50.207L-50.202 350.147ZM1199.03 300.133H1248.21V250.912H1199.03V300.133ZM1149.06 300.133H1198.24V250.912H1149.06V300.133ZM1099.09 300.133H1148.27V250.912H1099.09V300.133ZM1049.12 300.133H1098.3V250.912H1049.12L1049.12 300.133ZM999.154 300.133H1048.33V250.912H999.154V300.133ZM949.185 300.133H998.361V250.912H949.185V300.133ZM899.215 300.133H948.39V250.912H899.213L899.215 300.133ZM849.246 300.133H898.42V250.912H849.244L849.246 300.133ZM799.277 300.133H848.453V250.912H799.274L799.277 300.133ZM749.308 300.133H798.484V250.912H749.305L749.308 300.133ZM699.338 300.133H748.514V250.912H699.336L699.338 300.133ZM649.369 300.133H698.545V250.912H649.366L649.369 300.133ZM599.4 300.133H648.576V250.912H599.4V300.133ZM549.431 300.133H598.6V250.912H549.427L549.431 300.133ZM499.462 300.133H548.638V250.912H499.458L499.462 300.133ZM449.492 300.133H498.668V250.912H449.488L449.492 300.133ZM399.522 300.133H448.698V250.912H399.519L399.522 300.133ZM349.552 300.133H398.728V250.912H349.549L349.552 300.133ZM299.583 300.133H348.759V250.912H299.58L299.583 300.133ZM249.613 300.133H298.789V250.912H249.61L249.613 300.133ZM199.644 300.133H248.82V250.912H199.641L199.644 300.133ZM149.675 300.133H198.851V250.912H149.671L149.675 300.133ZM99.706 300.133H148.882V250.912H99.7L99.706 300.133ZM49.736 300.133H98.912V250.912H49.732L49.736 300.133ZM-0.233002 300.133H48.939V250.912H-0.237L-0.233002 300.133ZM-50.202 300.133H-1.031V250.912H-50.207L-50.202 300.133ZM1199.03 250.118H1248.21V200.9H1199.03V250.118ZM1149.06 250.118H1198.24V200.9H1149.06V250.118ZM1099.09 250.118H1148.27V200.9H1099.09V250.118ZM1049.12 250.118H1098.3V200.9H1049.12L1049.12 250.118ZM999.154 250.118H1048.33V200.9H999.154V250.118ZM949.185 250.118H998.361V200.9H949.185V250.118ZM899.215 250.118H948.39V200.9H899.213L899.215 250.118ZM849.246 250.118H898.42V200.9H849.244L849.246 250.118ZM799.277 250.118H848.453V200.9H799.274L799.277 250.118ZM749.308 250.118H798.484V200.9H749.305L749.308 250.118ZM699.338 250.118H748.514V200.9H699.336L699.338 250.118ZM649.369 250.118H698.545V200.9H649.366L649.369 250.118ZM599.4 250.118H648.576V200.9H599.4V250.118ZM549.431 250.118H598.6V200.9H549.427L549.431 250.118ZM499.462 250.118H548.638V200.9H499.458L499.462 250.118ZM449.492 250.118H498.668V200.9H449.488L449.492 250.118ZM399.522 250.118H448.698V200.9H399.519L399.522 250.118ZM349.552 250.118H398.728V200.9H349.549L349.552 250.118ZM299.583 250.118H348.759V200.9H299.58L299.583 250.118ZM249.613 250.118H298.789V200.9H249.61L249.613 250.118ZM199.644 250.118H248.82V200.9H199.641L199.644 250.118ZM149.675 250.118H198.851V200.9H149.671L149.675 250.118ZM99.706 250.118H148.882V200.9H99.7L99.706 250.118ZM49.736 250.118H98.912V200.9H49.732L49.736 250.118ZM-0.233002 250.118H48.939V200.9H-0.237L-0.233002 250.118ZM-50.202 250.118H-1.031V200.9H-50.207L-50.202 250.118ZM1199.03 200.1H1248.21V150.882H1199.03V200.1ZM1149.06 200.1H1198.24V150.882H1149.06V200.1ZM1099.09 200.1H1148.27V150.882H1099.09V200.1ZM1049.12 200.1H1098.3V150.882H1049.12L1049.12 200.1ZM999.154 200.1H1048.33V150.882H999.154V200.1ZM949.185 200.1H998.361V150.882H949.185V200.1ZM899.215 200.1H948.39V150.882H899.213L899.215 200.1ZM849.246 200.1H898.42V150.882H849.244L849.246 200.1ZM799.277 200.1H848.453V150.882H799.274L799.277 200.1ZM749.308 200.1H798.484V150.882H749.305L749.308 200.1ZM699.338 200.1H748.514V150.882H699.336L699.338 200.1ZM649.369 200.1H698.545V150.882H649.366L649.369 200.1ZM599.4 200.1H648.576V150.882H599.4V200.1ZM549.431 200.1H598.6V150.882H549.427L549.431 200.1ZM499.462 200.1H548.638V150.882H499.458L499.462 200.1ZM449.492 200.1H498.668V150.882H449.488L449.492 200.1ZM399.522 200.1H448.698V150.882H399.519L399.522 200.1ZM349.552 200.1H398.728V150.882H349.549L349.552 200.1ZM299.583 200.1H348.759V150.882H299.58L299.583 200.1ZM249.613 200.1H298.789V150.882H249.61L249.613 200.1ZM199.644 200.1H248.82V150.882H199.641L199.644 200.1ZM149.675 200.1H198.851V150.882H149.671L149.675 200.1ZM99.706 200.1H148.882V150.882H99.7L99.706 200.1ZM49.736 200.1H98.912V150.882H49.732L49.736 200.1ZM-0.233002 200.1H48.939V150.882H-0.237L-0.233002 200.1ZM-50.202 200.1H-1.031V150.882H-50.207L-50.202 200.1ZM1199.03 150.088H1248.21V100.867H1199.03V150.088ZM1149.06 150.088H1198.24V100.867H1149.06V150.088ZM1099.09 150.088H1148.27V100.867H1099.09V150.088ZM1049.12 150.088H1098.3V100.867H1049.12L1049.12 150.088ZM999.154 150.088H1048.33V100.867H999.154V150.088ZM949.185 150.088H998.361V100.867H949.185V150.088ZM899.215 150.088H948.39V100.867H899.213L899.215 150.088ZM849.246 150.088H898.42V100.867H849.244L849.246 150.088ZM799.277 150.088H848.453V100.867H799.274L799.277 150.088ZM749.308 150.088H798.484V100.867H749.305L749.308 150.088ZM699.338 150.088H748.514V100.867H699.336L699.338 150.088ZM649.369 150.088H698.545V100.867H649.366L649.369 150.088ZM599.4 150.088H648.576V100.867H599.4V150.088ZM549.431 150.088H598.6V100.867H549.427L549.431 150.088ZM499.462 150.088H548.638V100.867H499.458L499.462 150.088ZM449.492 150.088H498.668V100.867H449.488L449.492 150.088ZM399.522 150.088H448.698V100.867H399.519L399.522 150.088ZM349.552 150.088H398.728V100.867H349.549L349.552 150.088ZM299.583 150.088H348.759V100.867H299.58L299.583 150.088ZM249.613 150.088H298.789V100.867H249.61L249.613 150.088ZM199.644 150.088H248.82V100.867H199.641L199.644 150.088ZM149.675 150.088H198.851V100.867H149.671L149.675 150.088ZM99.706 150.088H148.882V100.867H99.7L99.706 150.088ZM49.736 150.088H98.912V100.867H49.732L49.736 150.088ZM-0.233002 150.088H48.939V100.867H-0.237L-0.233002 150.088ZM-50.202 150.088H-1.031V100.867H-50.207L-50.202 150.088ZM1199.03 100.074H1248.21V50.853H1199.03V100.074ZM1149.06 100.074H1198.24V50.853H1149.06V100.074ZM1099.09 100.074H1148.27V50.853H1099.09V100.074ZM1049.12 100.074H1098.3V50.853H1049.12L1049.12 100.074ZM999.154 100.074H1048.33V50.853H999.154V100.074ZM949.185 100.074H998.361V50.853H949.185V100.074ZM899.215 100.074H948.39V50.853H899.213L899.215 100.074ZM849.246 100.074H898.42V50.853H849.244L849.246 100.074ZM799.277 100.074H848.453V50.853H799.274L799.277 100.074ZM749.308 100.074H798.484V50.853H749.305L749.308 100.074ZM699.338 100.074H748.514V50.853H699.336L699.338 100.074ZM649.369 100.074H698.545V50.853H649.366L649.369 100.074ZM599.4 100.074H648.576V50.853H599.4V100.074ZM549.431 100.074H598.6V50.853H549.427L549.431 100.074ZM499.462 100.074H548.638V50.853H499.458L499.462 100.074ZM449.492 100.074H498.668V50.853H449.488L449.492 100.074ZM399.522 100.074H448.698V50.853H399.519L399.522 100.074ZM349.552 100.074H398.728V50.853H349.549L349.552 100.074ZM299.583 100.074H348.759V50.853H299.58L299.583 100.074ZM249.613 100.074H298.789V50.853H249.61L249.613 100.074ZM199.644 100.074H248.82V50.853H199.641L199.644 100.074ZM149.675 100.074H198.851V50.853H149.671L149.675 100.074ZM99.706 100.074H148.882V50.853H99.7L99.706 100.074ZM49.736 100.074H98.912V50.853H49.732L49.736 100.074ZM-0.233002 100.074H48.939V50.853H-0.237L-0.233002 100.074ZM-50.202 100.074H-1.031V50.853H-50.207L-50.202 100.074ZM1199.03 50.059H1248.21V0.837997H1199.03V50.059ZM1149.06 50.059H1198.24V0.837997H1149.06V50.059ZM1099.09 50.059H1148.27V0.837997H1099.09V50.059ZM1049.12 50.059H1098.3V0.837997H1049.12L1049.12 50.059ZM999.154 50.059H1048.33V0.837997H999.154V50.059ZM949.185 50.059H998.361V0.837997H949.185V50.059ZM899.215 50.059H948.39V0.837997H899.213L899.215 50.059ZM849.246 50.059H898.42V0.837997H849.244L849.246 50.059ZM799.277 50.059H848.453V0.837997H799.274L799.277 50.059ZM749.308 50.059H798.484V0.837997H749.305L749.308 50.059ZM699.338 50.059H748.514V0.837997H699.336L699.338 50.059ZM649.369 50.059H698.545V0.837997H649.366L649.369 50.059ZM599.4 50.059H648.576V0.837997H599.4V50.059ZM549.431 50.059H598.6V0.837997H549.427L549.431 50.059ZM499.462 50.059H548.638V0.837997H499.458L499.462 50.059ZM449.492 50.059H498.668V0.837997H449.488L449.492 50.059ZM399.522 50.059H448.698V0.837997H399.519L399.522 50.059ZM349.552 50.059H398.728V0.837997H349.549L349.552 50.059ZM299.583 50.059H348.759V0.837997H299.58L299.583 50.059ZM249.613 50.059H298.789V0.837997H249.61L249.613 50.059ZM199.644 50.059H248.82V0.837997H199.641L199.644 50.059ZM149.675 50.059H198.851V0.837997H149.671L149.675 50.059ZM99.706 50.059H148.882V0.837997H99.7L99.706 50.059ZM49.736 50.059H98.912V0.837997H49.732L49.736 50.059ZM-0.233002 50.059H48.939V0.837997H-0.237L-0.233002 50.059ZM-50.202 50.059H-1.031V0.837997H-50.207L-50.202 50.059ZM1199.03 0.0440063H1248.21V-49.177H1199.03V0.0440063ZM1149.06 0.0440063H1198.24V-49.177H1149.06V0.0440063ZM1099.09 0.0440063H1148.27V-49.177H1099.09V0.0440063ZM1049.12 0.0440063H1098.3V-49.177H1049.12L1049.12 0.0440063ZM999.154 0.0440063H1048.33V-49.177H999.154V0.0440063ZM949.185 0.0440063H998.361V-49.177H949.185V0.0440063ZM899.215 0.0440063H948.39V-49.177H899.213L899.215 0.0440063ZM849.246 0.0440063H898.42V-49.177H849.244L849.246 0.0440063ZM799.277 0.0440063H848.453V-49.177H799.274L799.277 0.0440063ZM749.308 0.0440063H798.484V-49.177H749.305L749.308 0.0440063ZM699.338 0.0440063H748.514V-49.177H699.336L699.338 0.0440063ZM649.369 0.0440063H698.545V-49.177H649.366L649.369 0.0440063ZM599.4 0.0440063H648.576V-49.177H599.4V0.0440063ZM549.431 0.0440063H598.6V-49.177H549.427L549.431 0.0440063ZM499.462 0.0440063H548.638V-49.177H499.458L499.462 0.0440063ZM449.492 0.0440063H498.668V-49.177H449.488L449.492 0.0440063ZM399.522 0.0440063H448.698V-49.177H399.519L399.522 0.0440063ZM349.552 0.0440063H398.728V-49.177H349.549L349.552 0.0440063ZM299.583 0.0440063H348.759V-49.177H299.58L299.583 0.0440063ZM249.613 0.0440063H298.789V-49.177H249.61L249.613 0.0440063ZM199.644 0.0440063H248.82V-49.177H199.641L199.644 0.0440063ZM149.675 0.0440063H198.851V-49.177H149.671L149.675 0.0440063ZM99.706 0.0440063H148.882V-49.177H99.7L99.706 0.0440063ZM49.736 0.0440063H98.912V-49.177H49.732L49.736 0.0440063ZM-0.233002 0.0440063H48.939V-49.177H-0.237L-0.233002 0.0440063ZM-50.202 0.0440063H-1.031V-49.177H-50.207L-50.202 0.0440063ZM1199.03 -49.971H1248.21V-99.191H1199.03V-49.971ZM1149.06 -49.971H1198.24V-99.191H1149.06V-49.971ZM1099.09 -49.971H1148.27V-99.191H1099.09V-49.971ZM1049.12 -49.971H1098.3V-99.191H1049.12L1049.12 -49.971ZM999.154 -49.971H1048.33V-99.191H999.154V-49.971ZM949.185 -49.971H998.361V-99.191H949.185V-49.971ZM899.215 -49.971H948.39V-99.191H899.213L899.215 -49.971ZM849.246 -49.971H898.42V-99.191H849.244L849.246 -49.971ZM799.277 -49.971H848.453V-99.191H799.274L799.277 -49.971ZM749.308 -49.971H798.484V-99.191H749.305L749.308 -49.971ZM699.338 -49.971H748.514V-99.191H699.336L699.338 -49.971ZM649.369 -49.971H698.545V-99.191H649.366L649.369 -49.971ZM599.4 -49.971H648.576V-99.191H599.4V-49.971ZM549.431 -49.971H598.6V-99.191H549.427L549.431 -49.971ZM499.462 -49.971H548.638V-99.191H499.458L499.462 -49.971ZM449.492 -49.971H498.668V-99.191H449.488L449.492 -49.971ZM399.522 -49.971H448.698V-99.191H399.519L399.522 -49.971ZM349.552 -49.971H398.728V-99.191H349.549L349.552 -49.971ZM299.583 -49.971H348.759V-99.191H299.58L299.583 -49.971ZM249.613 -49.971H298.789V-99.191H249.61L249.613 -49.971ZM199.644 -49.971H248.82V-99.191H199.641L199.644 -49.971ZM149.675 -49.971H198.851V-99.191H149.671L149.675 -49.971ZM99.706 -49.971H148.882V-99.191H99.7L99.706 -49.971ZM49.736 -49.971H98.912V-99.191H49.732L49.736 -49.971ZM-0.233002 -49.971H48.939V-99.191H-0.237L-0.233002 -49.971ZM-50.202 -49.971H-1.031V-99.191H-50.207L-50.202 -49.971ZM1199.03 -99.985H1248.21V-149.206H1199.03V-99.985ZM1149.06 -99.985H1198.24V-149.206H1149.06V-99.985ZM1099.09 -99.985H1148.27V-149.206H1099.09V-99.985ZM1049.12 -99.985H1098.3V-149.206H1049.12L1049.12 -99.985ZM999.154 -99.985H1048.33V-149.206H999.154V-99.985ZM949.185 -99.985H998.361V-149.206H949.185V-99.985ZM899.215 -99.985H948.39V-149.206H899.213L899.215 -99.985ZM849.246 -99.985H898.42V-149.206H849.244L849.246 -99.985ZM799.277 -99.985H848.453V-149.206H799.274L799.277 -99.985ZM749.308 -99.985H798.484V-149.206H749.305L749.308 -99.985ZM699.338 -99.985H748.514V-149.206H699.336L699.338 -99.985ZM649.369 -99.985H698.545V-149.206H649.366L649.369 -99.985ZM599.4 -99.985H648.576V-149.206H599.4V-99.985ZM549.431 -99.985H598.6V-149.206H549.427L549.431 -99.985ZM499.462 -99.985H548.638V-149.206H499.458L499.462 -99.985ZM449.492 -99.985H498.668V-149.206H449.488L449.492 -99.985ZM399.522 -99.985H448.698V-149.206H399.519L399.522 -99.985ZM349.552 -99.985H398.728V-149.206H349.549L349.552 -99.985ZM299.583 -99.985H348.759V-149.206H299.58L299.583 -99.985ZM249.613 -99.985H298.789V-149.206H249.61L249.613 -99.985ZM199.644 -99.985H248.82V-149.206H199.641L199.644 -99.985ZM149.675 -99.985H198.851V-149.206H149.671L149.675 -99.985ZM99.706 -99.985H148.882V-149.206H99.7L99.706 -99.985ZM49.736 -99.985H98.912V-149.206H49.732L49.736 -99.985ZM-0.233002 -99.985H48.939V-149.206H-0.237L-0.233002 -99.985ZM-50.202 -99.985H-1.031V-149.206H-50.207L-50.202 -99.985Z" fill="url(#paint0_radial_7_10)"/>
</g>
<path d="M471.6 162.24C469.2 167.2 464.4 173.52 460.08 177.44C461.36 179.28 463.36 182.8 464.24 184.8C469.68 179.92 475.36 172.32 479.2 165.44L471.6 162.24ZM480 190.4H507.28V169.44H500.48V183.52H497.04V162.32H490V183.52H486.48V169.36H480V181.92L472.8 179.04C469.6 186.88 464.4 195.04 459.52 200.32C460.88 202.32 463.2 206.96 463.92 208.96C465.12 207.6 466.4 206 467.6 204.4V237.04H475.92V190.88C477.44 187.92 478.8 185.04 480 182.08V190.4ZM506.72 201.76V194.32H479.28V201.76H506.72ZM482.64 204.32C482.56 216.72 482 224.72 476.32 229.76C478.24 231.28 480.56 234.64 481.52 236.8C489.36 230.24 490.48 219.52 490.72 204.32H482.64ZM504 216.56V204.24H496.16V217.12C496.16 220.32 494.88 222 493.52 222.8C494.88 224.72 496.48 228.72 496.96 230.8C498.08 229.36 500.08 227.44 510.96 220.64C510.24 219.04 509.36 215.92 508.88 213.84L504 216.56ZM524.4 184.96C523.84 192.32 522.8 198.96 521.28 204.96C519.76 199.2 518.72 192.96 517.92 186.32C518.08 185.92 518.24 185.44 518.4 184.96H524.4ZM535.36 184.96V176.96H520.72C521.76 172.72 522.64 168.24 523.36 163.76L515.36 162.32C513.92 174.16 510.96 185.52 505.76 192.72C507.36 194.56 509.84 198.56 510.8 200.4C511.52 199.36 512.24 198.32 512.96 197.2C514.08 204.08 515.52 210.4 517.36 216C514.48 222.16 510.4 227.2 504.88 230.96C506.64 232.4 509.68 235.68 510.72 237.2C515.12 233.84 518.56 229.76 521.44 225.12C523.92 229.68 527.12 233.6 530.96 236.56C532.16 234.32 534.72 230.96 536.48 229.36C531.84 226.4 528.4 221.92 525.6 216.48C529.12 207.76 531.04 197.28 532.16 184.96H535.36ZM596.08 225.36V209.36H610.72V200.48H596.08V187.36H612.4V178.4H596.08V162.72H586.56V178.4H580.16C580.96 174.8 581.6 171.04 582.16 167.28L572.88 166C572.08 172.8 570.64 179.68 568.64 185.52C567.52 182.4 565.84 178.56 564.24 175.44L559.6 177.36V162.24H550.08V178.56L543.36 177.6C542.8 184.16 541.36 193.12 539.44 198.4L546.48 200.96C548.32 195.28 549.6 186.48 550.08 179.76V236.96H559.6V182.32C560.96 185.6 562.16 189.12 562.64 191.52L567.2 189.44C566.4 191.12 565.6 192.64 564.8 194.08C567.04 195.04 571.36 197.2 573.28 198.4C574.96 195.36 576.56 191.52 577.76 187.36H586.56V200.48H571.12V209.36H586.56V225.36H565.2V234.4H614.96V225.36H596.08Z" fill="white"/>
<path d="M646.91 234.26C643.91 234.26 641.63 233.45 640.07 231.83C638.51 230.15 637.73 227.84 637.73 224.9C637.73 221.36 638.24 217.82 639.26 214.28C640.34 210.74 641.63 207.32 643.13 204.02C644.69 200.66 646.22 197.54 647.72 194.66C649.28 191.72 650.54 189.14 651.5 186.92C652.04 185.66 652.31 184.55 652.31 183.59C652.31 182.33 651.8 181.7 650.78 181.7C650.06 181.7 649.01 182.21 647.63 183.23C646.25 184.19 644.93 185.57 643.67 187.37C640.97 191.15 638.9 194.69 637.46 197.99C636.02 201.29 635.3 204.05 635.3 206.27C635.3 207.29 635.48 208.16 635.84 208.88C635.96 209.06 636.02 209.33 636.02 209.69C636.02 210.17 635.75 210.41 635.21 210.41C634.67 210.41 634.01 210.11 633.23 209.51C632.27 208.73 631.55 207.77 631.07 206.63C630.65 205.49 630.44 204.2 630.44 202.76C630.44 200.78 630.8 198.68 631.52 196.46C632.3 194.24 633.32 192.08 634.58 189.98C635.84 187.82 637.28 185.93 638.9 184.31C640.82 182.39 642.92 180.86 645.2 179.72C647.54 178.58 649.46 178.01 650.96 178.01C654.68 178.01 657.53 178.76 659.51 180.26C661.55 181.76 662.57 183.59 662.57 185.75C662.57 186.47 662.42 187.28 662.12 188.18C661.22 190.82 659.99 193.85 658.43 197.27C656.93 200.63 655.37 204.11 653.75 207.71C652.19 211.31 650.84 214.79 649.7 218.15C648.62 221.51 648.08 224.48 648.08 227.06C648.08 228.02 648.2 228.8 648.44 229.4C648.74 229.94 649.19 230.21 649.79 230.21C651.05 230.21 652.49 229.19 654.11 227.15C655.73 225.05 657.47 222.26 659.33 218.78C661.19 215.3 663.11 211.46 665.09 207.26C666.65 202.88 668.12 199.1 669.5 195.92C670.94 192.68 672.05 190.46 672.83 189.26C673.91 187.7 674.84 186.68 675.62 186.2C676.4 185.66 677.27 185.39 678.23 185.39C679.25 185.33 680.54 185.3 682.1 185.3C683.72 185.18 685.01 185.27 685.97 185.57C686.93 185.81 687.26 186.11 686.96 186.47C684.86 189.23 682.85 192.47 680.93 196.19C679.07 199.91 677.39 203.72 675.89 207.62C674.45 211.52 673.31 215.15 672.47 218.51C671.63 221.87 671.21 224.6 671.21 226.7C671.21 229.22 671.81 230.48 673.01 230.48C674.45 230.48 676.01 229.61 677.69 227.87C679.37 226.07 681.05 223.76 682.73 220.94C684.47 218.06 686.12 215 687.68 211.76C688.22 210.62 688.94 208.85 689.84 206.45C690.74 204.05 691.67 201.41 692.63 198.53C693.59 195.65 694.37 192.86 694.97 190.16C695.63 187.46 695.96 185.24 695.96 183.5C695.96 181.46 695.45 180.44 694.43 180.44C693.95 180.44 693.71 180.26 693.71 179.9C693.71 179.72 693.83 179.51 694.07 179.27C694.31 179.03 694.64 178.88 695.06 178.82C696.08 178.58 697.13 178.46 698.21 178.46C701.03 178.46 702.98 179.3 704.06 180.98C705.14 182.66 705.68 184.7 705.68 187.1C705.68 189.08 705.41 191.18 704.87 193.4C704.33 195.56 703.7 197.57 702.98 199.43C701.84 202.37 700.46 205.43 698.84 208.61C697.22 211.79 695.39 214.91 693.35 217.97C691.31 220.97 689.12 223.7 686.78 226.16C684.5 228.62 682.13 230.57 679.67 232.01C677.27 233.45 674.84 234.17 672.38 234.17C668.96 234.17 666.32 233.18 664.46 231.2C662.6 229.16 661.64 226.31 661.58 222.65C659.54 225.95 657.29 228.71 654.83 230.93C652.43 233.15 649.79 234.26 646.91 234.26ZM701.981 233.9C701.021 233.9 700.121 233.75 699.281 233.45C698.441 233.21 698.021 232.85 698.021 232.37C698.021 232.01 698.351 231.62 699.011 231.2C699.851 230.66 701.051 229.73 702.611 228.41C704.231 227.03 706.001 225.41 707.921 223.55C709.901 221.63 711.881 219.59 713.861 217.43C715.901 215.21 717.761 212.99 719.441 210.77V207.89C719.441 206.69 719.441 205.49 719.441 204.29C719.441 203.09 719.471 201.86 719.531 200.6C718.211 202.46 716.621 204.26 714.761 206C712.961 207.74 710.801 209.45 708.281 211.13C707.981 211.37 707.621 211.49 707.201 211.49C706.241 211.49 705.761 211.07 705.761 210.23C705.761 209.81 705.971 209.48 706.391 209.24C709.451 206.96 711.911 204.44 713.771 201.68C715.631 198.86 717.101 196.13 718.181 193.49C719.261 190.79 720.101 188.54 720.701 186.74C722.921 184.76 724.751 183.35 726.191 182.51C727.691 181.61 728.891 181.16 729.791 181.16C730.811 181.16 731.471 181.52 731.771 182.24C732.071 182.9 732.221 183.68 732.221 184.58C732.221 185.3 732.161 186.02 732.041 186.74C731.921 187.46 731.831 188.06 731.771 188.54C731.591 189.92 731.411 191.93 731.231 194.57C731.051 197.21 730.931 200.03 730.871 203.03C732.851 200.69 734.861 198.05 736.901 195.11C739.001 192.17 740.951 189.2 742.751 186.2C744.551 183.14 745.991 180.26 747.071 177.56C747.251 177.14 747.581 176.93 748.061 176.93C748.721 176.93 749.411 177.32 750.131 178.1C750.851 178.82 751.211 179.78 751.211 180.98C751.211 181.52 751.121 182.06 750.941 182.6C750.281 184.34 748.961 186.53 746.981 189.17C745.061 191.81 742.691 194.72 739.871 197.9C737.111 201.08 734.111 204.38 730.871 207.8C730.931 210.5 731.081 213.05 731.321 215.45C731.621 217.79 732.071 219.68 732.671 221.12C733.151 222.14 733.691 223.01 734.291 223.73C734.891 224.39 735.581 224.72 736.361 224.72C737.021 224.72 737.711 224.48 738.431 224C739.151 223.52 739.931 222.71 740.771 221.57C741.371 220.79 741.911 220.4 742.391 220.4C742.691 220.4 742.841 220.58 742.841 220.94C742.841 221.3 742.691 221.84 742.391 222.56C742.091 223.28 741.521 224.21 740.681 225.35C739.241 227.33 737.621 229.16 735.821 230.84C734.021 232.46 732.041 233.27 729.881 233.27C727.841 233.27 726.131 232.52 724.751 231.02C723.371 229.46 722.291 227.36 721.511 224.72C720.731 222.08 720.161 219.08 719.801 215.72C718.541 217.52 717.101 219.44 715.481 221.48C713.921 223.46 712.361 225.35 710.801 227.15C709.241 228.95 707.831 230.45 706.571 231.65C705.311 232.85 704.381 233.54 703.781 233.72C703.541 233.78 703.241 233.81 702.881 233.81C702.581 233.87 702.281 233.9 701.981 233.9Z" fill="#E9E9E9"/>
</g>
<defs>
<radialGradient id="paint0_radial_7_10" cx="0" cy="0" r="1" gradientUnits="userSpaceOnUse" gradientTransform="translate(599 200.5) scale(548.6 295.822)">
<stop stop-color="white" stop-opacity="0.102"/>
<stop offset="1" stop-color="white" stop-opacity="0"/>
</radialGradient>
<clipPath id="clip0_7_10">
<rect width="1200" height="400" fill="white"/>
</clipPath>
</defs>
</svg>
