<svg width="50" height="50" viewBox="0 0 50 50" fill="none" xmlns="http://www.w3.org/2000/svg">
<path d="M25.4624 3.22798e-06C29.0164 -0.000267051 32.5281 0.771534 35.7545 2.26202C38.9808 3.7525 41.8449 5.92609 44.1486 8.63241C46.4523 11.3387 48.1405 14.5132 49.0965 17.9362C50.0526 21.3592 50.2536 24.9491 49.6857 28.4574C49.1178 31.9658 47.7946 35.3089 45.8075 38.2555C43.8204 41.2021 41.2169 43.6819 38.1771 45.5233C35.1373 47.3646 31.7337 48.5237 28.2019 48.9202C24.6701 49.3168 21.0943 48.9413 17.7218 47.8198C17.1525 47.6635 16.5679 47.5691 15.9782 47.5384C15.1096 47.5839 14.2455 47.6935 13.3931 47.8663L13.273 47.89C12.5787 48.0486 11.9124 48.1775 11.2813 48.281L9.59728 48.6114L9.63498 48.5071C8.60337 48.6222 7.56623 48.6807 6.52822 48.6825C5.8129 48.6825 5.34478 48.65 5.17735 48.6351C4.37146 48.566 3.57761 48.3949 2.81484 48.1258C2.19248 47.9091 1.6186 47.5725 1.12559 47.1352C0.773672 46.8201 0.49169 46.4347 0.297822 46.004C0.103953 45.5732 0.00249783 45.1066 0 44.6342C0.00711542 44.1272 0.122032 43.6275 0.337107 43.1684C0.552183 42.7092 0.862497 42.301 1.24744 41.971C1.65568 41.6078 2.10285 41.2909 2.58078 41.026L2.71929 40.9445C2.90338 40.8296 3.02348 40.7402 3.11991 40.6692C3.19618 40.6131 3.27419 40.5544 3.36799 40.4939C3.58013 40.3571 4.33228 39.861 5.39124 39.0238C5.40668 39.0034 5.42074 38.9821 5.43332 38.9598C5.33936 38.6419 5.19107 38.3426 4.99501 38.0753L3.36887 35.5506L2.92442 34.2296C1.31586 30.4972 0.660039 26.4237 1.01592 22.3751C1.37181 18.3265 2.72824 14.4298 4.96327 11.0354C7.1983 7.64095 10.2419 4.85515 13.8203 2.92845C17.3988 1.00174 21.4 -0.00546117 25.4642 -0.00261851L25.4624 3.22798e-06ZM25.4624 44.6903C29.9505 44.6937 34.3114 43.2 37.8549 40.4458C41.3985 37.6915 43.9221 33.834 45.0263 29.4839C46.1305 25.1338 45.7522 20.5397 43.9513 16.4289C42.1504 12.318 39.0297 8.92524 35.0834 6.78771C31.1371 4.65018 26.5906 3.88999 22.1635 4.62749C17.7365 5.36499 13.6819 7.55804 10.6417 10.8595C7.60144 14.1609 5.74922 18.3821 5.37825 22.8547C5.00728 27.3274 6.13875 31.7961 8.59355 35.5532L10.2118 38.4461V39.5384C9.9205 40.5645 9.31578 41.4738 8.48222 42.1393L8.38316 42.2428L8.27095 42.3304C7.04368 43.3114 6.13111 43.9232 5.76819 44.1582L5.73137 44.1854L5.61653 44.273C5.75416 44.2827 6.06537 44.2993 6.52822 44.2993C8.5298 44.2823 10.523 44.0391 12.47 43.5744L15.9107 43.1054L16.2211 43.158C17.1215 43.2115 18.0141 43.3566 18.8851 43.591L18.9631 43.6112L19.0394 43.6366C21.1088 44.3349 23.2783 44.6908 25.4624 44.6903Z" fill="white"/>
</svg>
