<svg width="50" height="50" viewBox="0 0 50 50" fill="none" xmlns="http://www.w3.org/2000/svg">
<path d="M33.8571 7C35.3727 7 36.8261 7.51173 37.8978 8.42262C38.9694 9.33351 39.5714 10.5689 39.5714 11.8571V41L25.2857 33.7143L11 41V11.8571C11 10.5689 11.602 9.33351 12.6737 8.42262C13.7453 7.51173 15.1988 7 16.7143 7H33.8571Z" stroke="white" stroke-width="4" stroke-linecap="round" stroke-linejoin="round"/>
<path d="M30.7879 17H18.7857C17.7995 17 17 17.7995 17 18.7857C17 19.7719 17.7995 20.5714 18.7857 20.5714H30.7879C31.7741 20.5714 32.5736 19.7719 32.5736 18.7857C32.5736 17.7995 31.7741 17 30.7879 17Z" fill="white"/>
</svg>
