<svg width="50" height="50" viewBox="0 0 50 50" fill="none" xmlns="http://www.w3.org/2000/svg">
<path d="M13.9994 10C14.3934 9.99959 14.7836 10.077 15.1476 10.2279C15.5116 10.3787 15.8421 10.6 16.1204 10.879L28.1204 22.879C28.6828 23.4416 28.9987 24.2045 28.9987 25C28.9987 25.7955 28.6828 26.5584 28.1204 27.121L16.1204 39.121C15.5546 39.6675 14.7968 39.9699 14.0102 39.963C13.2236 39.9562 12.4711 39.6407 11.9149 39.0845C11.3587 38.5282 11.0432 37.7758 11.0363 36.9892C11.0295 36.2026 11.3319 35.4448 11.8784 34.879L21.7574 25L11.8784 15.121C11.4589 14.7014 11.1733 14.167 11.0576 13.5851C10.9419 13.0032 11.0013 12.4001 11.2283 11.852C11.4553 11.3039 11.8398 10.8354 12.333 10.5058C12.8262 10.1761 13.4061 10.0001 13.9994 10ZM35.9994 10C36.795 10 37.5581 10.3161 38.1207 10.8787C38.6833 11.4413 38.9994 12.2044 38.9994 13V37C38.9994 37.7956 38.6833 38.5587 38.1207 39.1213C37.5581 39.6839 36.795 40 35.9994 40C35.2037 40 34.4406 39.6839 33.878 39.1213C33.3154 38.5587 32.9994 37.7956 32.9994 37V13C32.9994 12.2044 33.3154 11.4413 33.878 10.8787C34.4406 10.3161 35.2037 10 35.9994 10Z" fill="white"/>
</svg>
