<svg width="50" height="50" viewBox="0 0 50 50" fill="none" xmlns="http://www.w3.org/2000/svg">
<path fill-rule="evenodd" clip-rule="evenodd" d="M10.247 10.247C11.3183 9.17572 12.7707 8.57313 14.2857 8.57143H35.7143C37.2293 8.57313 38.6818 9.17572 39.753 10.247C40.8243 11.3183 41.4269 12.7707 41.4286 14.2857V35.7143C41.4269 37.2293 40.8243 38.6818 39.753 39.753C38.6818 40.8243 37.2293 41.4269 35.7143 41.4286H14.2857C12.7707 41.4269 11.3183 40.8243 10.247 39.753C9.17572 38.6818 8.57313 37.2293 8.57143 35.7143V14.2857C8.57313 12.7707 9.17572 11.3183 10.247 10.247ZM35.7143 5H14.2857C11.823 5 9.46113 5.97831 7.71972 7.71972C5.97831 9.46113 5 11.823 5 14.2857V35.7143C5 38.177 5.97831 40.5389 7.71972 42.2803C9.46113 44.0217 11.823 45 14.2857 45H35.7143C36.9337 45 38.1412 44.7598 39.2678 44.2932C40.3944 43.8265 41.418 43.1425 42.2803 42.2803C43.1425 41.418 43.8265 40.3944 44.2932 39.2678C44.7598 38.1412 45 36.9337 45 35.7143V14.2857C45 13.0663 44.7598 11.8588 44.2932 10.7322C43.8265 9.60563 43.1425 8.58198 42.2803 7.71972C41.418 6.85746 40.3944 6.17348 39.2678 5.70683C38.1412 5.24018 36.9337 5 35.7143 5ZM18.8598 16.092H30.862C31.8482 16.092 32.6477 16.8915 32.6477 17.8777C32.6477 18.8639 31.8482 19.6634 30.862 19.6634H18.8598C17.8736 19.6634 17.0741 18.8639 17.0741 17.8777C17.0741 16.8915 17.8736 16.092 18.8598 16.092ZM30.505 30.3279H19.2193C18.9574 30.2796 18.6881 30.2896 18.4305 30.3571C18.1729 30.4246 17.9333 30.5479 17.7287 30.7183C17.524 30.8887 17.3594 31.102 17.2464 31.3431C17.1334 31.5843 17.0749 31.8473 17.0749 32.1136C17.0749 32.3799 17.1334 32.6429 17.2464 32.884C17.3594 33.1251 17.524 33.3385 17.7287 33.5089C17.9333 33.6793 18.1729 33.8026 18.4305 33.87C18.6881 33.9375 18.9574 33.9475 19.2193 33.8993H30.505C30.7669 33.9475 31.0361 33.9375 31.2937 33.87C31.5513 33.8026 31.791 33.6793 31.9956 33.5089C32.2002 33.3385 32.3648 33.1251 32.4778 32.884C32.5908 32.6429 32.6494 32.3799 32.6494 32.1136C32.6494 31.8473 32.5908 31.5843 32.4778 31.3431C32.3648 31.102 32.2002 30.8887 31.9956 30.7183C31.791 30.5479 31.5513 30.4246 31.2937 30.3571C31.0361 30.2896 30.7669 30.2796 30.505 30.3279ZM19.2193 23.2101H30.505C30.7669 23.1619 31.0361 23.1719 31.2937 23.2394C31.5513 23.3068 31.791 23.4301 31.9956 23.6005C32.2002 23.7709 32.3648 23.9843 32.4778 24.2254C32.5908 24.4665 32.6494 24.7295 32.6494 24.9958C32.6494 25.2621 32.5908 25.5251 32.4778 25.7663C32.3648 26.0074 32.2002 26.2207 31.9956 26.3911C31.791 26.5615 31.5513 26.6848 31.2937 26.7523C31.0361 26.8198 30.7669 26.8297 30.505 26.7815H19.2193C18.9574 26.8297 18.6881 26.8198 18.4305 26.7523C18.1729 26.6848 17.9333 26.5615 17.7287 26.3911C17.524 26.2207 17.3594 26.0074 17.2464 25.7663C17.1334 25.5251 17.0749 25.2621 17.0749 24.9958C17.0749 24.7295 17.1334 24.4665 17.2464 24.2254C17.3594 23.9843 17.524 23.7709 17.7287 23.6005C17.9333 23.4301 18.1729 23.3068 18.4305 23.2394C18.6881 23.1719 18.9574 23.1619 19.2193 23.2101Z" fill="white"/>
</svg>
