<svg width="50" height="50" viewBox="0 0 50 50" fill="none" xmlns="http://www.w3.org/2000/svg">
<g clip-path="url(#clip0_62_7571)">
<path d="M8.94207 0H41.0579C43.4285 0.00321715 45.7011 0.946359 47.3774 2.62263C49.0536 4.29889 49.9968 6.57148 50 8.94207V41.059C49.9968 43.4296 49.0536 45.7022 47.3774 47.3785C45.7011 49.0547 43.4285 49.9979 41.0579 50.0011H8.94207C6.57129 49.9979 4.29854 49.0546 2.62224 47.3781C0.945937 45.7016 0.00292472 43.4287 0 41.0579V8.94207C0.00321715 6.57148 0.946359 4.29889 2.62263 2.62263C4.29889 0.946359 6.57148 0.00321715 8.94207 0ZM41.059 45.5782C42.2575 45.577 43.4066 45.1004 44.254 44.2529C45.1015 43.4055 45.5781 42.2564 45.5793 41.0579V8.94207C45.5778 7.74349 45.1009 6.59444 44.2533 5.74701C43.4057 4.89959 42.2565 4.42301 41.0579 4.42184H8.94207C7.74368 4.42331 6.59479 4.90001 5.7474 5.7474C4.90001 6.59479 4.42331 7.74368 4.42184 8.94207V41.0579C4.42331 42.2563 4.90001 43.4052 5.7474 44.2526C6.59479 45.1 7.74368 45.5767 8.94207 45.5782H41.059Z" fill="#B7B7B7"/>
<path d="M32.9372 21.9809L20.556 14.8297C20.0417 14.5329 19.4583 14.3766 18.8645 14.3766C18.2707 14.3767 17.6873 14.533 17.173 14.8298C16.6587 15.1267 16.2316 15.5537 15.9346 16.0679C15.6376 16.582 15.4811 17.1653 15.4808 17.7592V32.0616C15.4807 32.6556 15.637 33.2391 15.934 33.7535C16.2309 34.2678 16.6581 34.695 17.1725 34.9919C17.6869 35.2888 18.2704 35.4451 18.8644 35.4449C19.4583 35.4448 20.0417 35.2882 20.556 34.9911L32.9372 27.8399C33.4514 27.543 33.8784 27.1159 34.1753 26.6017C34.4722 26.0875 34.6285 25.5041 34.6285 24.9104C34.6285 24.3166 34.4722 23.7333 34.1753 23.2191C33.8784 22.7048 33.4514 22.2778 32.9372 21.9809Z" fill="#B7B7B7"/>
</g>
<defs>
<clipPath id="clip0_62_7571">
<rect width="50" height="50" fill="white"/>
</clipPath>
</defs>
</svg>
