<svg width="55" height="55" viewBox="0 0 55 55" fill="none" xmlns="http://www.w3.org/2000/svg">
<path d="M27.9969 2C34.6281 2 40.9878 4.63425 45.6768 9.32324C50.3658 14.0122 53 20.3719 53 27.0031C52.9965 29.3298 52.6738 31.645 52.0408 33.884C50.7615 38.3529 48.2618 42.3767 44.8223 45.5037C41.3828 48.6306 37.1397 50.7368 32.5695 51.5857C27.9993 52.4347 23.2828 51.9928 18.9498 50.3096C14.6169 48.6265 10.8388 45.7688 8.04005 42.0574C5.24126 38.346 3.5325 33.9278 3.10565 29.2991C2.6788 24.6703 3.55076 20.0142 5.62363 15.8535C7.69649 11.6929 10.8882 8.19243 14.8403 5.74528C18.7924 3.29813 23.3485 2.00116 27.9969 2Z" fill="#FB50FB"/>
<path d="M39.8838 30.118H31.1118V38.89C31.1118 39.7162 30.7836 40.5085 30.1995 41.0926C29.6153 41.6768 28.823 42.005 27.9969 42.005C27.1708 42.005 26.3785 41.6768 25.7943 41.0926C25.2101 40.5085 24.882 39.7162 24.882 38.89V30.118H16.11C15.2838 30.118 14.4915 29.7899 13.9074 29.2057C13.3232 28.6215 12.995 27.8292 12.995 27.0031C12.995 26.177 13.3232 25.3847 13.9074 24.8005C14.4915 24.2164 15.2838 23.8882 16.11 23.8882H24.882V15.1162C24.882 14.29 25.2101 13.4978 25.7943 12.9136C26.3785 12.3294 27.1708 12.0013 27.9969 12.0013C28.823 12.0013 29.6153 12.3294 30.1995 12.9136C30.7836 13.4978 31.1118 14.29 31.1118 15.1162V23.8882H39.8838C40.71 23.8882 41.5023 24.2164 42.0864 24.8005C42.6706 25.3847 42.9988 26.177 42.9988 27.0031C42.9988 27.8292 42.6706 28.6215 42.0864 29.2057C41.5023 29.7899 40.71 30.118 39.8838 30.118Z" fill="#242424"/>
</svg>
