<svg width="55" height="55" viewBox="0 0 55 55" fill="none" xmlns="http://www.w3.org/2000/svg">
<path d="M6.05523 54.3945C5.46393 54.3945 4.89677 54.1613 4.47866 53.7461C4.06055 53.3308 3.82567 52.7677 3.82567 52.1804C3.82567 51.5931 4.06055 51.03 4.47866 50.6147C4.89677 50.1995 5.46393 49.9663 6.05523 49.9663H39.0444C39.6357 49.9663 40.2028 50.1995 40.6209 50.6147C41.039 51.03 41.274 51.5931 41.274 52.1804C41.274 52.7677 41.039 53.3308 40.6209 53.7461C40.2028 54.1613 39.6357 54.3945 39.0444 54.3945H6.05523ZM3.98667 48.3696C3.12622 47.9461 3.77348 46.0284 3.77348 46.0284L7.84747 33.2455L33.2836 8.4657L44.0109 19.171L18.7882 43.9012L6.13085 48.1597C5.67712 48.3739 5.18488 48.4955 4.683 48.5175C4.44238 48.5222 4.20389 48.4725 3.98667 48.3696ZM36.2509 5.3023L39.8451 1.68181C40.085 1.36191 40.3907 1.09561 40.7418 0.902079C41.0929 0.708543 41.4815 0.591621 41.8817 0.558748C42.3146 0.472491 42.7616 0.484965 43.1887 0.595976C43.6159 0.706988 44.012 0.914113 44.3468 1.19991L50.4095 7.05515C51.1386 7.60207 51.6334 8.40198 51.7955 9.29507C51.8648 9.75672 51.8413 10.2272 51.7264 10.6798C51.6115 11.1323 51.4074 11.5583 51.126 11.9321L47.0796 15.9497L36.2509 5.3023Z" fill="#6F6F6F"/>
</svg>
