<svg width="136" height="115" viewBox="0 0 136 115" fill="none" xmlns="http://www.w3.org/2000/svg">
<path d="M31.9062 14.2968C30.4167 14.4114 29.6146 15.2708 29.5 16.8749C29.6146 18.4791 30.474 19.3385 32.0781 19.4531H54.25C54.9375 19.4531 55.2812 19.7395 55.2812 20.3124V32.5156H37.5781C37.2344 32.5156 37.0052 32.2291 36.8906 31.6562V23.4062C36.776 21.802 35.9167 20.9426 34.3125 20.8281C32.5938 20.9426 31.6771 21.802 31.5625 23.4062V34.5781C31.3333 36.8697 32.3073 37.901 34.4844 37.6718H59.0625C59.8646 37.6718 60.2656 38.1874 60.2656 39.2187C60.3802 43.5729 60.0365 46.3229 59.2344 47.4687C58.5469 48.6145 56.8854 48.901 54.25 48.3281C52.4167 47.9843 51.2135 48.4426 50.6406 49.7031C50.4115 51.3072 51.1562 52.3385 52.875 52.7968C61.5833 55.2031 65.8229 51.3072 65.5938 41.1093V36.4687C65.7083 33.7187 64.276 32.401 61.2969 32.5156H60.4375V17.5624C60.5521 15.2708 59.2917 14.1822 56.6562 14.2968H31.9062ZM28.6406 40.9374C27.0365 41.052 26.1771 41.9687 26.0625 43.6874C26.2917 45.2916 27.2083 46.151 28.8125 46.2656H55.4531C57.0573 46.151 57.9167 45.2343 58.0312 43.5156C57.8021 41.9114 56.8854 41.052 55.2812 40.9374H28.6406ZM72.4688 46.7812C71.0938 46.8958 70.349 47.6979 70.2344 49.1874C70.349 50.677 71.0938 51.4791 72.4688 51.5937H107.875C109.135 51.4791 109.823 50.677 109.938 49.1874C109.823 47.6979 109.135 46.8958 107.875 46.7812H90.3438V29.9374H105.297C106.786 29.8229 107.589 28.9635 107.703 27.3593C107.589 25.7551 106.786 24.8958 105.297 24.7812H90.3438V16.3593C90.2292 14.8697 89.3698 14.0676 87.7656 13.9531C86.0469 14.0676 85.1302 14.8697 85.0156 16.3593V46.7812H72.4688ZM49.7812 65.9062C50.3542 65.1041 49.8958 63.8437 48.4062 62.1249C47.6042 61.2083 46.6875 60.9218 45.6562 61.2656C44.5104 61.8385 44.1094 62.6406 44.4531 63.6718C44.7969 64.5885 45.2552 65.3333 45.8281 65.9062H42.9062C41.6458 66.0208 41.0156 66.7656 41.0156 68.1406C41.1302 69.5156 41.8177 70.2604 43.0781 70.3749H46.6875V72.4374H43.5938C42.5625 72.4374 41.9323 73.0676 41.7031 74.3281C41.7031 75.7031 42.2188 76.4479 43.25 76.5624H46.6875V78.7968H40.8438V65.3906C40.9583 63.5572 39.9271 62.6979 37.75 62.8124H30.1875C28.0104 62.6979 26.9219 63.8437 26.9219 66.2499V87.2187C27.0365 88.3645 27.724 88.9947 28.9844 89.1093C30.1302 88.9947 30.7604 88.3645 30.875 87.2187V67.6249C30.9896 67.3958 31.1615 67.2239 31.3906 67.1093H36.375C36.6042 67.1093 36.7188 67.2812 36.7188 67.6249V86.3593C36.8333 87.5051 37.5208 88.1354 38.7812 88.2499C40.0417 88.1354 40.7292 87.5051 40.8438 86.3593V83.0937H46.6875V85.1562H43.9375C42.6771 85.2708 41.9896 85.9583 41.875 87.2187C41.875 88.4791 42.5052 89.1666 43.7656 89.2812H44.9688C43.5938 91.4583 42.3333 93.0051 41.1875 93.9218C40.9583 93.3489 39.9844 92.2604 38.2656 90.6562C37.0052 89.3958 35.9167 89.052 35 89.6249C35.4583 88.1354 35.6875 85.4426 35.6875 81.5468V71.0624C35.5729 70.1458 34.9427 69.6301 33.7969 69.5156C32.651 69.6301 32.0208 70.1458 31.9062 71.0624V81.3749C31.9062 85.2708 31.5625 88.2499 30.875 90.3124C30.1875 92.2604 28.6406 94.6666 26.2344 97.5312C25.2031 98.7916 25.2031 99.9374 26.2344 100.969C27.2656 101.656 28.3542 101.427 29.5 100.281C31.1042 98.5624 32.7083 96.0416 34.3125 92.7187C35.8021 94.2083 36.776 95.2395 37.2344 95.8124C37.349 95.927 37.5208 96.0989 37.75 96.3281C37.8646 96.5572 37.9792 96.6718 38.0938 96.6718C36.9479 97.7031 36.776 98.7916 37.5781 99.9374C38.4948 100.854 39.6406 100.797 41.0156 99.7656C43.5365 97.9322 45.4271 95.927 46.6875 93.7499V100.109C46.8021 101.255 47.4896 101.885 48.75 102C50.0104 101.885 50.6979 101.255 50.8125 100.109V89.4531H53.2188V100.109C53.3333 101.255 54.0208 101.885 55.2812 102C56.5417 101.885 57.2292 101.255 57.3438 100.109V94.0937C58.9479 96.1562 60.8385 97.9322 63.0156 99.4218C64.276 100.109 65.3073 99.9374 66.1094 98.9062C66.6823 97.6458 66.3958 96.6718 65.25 95.9843C63.0729 94.4947 60.7812 92.3176 58.375 89.4531H61.125C62.8438 89.4531 63.7031 88.4218 63.7031 86.3593V83.0937H64.5625C65.5938 82.9791 66.224 82.2916 66.4531 81.0312C66.3385 79.6562 65.7656 78.9114 64.7344 78.7968H63.7031V75.5312C63.7031 73.4687 62.6719 72.4374 60.6094 72.4374H57.1719V70.3749H63.7031C64.9635 70.2604 65.651 69.5156 65.7656 68.1406C65.651 66.7656 64.9635 66.0208 63.7031 65.9062H59.2344C59.5781 65.3333 59.9219 64.7031 60.2656 64.0156C60.724 62.8697 60.3802 61.9531 59.2344 61.2656C57.974 60.8072 57 61.0937 56.3125 62.1249C55.3958 63.7291 54.7656 64.7604 54.4219 65.2187C54.7656 64.7604 54.651 64.9895 54.0781 65.9062H49.7812ZM50.6406 70.3749H53.0469V72.4374H50.6406V70.3749ZM50.8125 76.5624H53.0469V78.7968H50.8125V76.5624ZM57.1719 76.5624H59.5781V78.7968H57.1719V76.5624ZM57.1719 83.0937H59.5781V85.3281H57.1719V83.0937ZM50.8125 83.0937H53.0469V85.3281H50.8125V83.0937ZM103.406 67.1093C104.552 67.6822 105.583 67.5104 106.5 66.5937C107.302 65.3333 107.245 64.2447 106.328 63.3281C105.297 62.526 104.151 61.7812 102.891 61.0937C101.172 60.2916 99.9115 60.5208 99.1094 61.7812C98.1927 63.3854 98.5938 64.5885 100.312 65.3906C100.312 65.3906 100.885 65.677 102.031 66.2499C102.719 66.7083 103.177 66.9947 103.406 67.1093ZM92.9219 84.2968C93.3802 86.5885 93.9531 88.7656 94.6406 90.8281C92.349 92.5468 89.2552 93.9791 85.3594 95.1249C85.2448 95.2395 85.4167 95.0104 85.875 94.4374C86.6771 93.2916 86.6198 92.2604 85.7031 91.3437C84.5573 90.427 83.4688 90.427 82.4375 91.3437C81.5208 92.4895 80.6042 93.5208 79.6875 94.4374V87.2187H82.0938C83.5833 87.1041 84.3281 86.302 84.3281 84.8124C84.2135 83.4374 83.4115 82.6926 81.9219 82.5781H79.6875V77.4218H82.6094C83.9844 77.3072 84.7292 76.5051 84.8438 75.0156C84.7292 73.6406 83.9844 72.8958 82.6094 72.7812H76.9375C77.1667 72.3229 77.6823 71.1197 78.4844 69.1718H83.8125C85.1875 69.0572 85.9323 68.2551 86.0469 66.7656C85.8177 65.3906 85.0156 64.6458 83.6406 64.5312H79.3438C79.6875 63.9583 79.8021 63.4426 79.6875 62.9843C79.8021 61.9531 79.1719 61.2656 77.7969 60.9218C76.1927 60.6926 75.2188 61.0937 74.875 62.1249C73.9583 67.052 72.2969 71.5781 69.8906 75.7031C69.3177 77.1926 69.776 78.2812 71.2656 78.9687C72.7552 79.427 73.9583 78.9114 74.875 77.4218H75.0469V82.5781H71.7812C70.5208 82.5781 69.8333 83.3229 69.7188 84.8124C69.7188 86.302 70.2917 87.1041 71.4375 87.2187H75.0469V99.0781C75.276 100.797 76.3646 101.427 78.3125 100.969C79.9167 100.51 81.75 99.1354 83.8125 96.8437C83.4688 98.677 84.3281 99.5937 86.3906 99.5937C87.4219 99.5937 88.9115 99.1354 90.8594 98.2187C91.0885 98.1041 91.2604 98.0468 91.375 98.0468C93.3229 97.2447 95.099 96.3281 96.7031 95.2968C99.7969 99.8801 102.891 102.115 105.984 102C108.276 101.771 109.766 99.4791 110.453 95.1249C110.682 93.4062 110.109 92.2604 108.734 91.6874C107.359 91.3437 106.443 91.9739 105.984 93.5781C105.984 93.5781 105.927 93.6926 105.812 93.9218C105.469 95.2968 105.01 95.9843 104.438 95.9843C103.75 95.7551 102.719 94.6093 101.344 92.5468C103.75 90.9426 105.755 89.1666 107.359 87.2187C108.391 85.9583 108.276 84.8124 107.016 83.7812C105.755 82.8645 104.495 82.9791 103.234 84.1249C102.089 85.4999 100.714 86.7604 99.1094 87.9062C98.651 86.6458 98.3073 85.2135 98.0781 83.6093L108.391 82.4062C109.88 82.177 110.568 81.2604 110.453 79.6562C110.224 78.1666 109.365 77.4791 107.875 77.5937L97.2188 78.6249C97.2188 78.1666 97.1615 77.1354 97.0469 75.5312C96.9323 74.3854 96.875 73.6979 96.875 73.4687L107.016 72.6093C108.276 72.3801 108.906 71.4635 108.906 69.8593C108.677 68.4843 107.875 67.7968 106.5 67.7968L96.3594 68.6562V63.3281C96.2448 61.8385 95.3854 61.0364 93.7812 60.9218C92.1771 61.0364 91.3177 61.8958 91.2031 63.4999C91.2031 63.8437 91.2604 64.7604 91.375 66.2499C91.375 67.8541 91.375 68.8281 91.375 69.1718L86.5625 69.5156C85.4167 69.7447 84.7865 70.6614 84.6719 72.2656C84.901 73.8697 85.5885 74.6145 86.7344 74.4999L91.7188 74.1562C91.8333 74.7291 91.9479 75.5885 92.0625 76.7343C92.0625 77.9947 92.1198 78.9114 92.2344 79.4843L86.3906 79.9999C85.0156 80.3437 84.4427 81.3749 84.6719 83.0937C84.901 84.4687 85.7604 85.0989 87.25 84.9843L92.9219 84.2968Z" fill="#D04BFF"/>
</svg>
