<svg width="136" height="115" viewBox="0 0 136 115" fill="none" xmlns="http://www.w3.org/2000/svg">
<path d="M45.92 44.7637H50.8V48.5237H45.92V44.7637ZM50.8 32.7637H45.92V29.2037H50.8V32.7637ZM50.8 40.5637H45.92V36.9637H50.8V40.5637ZM62.52 48.5237H55.24V44.7637H61.12V40.5637H55.24V36.9637H61.2V32.7637H55.24V29.2037H61.64V24.8437H54.04L56.44 23.8037C55.92 22.2837 54.8 19.9637 53.72 18.3237L49.6 19.9237C50.48 21.4437 51.36 23.3237 51.88 24.8437H46.44C47.2 23.0437 47.92 21.2437 48.56 19.4037L44.08 18.2037C42.28 24.0837 39.04 29.8837 35.4 33.4837C35.88 33.8837 36.48 34.4837 37.08 35.0837L34.48 35.7637V29.7237H38.44V25.3637H34.48V18.0037H29.88V25.3637H25.44V29.7237H29.88V37.0037C28.04 37.4837 26.36 37.8837 24.96 38.2037L26.04 42.7237L29.88 41.6837V49.8437C29.88 50.4037 29.68 50.5238 29.2 50.5238C28.72 50.5637 27.32 50.5637 25.92 50.5238C26.52 51.8838 27.08 53.8838 27.2 55.1638C29.8 55.1638 31.56 55.0038 32.8 54.2038C34.08 53.4038 34.48 52.1638 34.48 49.8837V40.3237C35.8 39.9637 37.12 39.5637 38.36 39.1637L37.92 36.0037C38.24 36.4037 38.56 36.7637 38.8 37.0437C39.68 36.0837 40.52 35.0037 41.36 33.8437V55.3638H45.92V52.8838H62.52V48.5237ZM101.68 23.8037H88.96C88.56 22.0437 87.88 19.6437 87.16 17.8037L82.12 18.6837C82.64 20.2437 83.16 22.1637 83.52 23.8037H69.36V36.0437C69.36 41.2437 69.04 47.8437 65.2 52.3238C66.28 53.0038 68.32 54.8438 69.12 55.8438C73.68 50.7237 74.48 42.1637 74.48 36.1237V28.4437H101.68V23.8037ZM26.04 105.564C30.28 104.724 35.92 103.684 41.16 102.604L40.8 98.3237C35.24 99.3237 29.24 100.324 25.28 100.844L26.04 105.564ZM31.44 82.3637C33.88 79.3237 36.32 75.5637 38.16 71.8837L33.4 69.8437C31.6 74.4437 28.56 79.2437 27.52 80.4437C26.52 81.7237 25.76 82.5237 24.88 82.7637C25.4 84.0437 26.16 86.3237 26.44 87.3237C27.12 86.9637 28.2 86.7237 32.32 86.2837C30.8 88.0837 29.48 89.4037 28.8 90.0037C27.32 91.4037 26.36 92.2037 25.16 92.4437C25.76 93.7237 26.52 96.0437 26.76 97.0037C27.96 96.4037 29.68 96.0037 40.72 94.2437C40.64 93.2037 40.52 91.4437 40.56 90.1637L33.76 91.0837C36.84 88.0837 39.88 84.5237 42.36 80.9637L38.24 78.1237C37.44 79.4837 36.56 80.7637 35.64 82.0437L31.44 82.3637ZM50 101.844C48 101.844 47.68 101.564 47.68 99.8437V89.4437H55.76V91.4037H60.6V72.1237H42.16V76.8437H55.76V84.9637H42.72V99.8437C42.72 104.884 44.32 106.284 49.44 106.284H56.28C60.96 106.284 62.36 104.284 62.88 97.5237C61.56 97.2037 59.52 96.4037 58.4 95.6037C58.16 100.844 57.84 101.844 55.92 101.844H50ZM86.32 88.9237H95.56C93.96 90.6037 91.52 92.6037 89.4 94.1637C88.16 92.8037 87.16 91.3237 86.32 89.7637V88.9237ZM95.84 88.9237H101.64V84.8037H96.76C97.16 80.6837 97.44 76.0837 97.52 71.9237L93.68 71.7237L92.8 71.9237H68.96V76.2437H92.16L92.08 78.4037H70.28V82.6437H91.84L91.72 84.8037H66.56V88.9237H81.44V95.2037C75.84 97.4037 69.96 99.6037 66.2 100.884L68.8 105.164C72.44 103.644 77 101.684 81.44 99.7637V102.724C81.44 103.284 81.2 103.444 80.56 103.444C79.96 103.484 77.64 103.484 75.76 103.364C76.36 104.524 77.08 106.204 77.36 107.484C80.36 107.484 82.56 107.404 84.16 106.804C85.8 106.164 86.32 105.124 86.32 102.844V97.1237C89.52 101.124 93.72 104.124 98.96 105.844C99.68 104.604 101.08 102.644 102.16 101.644C98.44 100.684 95.16 99.0837 92.48 97.0037C94.76 95.5237 97.48 93.6437 99.76 91.7637L95.84 88.9237ZM79.32 93.9237C77.68 92.3637 74.36 90.4037 71.92 89.1237L68.76 92.0037C71.28 93.4437 74.48 95.6037 75.92 97.1637L79.32 93.9237Z" fill="white"/>
</svg>
