<svg width="55" height="55" viewBox="0 0 55 55" fill="none" xmlns="http://www.w3.org/2000/svg">
<path fill-rule="evenodd" clip-rule="evenodd" d="M20.0625 21.75V17.0625C20.0625 12.7461 23.5586 9.25 27.875 9.25C32.1914 9.25 35.6875 12.7461 35.6875 17.0625V21.75H20.0625ZM13.8125 17.0625V21.75H12.25C8.80273 21.75 6 24.5527 6 28V46.75C6 50.1973 8.80273 53 12.25 53H43.5C46.9473 53 49.75 50.1973 49.75 46.75V28C49.75 24.5527 46.9473 21.75 43.5 21.75H41.9375V17.0625C41.9375 9.29883 35.6387 3 27.875 3C20.1113 3 13.8125 9.29883 13.8125 17.0625ZM19.568 35.4276L25.5895 41.4375L39.2936 27.7599C39.8011 27.2533 40.4471 27 41.2315 27C42.0159 27 42.6619 27.2533 43.1695 27.7599C43.7232 28.3125 44 28.9572 44 29.6941C44 30.4309 43.7462 31.0526 43.2387 31.5592L27.5274 47.2401C27.0199 47.7467 26.3739 48 25.5895 48C24.8051 48 24.1591 47.7467 23.6516 47.2401L15.7613 39.3651C15.2538 38.8586 15 38.2138 15 37.4309C15 36.648 15.2538 36.0033 15.7613 35.4967C16.315 34.9441 16.961 34.6678 17.6993 34.6678C18.4376 34.6678 19.0605 34.9211 19.568 35.4276Z" fill="#6F6F6F"/>
</svg>
