<svg width="50" height="50" viewBox="0 0 50 50" fill="none" xmlns="http://www.w3.org/2000/svg">
<g clip-path="url(#clip0_62_7594)">
<path d="M24.9996 48.158C24.9402 48.1137 18.9645 43.6833 13.6393 38.905C10.9969 36.4407 8.61364 33.7124 6.52689 30.7627C4.67584 28.2287 3.48071 26.2804 3.46882 26.262C3.00363 25.5117 2.58536 24.7333 2.21642 23.9312C1.35321 22.1051 0.717736 20.1798 0.324305 18.1987C-0.182888 15.8009 -0.0968294 13.3156 0.575002 10.9587C1.47565 8.14853 3.30459 5.72784 5.76184 4.09373C8.27515 2.18036 11.3228 1.09886 14.48 1C15.9805 1.00329 17.4674 1.28353 18.8662 1.82665C20.0442 2.28506 21.157 2.89613 22.176 3.6442C23.2287 4.39691 24.1767 5.28609 24.9953 6.28841C25.8169 5.29029 26.7641 4.40261 27.8134 3.64745C28.8343 2.89774 29.9493 2.28556 31.1298 1.82665C32.5285 1.28353 34.0154 1.00329 35.5159 1C38.6746 1.09681 41.7243 2.17722 44.2395 4.09049C46.6964 5.72492 48.5253 8.14549 49.4263 10.9555C50.0981 13.3124 50.1842 15.7977 49.677 18.1954C49.2853 20.1758 48.6482 22.0997 47.7806 23.9226C47.4119 24.7247 46.9936 25.5032 46.5282 26.2534C46.5174 26.2718 45.3255 28.2147 43.4701 30.7541C41.3708 33.6938 38.9886 36.4209 36.3577 38.8963C31.0444 43.6833 25.059 48.1137 24.9996 48.158ZM14.48 5.99449C12.3543 6.10255 10.3136 6.86366 8.63621 8.17404C6.72788 9.51613 4.29439 11.8967 5.18696 17.0457C5.63039 19.3325 6.46456 21.5257 7.65287 23.5292V23.5357L7.72419 23.6438C10.3309 27.8521 13.4379 31.729 16.9773 35.1899C19.8473 37.7693 22.9205 40.247 24.9996 41.8712C27.0689 40.2503 30.14 37.7801 33.0241 35.1899C35.3806 32.9833 37.507 30.543 39.3704 27.9067C41.0193 25.6602 42.1432 23.8577 42.2685 23.66L42.3269 23.5649C43.5221 21.5515 44.3628 19.3479 44.8122 17.05C45.7048 11.901 43.2713 9.52046 41.363 8.17728C39.6841 6.86593 37.6414 6.10476 35.5137 5.99773C31.8527 5.99773 29.2463 8.98772 28.9632 9.32811L25.0698 14.8823L21.0392 9.32919C20.755 8.98773 18.154 5.99449 14.48 5.99449Z" fill="#BCBCBC"/>
</g>
<defs>
<clipPath id="clip0_62_7594">
<rect width="50" height="50" fill="white"/>
</clipPath>
</defs>
</svg>
