<svg width="55" height="55" viewBox="0 0 55 55" fill="none" xmlns="http://www.w3.org/2000/svg">
<path fill-rule="evenodd" clip-rule="evenodd" d="M20.0625 21.75V17.0625C20.0625 12.7461 23.5586 9.25 27.875 9.25C32.1914 9.25 35.6875 12.7461 35.6875 17.0625V21.75H20.0625ZM13.8125 17.0625V21.75H12.25C8.80273 21.75 6 24.5527 6 28V46.75C6 50.1973 8.80273 53 12.25 53H43.5C46.9473 53 49.75 50.1973 49.75 46.75V28C49.75 24.5527 46.9473 21.75 43.5 21.75H41.9375V17.0625C41.9375 9.29883 35.6387 3 27.875 3C20.1113 3 13.8125 9.29883 13.8125 17.0625ZM31 40.5C32.7285 40.5 34.125 39.1035 34.125 37.375C34.125 35.6465 32.7285 34.25 31 34.25H24.75C23.0215 34.25 21.625 35.6465 21.625 37.375C21.625 39.1035 23.0215 40.5 24.75 40.5H31Z" fill="#6F6F6F"/>
</svg>
