<svg width="57" height="50" viewBox="0 0 57 50" fill="none" xmlns="http://www.w3.org/2000/svg">
<path fill-rule="evenodd" clip-rule="evenodd" d="M56.5556 7.13191L56.5354 18.3522V19.2704H53.4079C51.0611 19.2704 49.1526 21.1723 49.1526 23.5101C49.1526 25.8474 51.0611 27.7528 53.4079 27.7528H56.5354L56.5556 28.6169V42.7632C56.5556 46.7018 53.35 49.8952 49.3964 49.8952H7.17946C3.22509 49.8952 0.0202469 46.7018 0.0202469 42.7632L0 32.3133V27.7493H3.12742C5.47431 27.7493 7.38278 25.8474 7.38278 23.5095C7.38278 21.1723 5.47431 19.2668 3.12742 19.2668H0L0.0202469 14.7006V7.13191C0.0202469 3.19336 3.22509 0 7.17946 0H49.3964C53.35 0 56.5556 3.19336 56.5556 7.13191ZM30.8537 44.1766H47.0516C49.193 44.1766 50.9286 42.4478 50.9286 40.3153V32.5159C46.9518 31.4314 44.0255 27.8157 44.0255 23.5096C44.0255 19.2042 46.9518 15.5886 50.9286 14.5038V9.58086C50.9286 7.44771 49.193 5.71875 47.0516 5.71875H30.8537V14.0838H25.7215V5.71875H9.52414C7.38274 5.71875 5.64648 7.44836 5.64648 9.58159V14.514C9.60302 15.6123 12.5099 19.2186 12.5099 23.5103C12.5099 27.8013 9.60302 31.4076 5.64648 32.5059V40.3153C5.64648 42.4478 7.38274 44.1766 9.52346 44.1766H25.7215V35.4931H30.8537V44.1766ZM30.8537 29.1031V19.1973H25.7214V29.1031H30.8537Z" fill="url(#paint0_linear_200_47)"/>
<defs>
<linearGradient id="paint0_linear_200_47" x1="-0.000170235" y1="0" x2="-0.000170235" y2="49.8955" gradientUnits="userSpaceOnUse">
<stop stop-color="#E2E2E2"/>
<stop offset="1" stop-color="#C1C1C1"/>
</linearGradient>
</defs>
</svg>
