<svg width="55" height="49" viewBox="0 0 55 49" fill="none" xmlns="http://www.w3.org/2000/svg">
<g clip-path="url(#clip0_224_15)">
<path d="M28.2766 28.9133C25.7585 28.9133 23.4534 28.9133 22.3543 28.8769H22.2833C22.0642 28.8756 21.8473 28.9195 21.646 29.0059C21.4447 29.0924 21.2635 29.2195 21.1137 29.3793C20.9639 29.5391 20.8487 29.7281 20.7754 29.9345C20.7021 30.1409 20.6722 30.3602 20.6877 30.5787C20.673 30.8044 20.7073 31.0307 20.7881 31.2419C20.8689 31.4532 20.9944 31.6445 21.156 31.8028C21.3176 31.9611 21.5115 32.0827 21.7243 32.1591C21.9372 32.2356 22.1641 32.2652 22.3895 32.2459C23.8812 32.1749 26.0073 32.1749 28.3118 32.1749C28.3407 32.1708 28.3702 32.1735 28.398 32.1828C28.4257 32.1921 28.4509 32.2077 28.4715 32.2285C28.4922 32.2492 28.5077 32.2745 28.5168 32.3023C28.5259 32.33 28.5285 32.3596 28.5242 32.3885C28.5242 34.0557 28.4896 35.7217 28.4896 37.3531C28.489 37.6216 28.5438 37.8873 28.6505 38.1336C28.7573 38.3799 28.9138 38.6015 29.1102 38.7845C29.3066 38.9676 29.5386 39.1081 29.7918 39.1974C30.045 39.2866 30.3139 39.3226 30.5816 39.3032C30.838 39.327 31.0966 39.297 31.3408 39.2152C31.585 39.1333 31.8093 39.0014 31.9996 38.8278C32.1898 38.6543 32.3418 38.4429 32.4456 38.2072C32.5495 37.9716 32.6029 37.7168 32.6027 37.4593V32.3873C32.6027 32.2811 32.6379 32.2083 32.7817 32.2083C34.6255 32.2083 36.3983 32.2435 37.9587 32.2435H37.9933C38.2191 32.2509 38.4441 32.2128 38.6548 32.1314C38.8656 32.0501 39.0578 31.9272 39.2202 31.7701C39.3825 31.613 39.5116 31.4249 39.5997 31.2169C39.6879 31.0089 39.7333 30.7853 39.7333 30.5593C39.7333 30.3334 39.6879 30.1098 39.5997 29.9018C39.5116 29.6938 39.3825 29.5056 39.2202 29.3485C39.0578 29.1914 38.8656 29.0685 38.6548 28.9872C38.4441 28.9059 38.2191 28.8678 37.9933 28.8751H37.9581C36.859 28.9115 34.9441 28.9115 32.8169 28.9115C32.6379 28.9115 32.6033 28.8751 32.5686 28.7325C32.544 28.4637 32.5753 28.1927 32.6604 27.9365C32.7455 27.6803 32.8827 27.4444 33.0633 27.2437L33.6672 26.3564C33.808 26.1434 33.808 26.1774 34.0926 26.1434L37.9575 26.1792H37.9921C38.2154 26.1897 38.4385 26.1541 38.6474 26.0745C38.8563 25.9949 39.0466 25.8731 39.2063 25.7167C39.3661 25.5603 39.4919 25.3727 39.5759 25.1656C39.6599 24.9584 39.7002 24.7361 39.6945 24.5126C39.6993 24.291 39.6579 24.0709 39.5731 23.8661C39.4883 23.6613 39.3618 23.4764 39.2018 23.323C39.0417 23.1697 38.8515 23.0513 38.6433 22.9754C38.435 22.8994 38.2133 22.8676 37.9921 22.8818H36.3255C36.1847 22.8818 36.1131 22.8818 36.1131 22.8466C36.1131 22.8114 36.1477 22.7756 36.1841 22.7052C41.3253 15.0453 41.3253 15.0077 41.3253 14.4074C41.2735 13.8584 41.0203 13.3479 40.6143 12.9746C40.2084 12.6012 39.6785 12.3915 39.127 12.3858C38.8176 12.3871 38.5145 12.4739 38.2512 12.6366C37.988 12.7992 37.7748 13.0315 37.6353 13.3077C35.7977 16.5621 33.7978 19.722 31.6432 22.7756C31.5352 22.9171 31.5352 22.8819 31.3585 22.9171H29.834C29.6215 22.8819 29.5857 22.9171 29.4801 22.7756C27.1046 19.2652 24.799 15.8258 23.38 13.3435C23.2339 13.0451 23.0068 12.7937 22.7247 12.6182C22.4425 12.4426 22.1167 12.3499 21.7844 12.3506C21.2498 12.3577 20.7376 12.5661 20.3498 12.9342C19.9621 13.3022 19.7273 13.803 19.6924 14.3365C19.7078 14.7558 19.8432 15.1619 20.0826 15.5066C21.1818 17.138 23.1318 19.9395 25.012 22.7398C25.0472 22.8108 25.083 22.8466 25.083 22.8824C25.083 22.8824 25.083 22.9176 24.799 22.9176C23.7708 22.9176 22.9199 22.8824 22.3525 22.8824H22.2815C22.0644 22.8772 21.8487 22.9173 21.648 23.0002C21.4473 23.083 21.2661 23.2068 21.1159 23.3636C20.9658 23.5205 20.85 23.7069 20.7759 23.911C20.7019 24.1151 20.6712 24.3324 20.6859 24.549C20.6679 24.774 20.7002 25.0001 20.7804 25.211C20.8606 25.4219 20.9868 25.6123 21.1497 25.7684C21.3126 25.9245 21.5082 26.0424 21.7223 26.1136C21.9365 26.1847 22.1637 26.2074 22.3877 26.1798C23.5942 26.144 25.1922 26.1094 26.9632 26.1094C27.2461 26.1094 27.3535 26.144 28.31 27.7044C28.4877 28.0029 28.5623 28.3516 28.5224 28.6967C28.489 28.8799 28.489 28.9133 28.2766 28.9133Z" fill="url(#paint0_linear_224_15)"/>
<path d="M30.51 0C25.2363 0.00752243 20.1056 1.71508 15.8792 4.86927C11.6528 8.02346 8.55597 12.4562 7.04817 17.5097L4.45491 13.3745C4.45491 13.3745 3.26448 11.2264 1.4505 12.0749C0.905556 12.3076 0.465937 12.7336 0.216303 13.271C-0.0333309 13.8084 -0.0753439 14.4191 0.0983572 14.9856L5.91384 25.6368C6.27473 26.2563 6.85064 26.7215 7.5321 26.9442C8.23205 27.0958 8.96318 26.9898 9.59132 26.6458L20.0283 20.4556C20.4668 20.057 20.7423 19.5104 20.802 18.9208C20.8618 18.3313 20.7014 17.7405 20.3517 17.2621C19.2233 15.608 17.1044 16.8444 17.1044 16.8444L13.2145 19.0677C14.5138 14.9317 17.2529 11.3986 20.9347 9.10961C24.6164 6.82061 28.9968 5.92744 33.2808 6.59219C37.5648 7.25694 41.4685 9.43557 44.2835 12.7327C47.0984 16.0297 48.638 20.2268 48.6228 24.562C48.6077 28.8973 47.0387 33.0834 44.2008 36.3607C41.3628 39.638 37.4439 41.7893 33.1554 42.424C28.8668 43.0588 24.4928 42.135 20.8272 39.8203C17.1616 37.5056 14.4472 33.9534 13.1769 29.8084L7.06429 31.5579C8.3743 35.9032 10.8661 39.799 14.2616 42.8105C17.657 45.8219 21.8225 47.8306 26.2932 48.6122C30.7639 49.3938 35.3639 48.9177 39.5797 47.2369C43.7955 45.5561 47.4613 42.7369 50.1679 39.0938C52.8746 35.4508 54.5156 31.1272 54.9078 26.6056C55.3 22.0841 54.428 17.5426 52.3891 13.4878C50.3502 9.4331 47.2246 6.02474 43.3612 3.64316C39.4977 1.26158 35.0485 0.000488802 30.51 0.000619139V0Z" fill="url(#paint1_linear_224_15)"/>
</g>
<defs>
<linearGradient id="paint0_linear_224_15" x1="30.5088" y1="12.3506" x2="30.5088" y2="39.3111" gradientUnits="userSpaceOnUse">
<stop stop-color="#E2E2E2"/>
<stop offset="1" stop-color="#C1C1C1"/>
</linearGradient>
<linearGradient id="paint1_linear_224_15" x1="27.4962" y1="0" x2="27.4962" y2="48.9781" gradientUnits="userSpaceOnUse">
<stop stop-color="#E2E2E2"/>
<stop offset="1" stop-color="#C1C1C1"/>
</linearGradient>
<clipPath id="clip0_224_15">
<rect width="55" height="48.9793" fill="white"/>
</clipPath>
</defs>
</svg>
