<svg width="55" height="55" viewBox="0 0 55 55" fill="none" xmlns="http://www.w3.org/2000/svg">
<g clip-path="url(#clip0_224_2)">
<path d="M0.33374 27.5006C0.333653 23.9329 1.0363 20.4002 2.40156 17.104C3.76683 13.8078 5.76796 10.8126 8.29072 8.28979C10.8135 5.76696 13.8084 3.76557 17.1046 2.40022C20.4008 1.03488 23.9336 0.332321 27.5014 0.332321C31.0692 0.332147 34.6022 1.03494 37.8984 2.40022C41.1947 3.76551 44.1897 5.76693 46.7125 8.28979C49.2353 10.8126 51.2365 13.8077 52.6017 17.104C53.9669 20.4003 54.6693 23.9328 54.6691 27.5006C54.6693 31.0684 53.9667 34.6011 52.6014 37.8973C51.2362 41.1934 49.2351 44.1888 46.7123 46.7115C44.1895 49.2342 41.1944 51.2346 37.8982 52.5998C34.602 53.9649 31.0691 54.6679 27.5014 54.6677C20.2962 54.6677 13.3861 51.805 8.29121 46.7102C3.1963 41.6154 0.333917 34.7058 0.33374 27.5006ZM5.53116 27.5006C5.53837 33.3255 7.85537 38.9098 11.974 43.0287C16.0926 47.1477 21.6766 49.4648 27.5014 49.4726C33.3267 49.4656 38.9115 47.1491 43.0306 43.03C47.1498 38.911 49.4671 33.3259 49.4743 27.5006C49.4676 21.675 47.1505 16.0894 43.0313 11.97C38.9121 7.85047 33.3271 5.53313 27.5014 5.52609C21.676 5.53348 16.0914 7.85181 11.9724 11.9712C7.85348 16.0907 5.53655 21.6752 5.52986 27.5006H5.53116ZM25.5202 38.8085C25.5202 37.2081 25.5541 35.575 25.5541 33.9367C25.5579 33.9082 25.5551 33.8796 25.5459 33.8523C25.5367 33.8251 25.5213 33.8 25.501 33.7796C25.4807 33.7593 25.4559 33.7447 25.4287 33.7355C25.4015 33.7263 25.3725 33.7226 25.344 33.7264C23.0843 33.7264 20.9933 33.7267 19.5331 33.7991C19.3121 33.8179 19.0897 33.7897 18.8809 33.7147C18.6722 33.6397 18.4821 33.5207 18.3235 33.3655C18.165 33.2104 18.0418 33.0222 17.9623 32.8151C17.8828 32.6081 17.8489 32.3861 17.8629 32.1648C17.8475 31.9502 17.8766 31.7354 17.9485 31.5326C18.0204 31.3298 18.1335 31.1443 18.2806 30.9874C18.4278 30.8304 18.6057 30.7048 18.8034 30.62C19.0012 30.5352 19.2143 30.4925 19.4294 30.4941H19.4992C20.5766 30.5267 22.8396 30.5266 25.3101 30.5266C25.5201 30.5266 25.5201 30.4937 25.5533 30.3163C25.5927 29.9778 25.5189 29.636 25.3434 29.344C24.4056 27.8153 24.2998 27.7797 24.0227 27.7797C22.2827 27.7797 20.7155 27.8134 19.5324 27.8459C19.3125 27.873 19.0893 27.8509 18.8791 27.781C18.6688 27.7111 18.4768 27.5956 18.3169 27.4422C18.157 27.2889 18.0332 27.1016 17.9546 26.8944C17.8759 26.6873 17.8444 26.4649 17.8622 26.2441C17.8481 26.0316 17.8785 25.8184 17.9513 25.6184C18.0242 25.4183 18.1379 25.2359 18.2853 25.0822C18.4327 24.9286 18.6105 24.8077 18.8073 24.7266C19.0042 24.6455 19.2159 24.6058 19.4287 24.611H19.4985C20.0555 24.611 20.889 24.6461 21.8992 24.6461C22.179 24.6461 22.179 24.611 22.179 24.611C22.179 24.5758 22.1424 24.5413 22.1092 24.4721C20.2628 21.7199 18.3494 18.9739 17.272 17.3701C17.0362 17.0325 16.903 16.6342 16.8885 16.2226C16.9232 15.6991 17.1538 15.2077 17.5344 14.8466C17.915 14.4855 18.4177 14.2813 18.9423 14.2741C19.2683 14.2736 19.5878 14.365 19.8644 14.5376C20.141 14.7103 20.3633 14.9572 20.5061 15.2503C21.9018 17.6869 24.1616 21.0618 26.4932 24.5046C26.5969 24.6461 26.6334 24.6109 26.8401 24.6461H28.3369C28.5104 24.6109 28.5103 24.6461 28.6167 24.5046C30.7312 21.5079 32.6941 18.4073 34.498 15.2139C34.635 14.9433 34.8439 14.7154 35.1019 14.5558C35.3599 14.3962 35.6569 14.3109 35.9603 14.3092C36.5013 14.3148 37.021 14.5206 37.4193 14.8868C37.8175 15.2531 38.0661 15.754 38.117 16.2927C38.117 16.8849 38.117 16.9194 33.0724 24.4371C33.0359 24.5035 33.0026 24.5408 33.0026 24.576C33.0026 24.6112 33.0724 24.611 33.21 24.611H34.8463C35.0633 24.5972 35.2809 24.6286 35.4852 24.7032C35.6894 24.7778 35.876 24.8941 36.033 25.0446C36.19 25.1951 36.314 25.3759 36.3973 25.5768C36.4805 25.7777 36.5211 25.9942 36.5165 26.2116C36.5222 26.4308 36.4826 26.6484 36.4002 26.8516C36.3178 27.0548 36.1943 27.2395 36.0376 27.3929C35.8808 27.5463 35.6942 27.6654 35.4892 27.7434C35.2843 27.8214 35.0654 27.8563 34.8463 27.8459H34.8124L31.0187 27.8122C30.7388 27.8461 30.7389 27.8112 30.602 28.0199L30.0091 28.8922C29.8312 29.089 29.6961 29.3207 29.6124 29.5724C29.5286 29.8241 29.498 30.0898 29.5226 30.3539C29.5565 30.4955 29.5923 30.5279 29.7658 30.5279C31.8534 30.5279 33.733 30.528 34.8131 30.4954H34.847C35.0679 30.4845 35.2887 30.5193 35.496 30.5967C35.7032 30.674 35.8925 30.7929 36.0523 30.9458C36.212 31.0988 36.3389 31.2822 36.4252 31.4859C36.5114 31.6896 36.5551 31.9085 36.5538 32.1297C36.5588 32.3536 36.5178 32.5766 36.4334 32.784C36.3489 32.9914 36.2228 33.179 36.0627 33.3357C35.9027 33.4923 35.7123 33.6139 35.5032 33.694C35.294 33.774 35.0707 33.8102 34.847 33.8004H34.8131C33.2797 33.8004 31.5398 33.7654 29.732 33.7654C29.5924 33.7654 29.5558 33.8317 29.5558 33.938V38.9137C29.5562 39.1665 29.5037 39.417 29.4019 39.6484C29.3 39.8799 29.151 40.0867 28.9643 40.2572C28.7777 40.4278 28.5575 40.5582 28.3178 40.6389C28.0782 40.7195 27.8244 40.7489 27.5726 40.7259C27.3094 40.745 27.0452 40.7098 26.7964 40.622C26.5477 40.5342 26.3197 40.3957 26.1269 40.2157C25.934 40.0357 25.7805 39.8179 25.6758 39.5757C25.5712 39.3336 25.5177 39.0724 25.5188 38.8085H25.5202Z" fill="url(#paint0_linear_224_2)"/>
</g>
<defs>
<linearGradient id="paint0_linear_224_2" x1="27.5014" y1="0.332321" x2="27.5014" y2="54.6677" gradientUnits="userSpaceOnUse">
<stop stop-color="#E2E2E2"/>
<stop offset="1" stop-color="#C1C1C1"/>
</linearGradient>
<clipPath id="clip0_224_2">
<rect width="55" height="55" fill="white"/>
</clipPath>
</defs>
</svg>
