<svg width="60" height="53" viewBox="0 0 60 53" fill="none" xmlns="http://www.w3.org/2000/svg">
<path fill-rule="evenodd" clip-rule="evenodd" d="M59.1978 7.49369L59.1766 19.2826V20.2473H55.9037C53.4465 20.2473 51.4488 22.2457 51.4488 24.7022C51.4488 27.158 53.4465 29.1601 55.9037 29.1601H59.1766L59.1978 30.0689V44.9321C59.1978 49.0712 55.8424 52.4258 51.704 52.4258H7.51498C3.37581 52.4258 0.0211928 49.0712 0.0211928 44.9321L0 33.952V29.1563H3.27358C5.73005 29.1563 7.72844 27.1588 7.72844 24.7022C7.72844 22.2465 5.73005 20.2435 3.27358 20.2435H0L0.0211928 15.4456V7.49369C0.0211928 3.35457 3.37581 0 7.51498 0H51.704C55.8424 0 59.1978 3.35457 59.1978 7.49369ZM9.96844 46.4175H49.2506C51.4913 46.4175 53.3079 44.6003 53.3079 42.3595V34.1646C49.1453 33.025 46.0823 29.2258 46.0823 24.702C46.0823 20.1774 49.1453 16.3783 53.3079 15.2387V10.0658C53.3079 7.82514 51.4913 6.00781 49.2506 6.00781H9.96924C7.72771 6.00781 5.91113 7.82514 5.91113 10.0666V15.2499C10.0518 16.4032 13.0943 20.1926 13.0943 24.702C13.0943 29.2106 10.0518 33.0007 5.91113 34.154V42.3595C5.91113 44.6003 7.72771 46.4175 9.96844 46.4175ZM32.3897 15.1633V23.4218H40.649C42.1884 23.4218 43.4402 24.6744 43.4402 26.213C43.4402 27.7526 42.1884 29.0051 40.649 29.0051H32.3897V37.2636C32.3897 38.8023 31.138 40.0541 29.5992 40.0541C28.0597 40.0541 26.808 38.8023 26.808 37.2636V29.0051H18.5487C17.0093 29.0051 15.7583 27.7526 15.7583 26.213C15.7583 24.6744 17.0093 23.4218 18.5487 23.4218H26.808V15.1633C26.808 13.6238 28.0597 12.3721 29.5992 12.3721C31.138 12.3721 32.3897 13.6238 32.3897 15.1633Z" fill="url(#paint0_linear_200_45)"/>
<defs>
<linearGradient id="paint0_linear_200_45" x1="2.82277e-05" y1="0" x2="2.82277e-05" y2="52.4258" gradientUnits="userSpaceOnUse">
<stop stop-color="#E2E2E2"/>
<stop offset="1" stop-color="#C1C1C1"/>
</linearGradient>
</defs>
</svg>
