<svg width="136" height="115" viewBox="0 0 136 115" fill="none" xmlns="http://www.w3.org/2000/svg">
<path fill-rule="evenodd" clip-rule="evenodd" d="M92.3528 29C95.4717 29 98.0001 31.5284 98.0001 34.6472C98.0001 37.7661 95.4717 40.2945 92.3528 40.2945H43.6477C40.5289 40.2945 38.0005 37.7661 38.0005 34.6472C38.0005 31.5284 40.5289 29 43.6477 29H92.3528Z" fill="#5F6577"/>
<path fill-rule="evenodd" clip-rule="evenodd" d="M46.2571 74.0032C41.697 74.0032 38 76.5316 38 79.6506C38 82.7695 41.697 85.2972 46.2571 85.2972H89.7427C94.303 85.2972 98 82.7695 98 79.6506C98 76.5316 94.303 74.0032 89.7427 74.0032H46.2571Z" fill="#5F6577"/>
<path fill-rule="evenodd" clip-rule="evenodd" d="M46.2571 51.5014C41.697 51.5014 38 54.0298 38 57.1488C38 60.2677 41.697 62.7962 46.2571 62.7962H89.7427C94.303 62.7962 98 60.2677 98 57.1488C98 54.0298 94.303 51.5014 89.7427 51.5014H46.2571Z" fill="#5F6577"/>
</svg>
