<svg width="50" height="50" viewBox="0 0 50 50" fill="none" xmlns="http://www.w3.org/2000/svg">
<g clip-path="url(#clip0_62_7603)">
<path d="M48.8637 30.537C48.335 31.2623 47.6594 31.8682 46.8809 32.3151C46.1025 32.7619 45.2386 33.0398 44.3456 33.1306H32.2172C32.6787 34.7811 33.0421 36.4574 33.3054 38.1508C33.4725 39.8242 33.4724 43.5892 32.5522 46.0157C32.2604 46.7643 31.8197 47.4459 31.2567 48.0191C30.6937 48.5923 30.0201 49.0451 29.2768 49.3502C28.5336 49.6553 27.7361 49.8063 26.9327 49.794C26.1294 49.7817 25.3369 49.6063 24.6033 49.2785C20.6669 47.6882 21.0055 43.5052 20.8419 41.7478C20.6783 39.9904 20.4238 39.0702 17.9132 35.3892C15.4027 31.7083 9.03621 30.9525 9.03621 30.9525H2.76075C2.07641 30.9193 1.42579 30.6454 0.923767 30.1792C0.458236 29.7936 0.134438 29.2639 0.00352478 28.6737V4.34687C0.0799388 3.70099 0.341492 3.09098 0.75668 2.59036C0.950929 2.39119 1.18551 2.23587 1.4447 2.13479C1.70389 2.0337 1.98172 1.9892 2.25952 2.00427H39.0779C40.4841 1.95686 41.8754 2.30478 43.0939 3.0085C44.3345 3.79279 45.2314 5.01857 45.6035 6.4384C45.6035 6.4384 49.5233 23.8031 49.7035 24.8458C49.9353 26.2104 50.5362 28.1095 48.8637 30.537ZM8.61808 6.27219H4.26706V26.8551H8.61808V6.27219ZM45.684 25.8509L41.7476 8.19666C41.5623 7.61373 41.2175 7.09434 40.7521 6.69733C40.504 6.47233 40.2106 6.30301 39.8917 6.20071C39.5728 6.09842 39.2356 6.06553 38.9029 6.10425H12.5466V27.4403C12.5466 27.4403 19.2402 29.1977 21.9178 33.6318C23.6978 36.3334 24.7629 39.4425 25.0136 42.668C25.1807 44.4254 25.5997 45.5967 27.106 45.6807C28.6123 45.7647 29.2553 44.1236 29.4232 42.7853C29.7049 40.2353 29.4282 37.6545 28.6123 35.2221L27.525 32.2095C27.525 32.2095 26.7718 30.8702 27.4375 29.9509C27.6454 29.6767 27.9113 29.4519 28.2161 29.2924C28.521 29.1328 28.8573 29.0426 29.201 29.028H44.3456C44.6003 29.0135 44.8471 28.9348 45.0632 28.7993C45.2793 28.6638 45.4576 28.4759 45.5817 28.253C45.898 27.4894 45.9343 26.6386 45.684 25.8509Z" fill="#77787C"/>
</g>
<defs>
<clipPath id="clip0_62_7603">
<rect width="50" height="50" fill="white"/>
</clipPath>
</defs>
</svg>
