<svg width="55" height="55" viewBox="0 0 55 55" fill="none" xmlns="http://www.w3.org/2000/svg">
<path d="M9 7.625C9 3.9709 11.9929 1 15.6741 1H39.0333C42.7145 1 45.7074 3.9709 45.7074 7.625V47.375C45.7074 51.0291 42.7145 54 39.0333 54H15.6741C11.9929 54 9 51.0291 9 47.375V7.625ZM22.3481 47.375C22.3481 48.2859 23.099 49.0312 24.0167 49.0312H30.6907C31.6084 49.0312 32.3593 48.2859 32.3593 47.375C32.3593 46.4641 31.6084 45.7188 30.6907 45.7188H24.0167C23.099 45.7188 22.3481 46.4641 22.3481 47.375ZM39.0333 7.625H15.6741V40.75H39.0333V7.625Z" fill="#6F6F6F"/>
</svg>
