<svg width="55" height="55" viewBox="0 0 55 55" fill="none" xmlns="http://www.w3.org/2000/svg">
<path fill-rule="evenodd" clip-rule="evenodd" d="M27.9553 38.3391C33.9064 38.3391 38.731 33.5146 38.731 27.5634C38.731 21.6122 33.9064 16.7877 27.9553 16.7877C22.0041 16.7877 17.1795 21.6122 17.1795 27.5634C17.1795 33.5146 22.0041 38.3391 27.9553 38.3391V38.3391ZM27.9554 20.2536C31.9919 20.2536 35.2643 23.526 35.2643 27.5629C35.2643 31.5994 31.9919 34.8718 27.9554 34.8718C23.9185 34.8718 20.6461 31.5994 20.6461 27.5629C20.6461 23.526 23.9185 20.2536 27.9554 20.2536V20.2536Z" fill="#6F6F6F"/>
<path fill-rule="evenodd" clip-rule="evenodd" d="M28.4772 45C48.6088 45 52.6182 27.1241 52.6182 27.1241C52.6182 27.1241 47.857 10 28.2266 10C8.59659 10 3 27.291 3 27.291C3 27.291 8.34602 45 28.4772 45V45ZM28.3939 13.3418C44.9332 13.3418 49.1936 27.7927 49.1936 27.7927C49.1936 27.7927 44.432 41.7428 27.2243 41.7428C12.8566 41.7428 6.84247 27.6257 6.84247 27.6257C6.84247 27.6257 11.8542 13.3418 28.3939 13.3418V13.3418Z" fill="#6F6F6F"/>
</svg>
