<svg width="55" height="55" viewBox="0 0 55 55" fill="none" xmlns="http://www.w3.org/2000/svg">
<path fill-rule="evenodd" clip-rule="evenodd" d="M10.6574 16C10.6574 16 17.1235 27.5451 28.185 27.297C41.5745 27.4094 45.0256 16 45.0256 16H48.999C48.3215 18.3955 43.9828 31.1003 28.185 31.1003C12.0189 31.1003 6.86122 17.9282 6.19267 16H10.6574ZM28.689 39.3061V33.123H26.3108V39.3061H28.689ZM38.2681 31.0329L40.783 36.6815L38.6105 37.6488L36.0956 32.0002L38.2681 31.0329ZM51 30.1784L46.8627 25.5834L45.0954 27.1747L49.2327 31.7696L51 30.1784ZM4 30.1789L8.13733 25.5839L9.90456 27.1751L5.76723 31.7701L4 30.1789ZM16.7319 31.0329L14.2171 36.6813L16.3896 37.6486L18.9045 32.0002L16.7319 31.0329Z" fill="#6F6F6F"/>
<path d="M28.185 27.297L28.1891 26.797L28.1814 26.797L28.1737 26.7971L28.185 27.297ZM10.6574 16L11.0936 15.7557L10.9504 15.5H10.6574V16ZM45.0256 16V15.5H44.6545L44.547 15.8552L45.0256 16ZM48.999 16L49.4801 16.1361L49.66 15.5H48.999V16ZM6.19267 16V15.5H5.4901L5.72026 16.1638L6.19267 16ZM28.689 33.123H29.189V32.623H28.689V33.123ZM28.689 39.3061V39.8061H29.189V39.3061H28.689ZM26.3108 33.123V32.623H25.8108V33.123H26.3108ZM26.3108 39.3061H25.8108V39.8061H26.3108V39.3061ZM40.783 36.6815L40.9864 37.1383L41.4431 36.9349L41.2398 36.4781L40.783 36.6815ZM38.2681 31.0329L38.7249 30.8295L38.5215 30.3728L38.0647 30.5761L38.2681 31.0329ZM38.6105 37.6488L38.1537 37.8521L38.3571 38.3089L38.8138 38.1055L38.6105 37.6488ZM36.0956 32.0002L35.8922 31.5434L35.4354 31.7468L35.6388 32.2036L36.0956 32.0002ZM46.8627 25.5834L47.2342 25.2488L46.8997 24.8773L46.5281 25.2118L46.8627 25.5834ZM51 30.1784L51.3346 30.5499L51.7061 30.2154L51.3716 29.8438L51 30.1784ZM45.0954 27.1747L44.7608 26.8031L44.3892 27.1377L44.7238 27.5092L45.0954 27.1747ZM49.2327 31.7696L48.8611 32.1042L49.1957 32.4758L49.5673 32.1412L49.2327 31.7696ZM8.13733 25.5839L8.4719 25.2123L8.10033 24.8778L7.76576 25.2493L8.13733 25.5839ZM4 30.1789L3.62843 29.8443L3.29386 30.2159L3.66543 30.5504L4 30.1789ZM9.90456 27.1751L10.2761 27.5097L10.6107 27.1381L10.2391 26.8036L9.90456 27.1751ZM5.76723 31.7701L5.43266 32.1417L5.80423 32.4762L6.1388 32.1047L5.76723 31.7701ZM14.2171 36.6813L13.7603 36.4779L13.5569 36.9347L14.0137 37.1381L14.2171 36.6813ZM16.7319 31.0329L16.9353 30.5761L16.4785 30.3728L16.2751 30.8295L16.7319 31.0329ZM16.3896 37.6486L16.1863 38.1053L16.643 38.3087L16.8464 37.8519L16.3896 37.6486ZM18.9045 32.0002L19.3612 32.2036L19.5646 31.7468L19.1078 31.5434L18.9045 32.0002ZM28.1737 26.7971C22.8284 26.917 18.5683 24.1883 15.6179 21.3794C14.1458 19.978 13.0117 18.5675 12.2458 17.5073C11.8632 16.9776 11.5734 16.5365 11.38 16.2292C11.2833 16.0756 11.2107 15.9556 11.1629 15.8747C11.1389 15.8343 11.1211 15.8037 11.1096 15.7836C11.1038 15.7736 11.0996 15.7662 11.0969 15.7615C11.0956 15.7592 11.0946 15.7575 11.0941 15.7565C11.0938 15.756 11.0936 15.7557 11.0935 15.7556C11.0935 15.7555 11.0935 15.7555 11.0935 15.7555C11.0935 15.7556 11.0936 15.7557 10.6574 16C10.2211 16.2443 10.2212 16.2445 10.2214 16.2448C10.2215 16.2449 10.2216 16.2452 10.2218 16.2455C10.2221 16.246 10.2225 16.2468 10.223 16.2477C10.224 16.2495 10.2255 16.252 10.2273 16.2552C10.2309 16.2616 10.2361 16.2708 10.2429 16.2826C10.2565 16.3062 10.2764 16.3404 10.3025 16.3844C10.3547 16.4726 10.4319 16.6003 10.5337 16.762C10.7371 17.0851 11.0388 17.544 11.4352 18.0928C12.2274 19.1896 13.4012 20.6498 14.9283 22.1037C17.9763 25.0053 22.48 27.9251 28.1962 27.7969L28.1737 26.7971ZM45.0256 16C44.547 15.8552 44.5471 15.855 44.5471 15.8549C44.5471 15.8549 44.5472 15.8547 44.5471 15.8547C44.5471 15.8548 44.5471 15.8549 44.547 15.8553C44.5468 15.856 44.5463 15.8574 44.5457 15.8594C44.5444 15.8635 44.5423 15.8703 44.5393 15.8797C44.5332 15.8985 44.5237 15.9276 44.5104 15.9664C44.4839 16.0441 44.4425 16.1604 44.3848 16.3097C44.2692 16.6086 44.0883 17.0394 43.8297 17.5578C43.312 18.5954 42.4857 19.9787 41.2535 21.3575C38.7983 24.1049 34.7196 26.8519 28.1891 26.797L28.1808 27.797C35.0399 27.8546 39.3815 24.953 41.9992 22.0238C43.3034 20.5644 44.1767 19.1023 44.7246 18.0042C44.9987 17.4547 45.192 16.995 45.3175 16.6703C45.3803 16.5079 45.4261 16.3792 45.4567 16.2898C45.472 16.2451 45.4834 16.2101 45.4913 16.1857C45.4952 16.1735 45.4982 16.164 45.5004 16.1571C45.5014 16.1537 45.5023 16.1509 45.5029 16.1489C45.5032 16.1478 45.5035 16.147 45.5037 16.1463C45.5038 16.146 45.5039 16.1456 45.504 16.1454C45.5041 16.1451 45.5042 16.1448 45.0256 16ZM48.999 15.5H45.0256V16.5H48.999V15.5ZM28.185 31.6003C36.238 31.6003 41.403 28.3544 44.6329 24.7839C47.849 21.2286 49.1307 17.3716 49.4801 16.1361L48.5178 15.8639C48.1898 17.0239 46.9633 20.7171 43.8913 24.1131C40.833 27.4939 35.9297 30.6003 28.185 30.6003V31.6003ZM5.72026 16.1638C6.40214 18.1304 11.6737 31.6003 28.185 31.6003V30.6003C12.364 30.6003 7.32029 17.7259 6.66508 15.8362L5.72026 16.1638ZM10.6574 15.5H6.19267V16.5H10.6574V15.5ZM28.189 33.123V39.3061H29.189V33.123H28.189ZM26.3108 33.623H28.689V32.623H26.3108V33.623ZM26.8108 39.3061V33.123H25.8108V39.3061H26.8108ZM28.689 38.8061H26.3108V39.8061H28.689V38.8061ZM41.2398 36.4781L38.7249 30.8295L37.8113 31.2363L40.3262 36.8849L41.2398 36.4781ZM38.8138 38.1055L40.9864 37.1383L40.5796 36.2247L38.4071 37.192L38.8138 38.1055ZM35.6388 32.2036L38.1537 37.8521L39.0672 37.4454L36.5523 31.7968L35.6388 32.2036ZM38.0647 30.5761L35.8922 31.5434L36.2989 32.457L38.4715 31.4897L38.0647 30.5761ZM46.4911 25.918L50.6284 30.5129L51.3716 29.8438L47.2342 25.2488L46.4911 25.918ZM45.4299 27.5463L47.1972 25.955L46.5281 25.2118L44.7608 26.8031L45.4299 27.5463ZM49.6043 31.4351L45.467 26.8401L44.7238 27.5092L48.8611 32.1042L49.6043 31.4351ZM50.6654 29.8068L48.8981 31.3981L49.5673 32.1412L51.3346 30.5499L50.6654 29.8068ZM7.76576 25.2493L3.62843 29.8443L4.37157 30.5134L8.5089 25.9185L7.76576 25.2493ZM10.2391 26.8036L8.4719 25.2123L7.80277 25.9555L9.56999 27.5467L10.2391 26.8036ZM6.1388 32.1047L10.2761 27.5097L9.53299 26.8406L5.39565 31.4355L6.1388 32.1047ZM3.66543 30.5504L5.43266 32.1417L6.10179 31.3985L4.33457 29.8073L3.66543 30.5504ZM14.6738 36.8846L17.1887 31.2363L16.2751 30.8295L13.7603 36.4779L14.6738 36.8846ZM16.593 37.1918L14.4204 36.2245L14.0137 37.1381L16.1863 38.1053L16.593 37.1918ZM18.4477 31.7968L15.9329 37.4452L16.8464 37.8519L19.3612 32.2036L18.4477 31.7968ZM16.5285 31.4897L18.7011 32.457L19.1078 31.5434L16.9353 30.5761L16.5285 31.4897Z" fill="black" fill-opacity="0.01"/>
</svg>
