<svg width="55" height="55" viewBox="0 0 55 55" fill="none" xmlns="http://www.w3.org/2000/svg">
<mask id="path-1-outside-1_214_2" maskUnits="userSpaceOnUse" x="4" y="5" width="48" height="46" fill="black">
<rect fill="white" x="4" y="5" width="48" height="46"/>
<path d="M47.7782 24.7984H48.6208C49.9393 24.7984 51 23.751 51 22.4491V9.91932C51 8.9698 50.425 8.10837 49.5328 7.74618C48.6406 7.38399 47.6196 7.57977 46.9356 8.25521L42.8116 12.3274C34.1276 3.85999 20.14 3.88936 11.5056 12.4253C2.83147 20.9906 2.83147 34.8712 11.5056 43.4365C20.1797 52.0018 34.2367 52.0018 42.9108 43.4365C44.1499 42.2129 44.1499 40.2257 42.9108 39.0021C41.6716 37.7785 39.6592 37.7785 38.4201 39.0021C32.2243 45.1202 22.1822 45.1202 15.9864 39.0021C9.79058 32.8841 9.79058 22.9679 15.9864 16.8499C22.1524 10.7612 32.1152 10.7318 38.3209 16.752L34.2466 20.785C33.5626 21.4604 33.3643 22.4687 33.7311 23.3497C34.0979 24.2307 34.9703 24.7984 35.9318 24.7984H47.7782Z"/>
</mask>
<path d="M47.7782 24.7984H48.6208C49.9393 24.7984 51 23.751 51 22.4491V9.91932C51 8.9698 50.425 8.10837 49.5328 7.74618C48.6406 7.38399 47.6196 7.57977 46.9356 8.25521L42.8116 12.3274C34.1276 3.85999 20.14 3.88936 11.5056 12.4253C2.83147 20.9906 2.83147 34.8712 11.5056 43.4365C20.1797 52.0018 34.2367 52.0018 42.9108 43.4365C44.1499 42.2129 44.1499 40.2257 42.9108 39.0021C41.6716 37.7785 39.6592 37.7785 38.4201 39.0021C32.2243 45.1202 22.1822 45.1202 15.9864 39.0021C9.79058 32.8841 9.79058 22.9679 15.9864 16.8499C22.1524 10.7612 32.1152 10.7318 38.3209 16.752L34.2466 20.785C33.5626 21.4604 33.3643 22.4687 33.7311 23.3497C34.0979 24.2307 34.9703 24.7984 35.9318 24.7984H47.7782Z" fill="#6F6F6F"/>
<path d="M46.9356 8.25521L46.2329 7.54365L46.2329 7.54365L46.9356 8.25521ZM42.8116 12.3274L42.1135 13.0434L42.8161 13.7284L43.5143 13.0389L42.8116 12.3274ZM11.5056 12.4253L12.2082 13.1368L12.2086 13.1364L11.5056 12.4253ZM42.9108 43.4365L42.2082 42.7249L42.2082 42.7249L42.9108 43.4365ZM38.4201 39.0021L37.7174 38.2906L37.7174 38.2906L38.4201 39.0021ZM15.9864 16.8499L15.2837 16.1383L15.2837 16.1383L15.9864 16.8499ZM38.3209 16.752L39.0244 17.4627L39.7497 16.7448L39.0172 16.0342L38.3209 16.752ZM34.2466 20.785L34.9492 21.4966L34.9501 21.4957L34.2466 20.785ZM47.7782 25.7984H48.6208V23.7984H47.7782V25.7984ZM48.6208 25.7984C50.4796 25.7984 52 24.3152 52 22.4491H50C50 23.1869 49.3989 23.7984 48.6208 23.7984V25.7984ZM52 22.4491V9.91932H50V22.4491H52ZM52 9.91932C52 8.56314 51.1787 7.33506 49.909 6.81962L49.1567 8.67275C49.6714 8.88169 50 9.37645 50 9.91932H52ZM49.909 6.81962C48.653 6.30975 47.2062 6.58258 46.2329 7.54365L47.6382 8.96676C48.0329 8.57696 48.6283 8.45824 49.1567 8.67275L49.909 6.81962ZM46.2329 7.54365L42.109 11.6158L43.5143 13.0389L47.6382 8.96676L46.2329 7.54365ZM43.5098 11.6114C34.4363 2.76428 19.8255 2.79413 10.8025 11.7141L12.2086 13.1364C20.4546 4.98459 33.819 4.95571 42.1135 13.0434L43.5098 11.6114ZM10.8029 11.7137C1.73235 20.6705 1.73235 35.1913 10.8029 44.1481L12.2082 42.7249C3.9306 34.5512 3.9306 21.3106 12.2082 13.1368L10.8029 11.7137ZM10.8029 44.1481C19.8665 53.0979 34.5498 53.0979 43.6134 44.1481L42.2082 42.7249C33.9235 50.9056 20.4928 50.9056 12.2082 42.7249L10.8029 44.1481ZM43.6134 44.1481C45.2491 42.5329 45.2491 39.9057 43.6134 38.2906L42.2082 39.7137C43.0508 40.5458 43.0508 41.8929 42.2082 42.7249L43.6134 44.1481ZM43.6134 38.2906C41.9848 36.6824 39.3461 36.6824 37.7174 38.2906L39.1227 39.7137C39.9724 38.8747 41.3585 38.8747 42.2082 39.7137L43.6134 38.2906ZM37.7174 38.2906C31.9111 44.024 22.4953 44.024 16.689 38.2906L15.2837 39.7137C21.869 46.2163 32.5374 46.2163 39.1227 39.7137L37.7174 38.2906ZM16.689 38.2906C10.8897 32.564 10.8897 23.288 16.689 17.5614L15.2837 16.1383C8.69146 22.6479 8.69146 33.2041 15.2837 39.7137L16.689 38.2906ZM16.689 17.5614C22.4674 11.8555 31.8087 11.8276 37.6246 17.4697L39.0172 16.0342C32.4218 9.63596 21.8375 9.6668 15.2837 16.1383L16.689 17.5614ZM37.6174 16.0413L33.5431 20.0743L34.9501 21.4957L39.0244 17.4627L37.6174 16.0413ZM33.544 20.0734C32.5684 21.0368 32.2854 22.479 32.8079 23.734L34.6543 22.9653C34.4432 22.4583 34.5567 21.8841 34.9492 21.4965L33.544 20.0734ZM32.8079 23.734C33.3345 24.9988 34.5784 25.7984 35.9318 25.7984V23.7984C35.3621 23.7984 34.8613 23.4626 34.6543 22.9653L32.8079 23.734ZM35.9318 25.7984H47.7782V23.7984H35.9318V25.7984Z" fill="#6F6F6F" mask="url(#path-1-outside-1_214_2)"/>
</svg>
