<svg width="50" height="50" viewBox="0 0 50 50" fill="none" xmlns="http://www.w3.org/2000/svg">
<path d="M0 27.0013C0 26.2058 0.316021 25.4428 0.878544 24.8803C1.44107 24.3178 2.20401 24.0018 2.99954 24.0018H19.9969C20.7924 24.0018 21.5554 24.3178 22.1179 24.8803C22.6804 25.4428 22.9965 26.2058 22.9965 27.0013C22.9965 27.7968 22.6804 28.5598 22.1179 29.1223C21.5554 29.6848 20.7924 30.0009 19.9969 30.0009H2.99954C2.20401 30.0009 1.44107 29.6848 0.878544 29.1223C0.316021 28.5598 0 27.7968 0 27.0013ZM2.99954 14.0033H15.9975C16.7931 14.0033 17.556 13.6873 18.1185 13.1248C18.6811 12.5623 18.9971 11.7993 18.9971 11.0038C18.9971 10.2083 18.6811 9.44531 18.1185 8.88279C17.556 8.32027 16.7931 8.00425 15.9975 8.00425H2.99954C2.20401 8.00425 1.44107 8.32027 0.878544 8.88279C0.316021 9.44531 0 10.2083 0 11.0038C0 11.7993 0.316021 12.5623 0.878544 13.1248C1.44107 13.6873 2.20401 14.0033 2.99954 14.0033ZM35.9945 39.9993H2.99954C2.20401 39.9993 1.44107 40.3153 0.878544 40.8779C0.316021 41.4404 0 42.2033 0 42.9989C0 43.7944 0.316021 44.5573 0.878544 45.1198C1.44107 45.6824 2.20401 45.9984 2.99954 45.9984H35.9945C36.79 45.9984 37.5529 45.6824 38.1154 45.1198C38.678 44.5573 38.994 43.7944 38.994 42.9989C38.994 42.2033 38.678 41.4404 38.1154 40.8779C37.5529 40.3153 36.79 39.9993 35.9945 39.9993ZM49.1149 14.8807L39.1165 4.88223C38.8378 4.60259 38.5067 4.38072 38.1421 4.22932C37.7775 4.07793 37.3866 4 36.9918 4C36.597 4 36.2061 4.07793 35.8415 4.22932C35.4769 4.38072 35.1458 4.60259 34.8671 4.88223L24.8687 14.8807C24.3052 15.4442 23.9886 16.2085 23.9886 17.0054C23.9886 17.8023 24.3052 18.5665 24.8687 19.13C25.4322 19.6935 26.1964 20.0101 26.9933 20.0101C27.7902 20.0101 28.5545 19.6935 29.118 19.13L33.9948 14.2533V31.0007C33.9948 31.7962 34.3108 32.5592 34.8733 33.1217C35.4358 33.6842 36.1988 34.0002 36.9943 34.0002C37.7898 34.0002 38.5528 33.6842 39.1153 33.1217C39.6778 32.5592 39.9938 31.7962 39.9938 31.0007V14.2533L44.8706 19.1325C45.1496 19.4115 45.4808 19.6329 45.8454 19.7839C46.2099 19.9349 46.6007 20.0126 46.9953 20.0126C47.3898 20.0126 47.7806 19.9349 48.1451 19.7839C48.5097 19.6329 48.8409 19.4115 49.1199 19.1325C49.3989 18.8535 49.6203 18.5223 49.7713 18.1577C49.9223 17.7932 50 17.4024 50 17.0079C50 16.6133 49.9223 16.2225 49.7713 15.858C49.6203 15.4934 49.3989 15.1622 49.1199 14.8832L49.1149 14.8807Z" fill="#B7B7B7"/>
</svg>
