<svg width="50" height="50" viewBox="0 0 50 50" fill="none" xmlns="http://www.w3.org/2000/svg">
<path d="M28.7846 1.99902C29.2944 1.99924 29.799 2.10077 30.2692 2.29771C30.7393 2.49466 31.1656 2.78309 31.5234 3.14624L48.4481 20.1392C49.4414 21.1395 49.9983 22.4923 49.9971 23.902C49.9958 25.3117 49.4365 26.6636 48.4413 27.6621L31.9013 44.2021C31.5438 44.5635 31.1182 44.8505 30.6491 45.0464C30.18 45.2424 29.6767 45.3434 29.1683 45.3436C28.1733 45.3445 27.2153 44.9662 26.4892 44.2858C26.1008 43.924 25.7917 43.4855 25.5816 42.9979C25.3716 42.5104 25.2651 41.9846 25.2689 41.4538V33.4722C25.2687 33.4623 25.2649 33.4528 25.2582 33.4456C25.2514 33.4383 25.2422 33.4338 25.2324 33.4328H25.2228C22.885 33.7213 18.4558 34.582 15.0602 37.1284C12.0435 39.3698 9.42529 42.1027 7.31527 45.2128C7.26238 45.2955 7.20949 45.3667 7.15853 45.4349C7.09314 45.5234 7.01043 45.634 6.90465 45.8042C6.88157 45.8407 6.85656 45.885 6.82772 45.9331C6.5891 46.3632 6.3037 46.7657 5.97668 47.1332C5.68298 47.4759 5.31974 47.7523 4.91106 47.944C4.50237 48.1357 4.0576 48.2382 3.60626 48.2448C2.88452 48.222 2.19 47.964 1.62843 47.51C1.06686 47.0561 0.668998 46.4311 0.495384 45.7302C0.25218 45.0419 0.0977026 44.3255 0.0357132 43.5982C-0.115861 40.5055 0.272016 37.41 1.18198 34.4502C1.96106 31.8146 3.12258 29.3076 4.62943 27.0091C6.5133 24.1648 8.88993 21.6797 11.6474 19.6709L11.7243 19.6171C14.2039 17.9419 16.8558 16.5373 19.6347 15.4272C21.3181 14.7535 23.0714 14.2697 24.8621 13.9848C24.8695 13.9821 24.8757 13.977 24.8799 13.9704C24.884 13.9638 24.8859 13.956 24.8852 13.9482V5.88979C24.8814 5.35896 24.9879 4.83312 25.1979 4.34561C25.408 3.8581 25.7171 3.41956 26.1055 3.05778C26.8314 2.37701 27.7895 1.99841 28.7846 1.99902ZM29.1693 41.4932L29.1866 41.4778L45.7267 24.9378C46.0027 24.6603 46.1576 24.2848 46.1576 23.8934C46.1576 23.5021 46.0027 23.1266 45.7267 22.8491L28.8019 5.85613L28.7846 5.84074C28.7671 5.84314 28.7505 5.85011 28.7366 5.86094C28.736 5.86862 28.736 5.87632 28.7366 5.88401V13.9425C28.7385 14.8746 28.4048 15.7763 27.7965 16.4827C27.1882 17.189 26.3459 17.6527 25.4237 17.789C23.5187 18.0669 19.4934 19.0872 13.8947 22.7895C11.5232 24.5232 9.47845 26.6644 7.8557 29.1132C6.55548 31.0974 5.55337 33.2617 4.88137 35.5369C4.10838 38.0376 3.76979 40.6523 3.88031 43.2674C3.88352 43.3091 3.88769 43.3508 3.89282 43.3924C3.96975 43.2828 4.03225 43.2001 4.07937 43.1337L4.10534 43.0991C6.46499 39.6185 9.39025 36.557 12.76 34.0415C14.725 32.6066 16.9164 31.5109 19.2433 30.7999C21.0424 30.2345 22.8894 29.8347 24.7612 29.6055C24.9207 29.5858 25.0813 29.5758 25.242 29.5757C26.2719 29.5772 27.2591 29.9872 27.9871 30.7157C28.715 31.4443 29.1243 32.4318 29.125 33.4617V41.4432C29.1245 41.4509 29.1245 41.4586 29.125 41.4663C29.1374 41.4794 29.153 41.489 29.1703 41.4942L29.1693 41.4932Z" fill="#BCBCBC"/>
</svg>
