<svg width="136" height="115" viewBox="0 0 136 115" fill="none" xmlns="http://www.w3.org/2000/svg">
<path d="M50.2969 17.7343C50.2969 17.6197 50.2396 17.5051 50.125 17.3906C49.2083 15.3281 48.349 13.9531 47.5469 13.2656C47.0885 12.9218 46.3438 12.8072 45.3125 12.9218C44.5104 13.0364 43.9375 13.3801 43.5938 13.9531C43.0208 15.0989 43.25 16.3593 44.2812 17.7343H29.8438C28.2396 17.8489 27.3229 18.651 27.0938 20.1406C27.2083 21.7447 28.0677 22.6041 29.6719 22.7187H37.2344C36.4323 23.6354 35.1146 25.0104 33.2812 26.8437C32.1354 28.1041 31.276 29.0208 30.7031 29.5937C29.5573 30.9687 29.2135 32.1718 29.6719 33.2031C30.2448 34.3489 31.3906 34.9218 33.1094 34.9218C34.7135 34.9218 36.2031 34.9218 37.5781 34.9218C37.6927 38.7031 37.0625 41.5676 35.6875 43.5156C34.3125 45.5781 31.9062 47.2395 28.4688 48.4999C26.5208 49.1874 25.776 50.3333 26.2344 51.9374C27.0365 53.427 28.4115 53.7708 30.3594 52.9687C35.0573 51.1354 38.2083 49.0156 39.8125 46.6093C41.5312 44.2031 42.4479 40.3072 42.5625 34.9218C44.625 34.9218 46.1146 34.8645 47.0312 34.7499V47.1249C46.9167 51.4791 49.3229 53.5416 54.25 53.3124H58.0312C62.0417 53.427 64.3333 52.1093 64.9062 49.3593C65.3646 48.2135 65.5938 46.2083 65.5938 43.3437C65.4792 41.8541 64.6771 41.052 63.1875 40.9374C61.5833 41.052 60.724 41.8541 60.6094 43.3437C60.8385 47.0104 59.6927 48.7291 57.1719 48.4999H55.4531C53.0469 48.6145 51.9583 47.9843 52.1875 46.6093V34.4062C53.1042 34.4062 54.5365 34.2916 56.4844 34.0624C56.9427 33.9479 57.2292 33.8906 57.3438 33.8906C58.0312 34.8072 58.7188 35.7812 59.4062 36.8124C60.5521 38.0729 61.8125 38.1874 63.1875 37.1562C64.2188 36.1249 64.276 34.8072 63.3594 33.2031C61.6406 30.3385 59.75 27.5312 57.6875 24.7812C56.5417 23.4062 55.224 23.0051 53.7344 23.5781C52.3594 24.3801 52.0729 25.526 52.875 27.0156C52.875 27.1301 53.5625 28.0468 54.9375 29.7656C50.6979 30.3385 45.0833 30.5104 38.0938 30.2812C37.5208 30.2812 37.1771 30.1666 37.0625 29.9374C36.9479 29.8229 37.0625 29.5937 37.4062 29.2499C38.0938 28.5624 39.3542 27.1874 41.1875 25.1249C42.2188 24.0937 42.9635 23.2916 43.4219 22.7187H63.0156C64.6198 22.6041 65.4792 21.802 65.5938 20.3124C65.4792 18.7083 64.6771 17.8489 63.1875 17.7343H50.2969ZM78.3125 24.2656C79.6875 21.6301 80.6615 18.9947 81.2344 16.3593C81.5781 14.4114 81.0052 13.2656 79.5156 12.9218C77.9115 12.4635 76.8229 13.151 76.25 14.9843C74.875 20.7135 72.6979 25.2968 69.7188 28.7343C68.8021 30.2239 69.1458 31.4843 70.75 32.5156C71.8958 32.9739 72.8125 32.802 73.5 31.9999V52.1093C73.6146 53.4843 74.4167 54.2291 75.9062 54.3437C77.3958 54.1145 78.1979 53.3124 78.3125 51.9374V24.2656ZM83.6406 16.3593C82.2656 16.4739 81.5208 17.276 81.4062 18.7656C81.5208 20.2551 82.2656 21.0572 83.6406 21.1718H91.5469L91.375 22.8906H85.3594C83.0677 22.776 81.9792 23.9218 82.0938 26.3281V48.4999H80.8906C79.5156 48.6145 78.7708 49.3593 78.6562 50.7343C78.8854 52.1093 79.6875 52.8541 81.0625 52.9687H108.391C109.766 52.8541 110.51 52.052 110.625 50.5624C110.51 49.1874 109.766 48.4426 108.391 48.3281H107.531V26.3281C107.646 23.9218 106.328 22.776 103.578 22.8906H96.7031L97.0469 21.1718H108.219C109.479 21.0572 110.167 20.2551 110.281 18.7656C110.167 17.276 109.479 16.4739 108.219 16.3593H97.3906C97.5052 15.901 97.5625 15.4999 97.5625 15.1562C97.6771 13.552 96.9323 12.8072 95.3281 12.9218C93.3802 12.8072 92.349 13.4374 92.2344 14.8124C92.2344 15.2708 92.1771 15.7864 92.0625 16.3593H83.6406ZM87.0781 28.3906C87.0781 27.7031 87.3646 27.4166 87.9375 27.5312H101.688C102.375 27.4166 102.661 27.7031 102.547 28.3906V29.5937H87.0781V28.3906ZM102.547 35.9531H87.0781V33.8906H102.547V35.9531ZM102.547 42.1406H87.0781V40.0781H102.547V42.1406ZM102.547 48.3281H87.0781V46.2656H102.547V48.3281ZM27.6094 89.4531C27.6094 91.5156 28.6406 92.5468 30.7031 92.5468H39.6406C42.276 92.5468 43.5365 91.5156 43.4219 89.4531V65.5624C43.3073 63.4999 42.3333 62.4114 40.5 62.2968H30.875C28.8125 62.2968 27.724 63.3854 27.6094 65.5624V89.4531ZM46.3438 78.4531C46.3438 79.7135 46.3438 80.6874 46.3438 81.3749C46.3438 82.177 46.2865 82.8645 46.1719 83.4374C46.2865 89.7395 42.9062 94.2083 36.0312 96.8437C34.1979 97.6458 33.6823 98.8489 34.4844 100.453C35.401 101.828 36.8333 102.057 38.7812 101.141C45.7708 98.3906 49.7812 94.0364 50.8125 88.0781H59.5781V94.6093C59.8073 96.0989 58.4896 96.5572 55.625 95.9843C53.7917 95.7551 52.6458 96.3281 52.1875 97.7031C51.8438 99.1926 52.5885 100.109 54.4219 100.453C55.3385 100.568 56.2552 100.625 57.1719 100.625C57.8594 100.74 58.375 100.797 58.7188 100.797C62.8438 101.026 64.849 98.9635 64.7344 94.6093V65.7343C64.7344 63.5572 63.6458 62.4687 61.4688 62.4687H49.0938C47.375 62.5833 46.4583 63.6718 46.3438 65.7343V78.4531ZM32.5938 74.3281V67.7968C32.7083 67.4531 32.8802 67.2812 33.1094 67.2812H37.75C38.0938 67.2812 38.2656 67.4531 38.2656 67.7968V74.3281H32.5938ZM59.75 72.6093H51.5V67.9687C51.5 67.6249 51.6719 67.4531 52.0156 67.4531H59.2344C59.5781 67.4531 59.75 67.6822 59.75 68.1406V72.6093ZM59.5781 82.9218H51.3281C51.4427 82.2343 51.5 80.4583 51.5 77.5937H59.5781V82.9218ZM33.1094 87.7343C32.7656 87.7343 32.5938 87.5624 32.5938 87.2187V79.3124H38.0938V87.3906C38.0938 87.6197 37.9792 87.7343 37.75 87.7343H33.1094ZM77.625 73.6406C77.3958 73.6406 77.224 73.526 77.1094 73.2968C77.1094 73.1822 77.224 72.9531 77.4531 72.6093C77.7969 72.0364 78.7135 70.6041 80.2031 68.3124C81.349 66.7083 82.151 65.5624 82.6094 64.8749C83.526 63.6145 83.4688 62.4687 82.4375 61.4374C81.0625 60.6354 79.8021 60.8072 78.6562 61.9531C75.4479 66.0781 72.9271 69.7447 71.0938 72.9531C69.9479 76.0468 70.5208 77.7083 72.8125 77.9374H76.25C73.5 81.2604 71.8958 83.552 71.4375 84.8124C70.5208 87.1041 71.151 88.4218 73.3281 88.7656C76.4219 88.7656 79.6875 88.4791 83.125 87.9062C84.8438 87.5624 85.7031 86.7031 85.7031 85.3281C85.3594 83.8385 84.3854 83.151 82.7812 83.2656C80.6042 83.4947 79.3438 83.6666 79 83.7812C78.6562 83.8958 78.4271 83.8385 78.3125 83.6093C78.3125 83.4947 78.4271 83.2656 78.6562 82.9218C82.8958 77.7656 85.1875 74.7864 85.5312 73.9843C85.9896 72.4947 85.7031 71.4062 84.6719 70.7187C83.6406 70.0312 82.6094 70.2031 81.5781 71.2343C81.349 71.4635 80.9479 71.9218 80.375 72.6093C79.9167 73.1822 79.5729 73.526 79.3438 73.6406H77.625ZM89.8281 63.8437C87.4219 63.8437 86.2188 65.0468 86.2188 67.4531V96.8437C86.2188 99.3645 87.4219 100.625 89.8281 100.625H105.297C108.047 100.74 109.365 99.4791 109.25 96.8437V67.2812C109.25 64.9895 107.99 63.8437 105.469 63.8437H89.8281ZM91.2031 79.4843V68.6562H95.1562V79.4843H91.2031ZM99.9688 68.6562H104.266V79.4843H99.9688V68.6562ZM95.1562 95.8124H91.2031V84.1249H95.1562V95.8124ZM99.9688 95.8124V84.1249H104.266V95.8124H99.9688ZM72.4688 95.4687C70.8646 96.0416 70.1771 97.0156 70.4062 98.3906C70.8646 99.8801 71.9531 100.453 73.6719 100.109C76.8802 99.4218 80.375 98.2187 84.1562 96.4999C85.6458 95.6979 86.1042 94.552 85.5312 93.0624C84.8438 91.6874 83.6979 91.3437 82.0938 92.0312C78.8854 93.6354 75.6771 94.7812 72.4688 95.4687Z" fill="#D04BFF"/>
</svg>
