<svg width="136" height="115" viewBox="0 0 136 115" fill="none" xmlns="http://www.w3.org/2000/svg">
<path fill-rule="evenodd" clip-rule="evenodd" d="M105 0C122.121 0 136 12.8718 136 28.75V86.25C136 102.128 122.121 115 105 115H31C13.8792 115 0 102.128 0 86.25V28.75C0 12.8718 13.8792 0 31 0H105Z" fill="url(#paint0_linear_2_146)"/>
<path fill-rule="evenodd" clip-rule="evenodd" d="M71.1467 44.539C70.95 44.539 70.9022 44.6382 70.9022 44.7853V51.8175C70.9022 53.5379 69.5238 54.3742 68.0992 54.3742C66.6729 54.3742 65.1969 53.4901 65.1969 51.6705C65.1969 49.4079 65.2449 47.0975 65.2449 44.7853C65.2449 44.5886 65.1491 44.4894 64.9507 44.4894C61.7563 44.4894 58.8044 44.4894 56.7385 44.5886C55.1155 44.686 54.3767 43.4086 54.3767 42.2764C54.3767 41.0964 55.1155 39.9164 56.5896 39.9164H56.6888C58.2144 39.966 61.4107 39.966 64.903 39.966C65.1969 39.966 65.1969 39.9164 65.2449 39.6701C65.2449 39.0801 65.2449 38.7842 64.9507 38.2934C63.6236 36.13 63.4748 36.0822 63.0832 36.0822C60.624 36.0822 58.411 36.13 56.7385 36.1797C55.8029 36.2293 54.3767 35.7863 54.3767 33.9171C54.3767 32.737 55.1155 31.6067 56.5896 31.6067H56.6888C57.4755 31.6067 58.6573 31.6563 60.0819 31.6563C60.4769 31.6563 60.4769 31.6067 60.4769 31.6067C60.4769 31.5571 60.4274 31.5074 60.3778 31.41C57.7714 27.5244 55.0659 23.6389 53.5421 21.3781C53.1967 20.8359 53 20.2955 53 19.7551C53 18.2296 54.4759 17 55.9022 17C56.7385 17 57.5748 17.3951 58.1151 18.3784C60.0819 21.821 63.28 26.5907 66.5737 31.4596C66.7207 31.6563 66.7721 31.6067 67.0662 31.6563H69.18C69.4263 31.6067 69.4263 31.6563 69.575 31.4596C72.5252 27.2799 76.0156 21.7714 77.8848 18.3288C78.3757 17.4429 79.164 17.0496 79.9508 17.0496C81.4248 17.0496 83 18.3288 83 19.8526C83 20.6889 83 20.7385 75.8685 31.3604C75.8188 31.4596 75.7711 31.5074 75.7711 31.5571C75.7711 31.6067 75.8685 31.6067 76.0653 31.6067H78.3278C79.9029 31.6067 80.7357 32.737 80.7357 33.8692C80.7357 34.9996 79.9508 36.1797 78.3757 36.1797L72.9682 36.13C72.573 36.1797 72.573 36.13 72.3781 36.4259L71.54 37.6556C70.95 38.4918 70.8526 38.7363 70.8526 39.7215C70.9022 39.9164 70.95 39.966 71.198 39.966C74.1481 39.966 76.8041 39.966 78.3278 39.9164C79.9029 39.9164 80.7871 41.0964 80.7871 42.2286C80.7871 43.4086 79.9029 44.5886 78.3278 44.5886C76.1626 44.5886 73.7052 44.539 71.1467 44.539Z" fill="#F7F7F7"/>
<path d="M53.5156 68.1288C53.5156 68.0351 53.4688 67.9413 53.375 67.8476C52.625 66.1601 51.9219 65.0351 51.2656 64.4726C50.8906 64.1913 50.2812 64.0976 49.4375 64.1913C48.7812 64.2851 48.3125 64.5663 48.0312 65.0351C47.5625 65.9726 47.75 67.0038 48.5938 68.1288H36.7812C35.4688 68.2226 34.7188 68.8788 34.5312 70.0976C34.625 71.4101 35.3281 72.1132 36.6406 72.207H42.8281C42.1719 72.957 41.0938 74.082 39.5938 75.582C38.6562 76.6132 37.9531 77.3632 37.4844 77.832C36.5469 78.957 36.2656 79.9413 36.6406 80.7851C37.1094 81.7226 38.0469 82.1913 39.4531 82.1913C40.7656 82.1913 41.9844 82.1913 43.1094 82.1913C43.2031 85.2851 42.6875 87.6288 41.5625 89.2226C40.4375 90.9101 38.4688 92.2695 35.6562 93.3007C34.0625 93.8632 33.4531 94.8007 33.8281 96.1132C34.4844 97.332 35.6094 97.6132 37.2031 96.957C41.0469 95.457 43.625 93.7226 44.9375 91.7538C46.3438 89.7851 47.0938 86.5976 47.1875 82.1913C48.875 82.1913 50.0938 82.1445 50.8438 82.0507V92.1757C50.75 95.7382 52.7188 97.4257 56.75 97.2382H59.8438C63.125 97.332 65 96.2538 65.4688 94.0038C65.8438 93.0663 66.0312 91.4257 66.0312 89.082C65.9375 87.8632 65.2812 87.207 64.0625 87.1132C62.75 87.207 62.0469 87.8632 61.9531 89.082C62.1406 92.082 61.2031 93.4882 59.1406 93.3007H57.7344C55.7656 93.3945 54.875 92.8788 55.0625 91.7538V81.7695C55.8125 81.7695 56.9844 81.6757 58.5781 81.4882C58.9531 81.3945 59.1875 81.3476 59.2812 81.3476C59.8438 82.0976 60.4062 82.8945 60.9688 83.7382C61.9062 84.7695 62.9375 84.8632 64.0625 84.0195C64.9062 83.1757 64.9531 82.0976 64.2031 80.7851C62.7969 78.4413 61.25 76.1445 59.5625 73.8945C58.625 72.7695 57.5469 72.4413 56.3281 72.9101C55.2031 73.5663 54.9688 74.5038 55.625 75.7226C55.625 75.8163 56.1875 76.5663 57.3125 77.9726C53.8438 78.4413 49.25 78.582 43.5312 78.3945C43.0625 78.3945 42.7812 78.3007 42.6875 78.1132C42.5938 78.0195 42.6875 77.832 42.9688 77.5507C43.5312 76.9882 44.5625 75.8632 46.0625 74.1757C46.9062 73.332 47.5156 72.6757 47.8906 72.207H63.9219C65.2344 72.1132 65.9375 71.457 66.0312 70.2382C65.9375 68.9257 65.2812 68.2226 64.0625 68.1288H53.5156ZM76.4375 73.4726C77.5625 71.3163 78.3594 69.1601 78.8281 67.0038C79.1094 65.4101 78.6406 64.4726 77.4219 64.1913C76.1094 63.8163 75.2188 64.3788 74.75 65.8788C73.625 70.5663 71.8438 74.3163 69.4062 77.1288C68.6562 78.3476 68.9375 79.3788 70.25 80.2226C71.1875 80.5976 71.9375 80.457 72.5 79.8007V96.2538C72.5938 97.3788 73.25 97.9882 74.4688 98.082C75.6875 97.8945 76.3438 97.2382 76.4375 96.1132V73.4726ZM80.7969 67.0038C79.6719 67.0976 79.0625 67.7538 78.9688 68.9726C79.0625 70.1913 79.6719 70.8476 80.7969 70.9413H87.2656L87.125 72.3476H82.2031C80.3281 72.2538 79.4375 73.1913 79.5312 75.1601V93.3007H78.5469C77.4219 93.3945 76.8125 94.0038 76.7188 95.1288C76.9062 96.2538 77.5625 96.8632 78.6875 96.957H101.047C102.172 96.8632 102.781 96.207 102.875 94.9882C102.781 93.8632 102.172 93.2538 101.047 93.1601H100.344V75.1601C100.438 73.1913 99.3594 72.2538 97.1094 72.3476H91.4844L91.7656 70.9413H100.906C101.938 70.8476 102.5 70.1913 102.594 68.9726C102.5 67.7538 101.938 67.0976 100.906 67.0038H92.0469C92.1406 66.6288 92.1875 66.3007 92.1875 66.0195C92.2812 64.707 91.6719 64.0976 90.3594 64.1913C88.7656 64.0976 87.9219 64.6132 87.8281 65.7382C87.8281 66.1132 87.7812 66.5351 87.6875 67.0038H80.7969ZM83.6094 76.8476C83.6094 76.2851 83.8438 76.0507 84.3125 76.1445H95.5625C96.125 76.0507 96.3594 76.2851 96.2656 76.8476V77.832H83.6094V76.8476ZM96.2656 83.0351H83.6094V81.3476H96.2656V83.0351ZM96.2656 88.0976H83.6094V86.4101H96.2656V88.0976ZM96.2656 93.1601H83.6094V91.4726H96.2656V93.1601Z" fill="#F7F7F7"/>
<defs>
<linearGradient id="paint0_linear_2_146" x1="0" y1="115" x2="136" y2="115" gradientUnits="userSpaceOnUse">
<stop stop-color="#D22783"/>
<stop offset="1" stop-color="#8F31D3"/>
</linearGradient>
</defs>
</svg>
