<svg width="55" height="55" viewBox="0 0 55 55" fill="none" xmlns="http://www.w3.org/2000/svg">
<path d="M27.875 9.25C23.5586 9.25 20.0625 12.7461 20.0625 17.0625V21.75H43.5C46.9473 21.75 49.75 24.5527 49.75 28V46.75C49.75 50.1973 46.9473 53 43.5 53H12.25C8.80273 53 6 50.1973 6 46.75V28C6 24.5527 8.80273 21.75 12.25 21.75H13.8125V17.0625C13.8125 9.29883 20.1113 3 27.875 3C33.4902 3 38.3242 6.29102 40.5801 11.0371C41.3223 12.5996 40.6582 14.4648 39.0957 15.1973C37.5332 15.9297 35.668 15.2754 34.9355 13.7129C33.6758 11.0664 30.9902 9.25 27.875 9.25ZM31 40.5C32.7285 40.5 34.125 39.1035 34.125 37.375C34.125 35.6465 32.7285 34.25 31 34.25H24.75C23.0215 34.25 21.625 35.6465 21.625 37.375C21.625 39.1035 23.0215 40.5 24.75 40.5H31Z" fill="#6F6F6F"/>
</svg>
