<svg width="136" height="115" viewBox="0 0 136 115" fill="none" xmlns="http://www.w3.org/2000/svg">
<path d="M27.7812 19.9688C26.4062 20.0833 25.6615 20.8854 25.5469 22.375C25.6615 23.9792 26.349 24.8385 27.6094 24.9531H30.3594V33.0312C29.6719 33.375 29.4427 33.4896 29.6719 33.375C28.6406 33.8333 27.8385 34.1771 27.2656 34.4062C25.8906 35.0938 25.4896 36.1823 26.0625 37.6719C26.5208 39.0469 27.4948 39.5052 28.9844 39.0469C29.3281 38.8177 29.7865 38.6458 30.3594 38.5312V47.125C30.3594 47.8125 29.9583 48.099 29.1562 47.9844C28.9271 47.9844 28.6406 47.9271 28.2969 47.8125C28.0677 47.8125 27.8958 47.8125 27.7812 47.8125C26.5208 47.9271 25.8333 48.6146 25.7188 49.875C25.4896 51.9375 26.9219 53.026 30.0156 53.1406H30.875C33.9688 53.1406 35.4583 51.7656 35.3438 49.0156V36.8125C36.0312 36.3542 36.8906 35.8385 37.9219 35.2656C38.0365 36.526 38.6094 37.2135 39.6406 37.3281H48.9219V47.125C47.3177 46.6667 45.8281 45.75 44.4531 44.375C44.9115 43.2292 45.1406 42.026 45.1406 40.7656C45.1406 38.9323 44.3385 38.0156 42.7344 38.0156C41.2448 37.901 40.4427 38.7031 40.3281 40.4219C39.7552 44.3177 38.3229 47.4115 36.0312 49.7031C35 51.0781 35.1146 52.2812 36.375 53.3125C37.6354 54 38.8385 53.8281 39.9844 52.7969C41.0156 51.651 41.9323 50.3906 42.7344 49.0156C44.5677 51.0781 48.349 52.2812 54.0781 52.625C55.7969 52.7396 59.2344 52.7969 64.3906 52.7969C65.7656 52.9115 66.4531 51.9948 66.4531 50.0469C66.4531 48.6719 65.7656 47.9844 64.3906 47.9844C59.1198 47.9844 55.6823 47.9271 54.0781 47.8125V44.375H63.875C65.25 44.2604 65.9948 43.4583 66.1094 41.9688C65.9948 40.4792 65.25 39.6771 63.875 39.5625H54.0781V37.3281H64.3906C65.651 37.2135 66.3385 36.3542 66.4531 34.75C66.3385 33.2604 65.651 32.4583 64.3906 32.3438H39.125C38.8958 30.9688 38.0938 30.3958 36.7188 30.625C36.6042 30.625 36.375 30.7396 36.0312 30.9688C35.6875 31.0833 35.4583 31.1406 35.3438 31.1406V24.9531H36.5469C37.8073 24.8385 38.4948 24.0365 38.6094 22.5469C38.6094 20.9427 37.9792 20.0833 36.7188 19.9688H35.3438V14.8125C35.2292 13.5521 34.4271 12.8646 32.9375 12.75C31.3333 12.8646 30.474 13.5521 30.3594 14.8125V19.9688H27.7812ZM42.7344 14.2969C40.2135 14.1823 39.0104 15.3281 39.125 17.7344V27.3594C39.0104 29.7656 40.0417 30.9115 42.2188 30.7969H61.125C63.5312 31.026 64.6771 29.7656 64.5625 27.0156V17.9062C64.7917 15.2708 63.6458 14.0677 61.125 14.2969H42.7344ZM59.75 18.9375V20.4844H43.7656V18.9375H59.75ZM59.75 26.3281H43.7656V24.7812H59.75V26.3281ZM88.4531 14.125C86.0469 14.125 84.8438 15.2708 84.8438 17.5625V38.3594C84.9583 39.6198 85.7604 40.3073 87.25 40.4219C88.625 40.3073 89.3698 39.6198 89.4844 38.3594V19.4531C89.599 19.224 89.7708 19.0521 90 18.9375H102.719C103.062 18.9375 103.234 19.1094 103.234 19.4531V37.5C103.349 38.875 104.151 39.6198 105.641 39.7344C107.13 39.6198 107.932 38.875 108.047 37.5V18.0781C108.161 15.3281 106.844 14.0104 104.094 14.125H88.4531ZM71.9531 14.9844C70.8073 15.099 70.1771 15.901 70.0625 17.3906C70.1771 18.8802 70.8073 19.6823 71.9531 19.7969H75.3906V27.5312H72.6406C71.3802 27.6458 70.6927 28.3906 70.5781 29.7656C70.5781 31.2552 71.2083 32.0573 72.4688 32.1719H75.3906V41.7969C75.1615 41.9115 74.7031 42.1406 74.0156 42.4844C72.6406 43.0573 71.8385 43.401 71.6094 43.5156C70.1198 44.3177 69.5469 45.4062 69.8906 46.7812C70.4635 48.0417 71.5521 48.4427 73.1562 47.9844C78.4271 45.9219 82.151 44.2604 84.3281 43C85.474 42.3125 85.7604 41.3385 85.1875 40.0781C84.6146 38.8177 83.6979 38.4167 82.4375 38.875C82.0938 38.9896 81.6927 39.1615 81.2344 39.3906C80.776 39.6198 80.375 39.7917 80.0312 39.9062V32.1719H82.2656C83.4115 32.0573 84.0417 31.2552 84.1562 29.7656C84.0417 28.3906 83.4115 27.6458 82.2656 27.5312H80.0312V19.7969H82.7812C83.9271 19.6823 84.5 18.8802 84.5 17.3906C84.3854 15.901 83.7552 15.099 82.6094 14.9844H71.9531ZM101.172 37.6719C100.828 35.724 99.6823 35.0938 97.7344 35.7812C98.1927 32.8021 98.4219 29.0208 98.4219 24.4375C98.3073 22.7188 97.5625 21.7448 96.1875 21.5156C94.6979 21.6302 93.8958 22.5469 93.7812 24.2656C93.8958 31.9427 93.2083 37.099 91.7188 39.7344C90.5729 42.599 87.3073 45.6354 81.9219 48.8438C80.4323 49.7604 80.0885 50.9062 80.8906 52.2812C81.6927 53.4271 82.9531 53.5417 84.6719 52.625C90.2865 49.6458 94.2396 45.6354 96.5312 40.5938V48.6719C96.5312 51.0781 98.3646 52.2812 102.031 52.2812H104.609C108.391 52.5104 110.224 49.5885 110.109 43.5156C109.995 42.2552 109.25 41.5677 107.875 41.4531C106.615 41.5677 105.927 42.3125 105.812 43.6875C105.812 46.4375 105.24 47.7552 104.094 47.6406H101.859C101.401 47.6406 101.172 47.3542 101.172 46.7812V37.6719ZM27.6094 89.4531C27.6094 91.5156 28.6406 92.5469 30.7031 92.5469H39.6406C42.276 92.5469 43.5365 91.5156 43.4219 89.4531V65.5625C43.3073 63.5 42.3333 62.4115 40.5 62.2969H30.875C28.8125 62.2969 27.724 63.3854 27.6094 65.5625V89.4531ZM46.3438 78.4531C46.3438 79.7135 46.3438 80.6875 46.3438 81.375C46.3438 82.1771 46.2865 82.8646 46.1719 83.4375C46.2865 89.7396 42.9062 94.2083 36.0312 96.8438C34.1979 97.6458 33.6823 98.849 34.4844 100.453C35.401 101.828 36.8333 102.057 38.7812 101.141C45.7708 98.3906 49.7812 94.0365 50.8125 88.0781H59.5781V94.6094C59.8073 96.099 58.4896 96.5573 55.625 95.9844C53.7917 95.7552 52.6458 96.3281 52.1875 97.7031C51.8438 99.1927 52.5885 100.109 54.4219 100.453C55.3385 100.568 56.2552 100.625 57.1719 100.625C57.8594 100.74 58.375 100.797 58.7188 100.797C62.8438 101.026 64.849 98.9635 64.7344 94.6094V65.7344C64.7344 63.5573 63.6458 62.4688 61.4688 62.4688H49.0938C47.375 62.5833 46.4583 63.6719 46.3438 65.7344V78.4531ZM32.5938 74.3281V67.7969C32.7083 67.4531 32.8802 67.2812 33.1094 67.2812H37.75C38.0938 67.2812 38.2656 67.4531 38.2656 67.7969V74.3281H32.5938ZM59.75 72.6094H51.5V67.9688C51.5 67.625 51.6719 67.4531 52.0156 67.4531H59.2344C59.5781 67.4531 59.75 67.6823 59.75 68.1406V72.6094ZM59.5781 82.9219H51.3281C51.4427 82.2344 51.5 80.4583 51.5 77.5938H59.5781V82.9219ZM33.1094 87.7344C32.7656 87.7344 32.5938 87.5625 32.5938 87.2188V79.3125H38.0938V87.3906C38.0938 87.6198 37.9792 87.7344 37.75 87.7344H33.1094ZM77.625 73.6406C77.3958 73.6406 77.224 73.526 77.1094 73.2969C77.1094 73.1823 77.224 72.9531 77.4531 72.6094C77.7969 72.0365 78.7135 70.6042 80.2031 68.3125C81.349 66.7083 82.151 65.5625 82.6094 64.875C83.526 63.6146 83.4688 62.4688 82.4375 61.4375C81.0625 60.6354 79.8021 60.8073 78.6562 61.9531C75.4479 66.0781 72.9271 69.7448 71.0938 72.9531C69.9479 76.0469 70.5208 77.7083 72.8125 77.9375H76.25C73.5 81.2604 71.8958 83.5521 71.4375 84.8125C70.5208 87.1042 71.151 88.4219 73.3281 88.7656C76.4219 88.7656 79.6875 88.4792 83.125 87.9062C84.8438 87.5625 85.7031 86.7031 85.7031 85.3281C85.3594 83.8385 84.3854 83.151 82.7812 83.2656C80.6042 83.4948 79.3438 83.6667 79 83.7812C78.6562 83.8958 78.4271 83.8385 78.3125 83.6094C78.3125 83.4948 78.4271 83.2656 78.6562 82.9219C82.8958 77.7656 85.1875 74.7865 85.5312 73.9844C85.9896 72.4948 85.7031 71.4062 84.6719 70.7188C83.6406 70.0312 82.6094 70.2031 81.5781 71.2344C81.349 71.4635 80.9479 71.9219 80.375 72.6094C79.9167 73.1823 79.5729 73.526 79.3438 73.6406H77.625ZM89.8281 63.8438C87.4219 63.8438 86.2188 65.0469 86.2188 67.4531V96.8438C86.2188 99.3646 87.4219 100.625 89.8281 100.625H105.297C108.047 100.74 109.365 99.4792 109.25 96.8438V67.2812C109.25 64.9896 107.99 63.8438 105.469 63.8438H89.8281ZM91.2031 79.4844V68.6562H95.1562V79.4844H91.2031ZM99.9688 68.6562H104.266V79.4844H99.9688V68.6562ZM95.1562 95.8125H91.2031V84.125H95.1562V95.8125ZM99.9688 95.8125V84.125H104.266V95.8125H99.9688ZM72.4688 95.4688C70.8646 96.0417 70.1771 97.0156 70.4062 98.3906C70.8646 99.8802 71.9531 100.453 73.6719 100.109C76.8802 99.4219 80.375 98.2188 84.1562 96.5C85.6458 95.6979 86.1042 94.5521 85.5312 93.0625C84.8438 91.6875 83.6979 91.3438 82.0938 92.0312C78.8854 93.6354 75.6771 94.7812 72.4688 95.4688Z" fill="#D04BFF"/>
</svg>
